<?xml version="1.0" encoding="utf-8" standalone="no"?>
<!DOCTYPE svg PUBLIC "-//W3C//DTD SVG 1.1//EN"
  "http://www.w3.org/Graphics/SVG/1.1/DTD/svg11.dtd">
<!-- Created with matplotlib (http://matplotlib.org/) -->
<svg height="345pt" version="1.1" viewBox="0 0 460 345" width="460pt" xmlns="http://www.w3.org/2000/svg" xmlns:xlink="http://www.w3.org/1999/xlink">
 <defs>
  <style type="text/css">
*{stroke-linecap:butt;stroke-linejoin:round;}
  </style>
 </defs>
 <g id="figure_1">
  <g id="patch_1">
   <path d="M 0 345.6 
L 460.8 345.6 
L 460.8 0 
L 0 0 
z
" style="fill:#ffffff;"/>
  </g>
  <g id="axes_1">
   <g id="patch_2">
    <path d="M 44.203125 304.44375 
L 236.451562 304.44375 
L 236.451562 25.918125 
L 44.203125 25.918125 
z
" style="fill:#ffffff;"/>
   </g>
   <g id="patch_3">
    <path clip-path="url(#p6a0536a648)" d="M 236.451562 303.200332 
L 236.451562 303.200332 
L 236.451562 300.713496 
L 236.451562 300.713496 
z
" style="fill:#1f77b4;"/>
   </g>
   <g id="patch_4">
    <path clip-path="url(#p6a0536a648)" d="M 236.451562 298.22666 
L 236.451562 298.22666 
L 236.451562 295.739824 
L 236.451562 295.739824 
z
" style="fill:#1f77b4;"/>
   </g>
   <g id="patch_5">
    <path clip-path="url(#p6a0536a648)" d="M 236.451562 293.252988 
L 236.451562 293.252988 
L 236.451562 290.766152 
L 236.451562 290.766152 
z
" style="fill:#1f77b4;"/>
   </g>
   <g id="patch_6">
    <path clip-path="url(#p6a0536a648)" d="M 236.451562 288.279316 
L 230.448489 288.279316 
L 230.448489 285.79248 
L 236.451562 285.79248 
z
" style="fill:#1f77b4;"/>
   </g>
   <g id="patch_7">
    <path clip-path="url(#p6a0536a648)" d="M 236.451562 283.305645 
L 218.442341 283.305645 
L 218.442341 280.818809 
L 236.451562 280.818809 
z
" style="fill:#1f77b4;"/>
   </g>
   <g id="patch_8">
    <path clip-path="url(#p6a0536a648)" d="M 236.451562 278.331973 
L 212.439267 278.331973 
L 212.439267 275.845137 
L 236.451562 275.845137 
z
" style="fill:#1f77b4;"/>
   </g>
   <g id="patch_9">
    <path clip-path="url(#p6a0536a648)" d="M 236.451562 273.358301 
L 167.416214 273.358301 
L 167.416214 270.871465 
L 236.451562 270.871465 
z
" style="fill:#1f77b4;"/>
   </g>
   <g id="patch_10">
    <path clip-path="url(#p6a0536a648)" d="M 236.451562 268.384629 
L 146.405456 268.384629 
L 146.405456 265.897793 
L 236.451562 265.897793 
z
" style="fill:#1f77b4;"/>
   </g>
   <g id="patch_11">
    <path clip-path="url(#p6a0536a648)" d="M 236.451562 263.410957 
L 53.357812 263.410957 
L 53.357812 260.924121 
L 236.451562 260.924121 
z
" style="fill:#1f77b4;"/>
   </g>
   <g id="patch_12">
    <path clip-path="url(#p6a0536a648)" d="M 236.451562 258.437285 
L 104.38394 258.437285 
L 104.38394 255.950449 
L 236.451562 255.950449 
z
" style="fill:#1f77b4;"/>
   </g>
   <g id="patch_13">
    <path clip-path="url(#p6a0536a648)" d="M 236.451562 253.463613 
L 83.373181 253.463613 
L 83.373181 250.976777 
L 236.451562 250.976777 
z
" style="fill:#1f77b4;"/>
   </g>
   <g id="patch_14">
    <path clip-path="url(#p6a0536a648)" d="M 236.451562 248.489941 
L 80.371644 248.489941 
L 80.371644 246.003105 
L 236.451562 246.003105 
z
" style="fill:#1f77b4;"/>
   </g>
   <g id="patch_15">
    <path clip-path="url(#p6a0536a648)" d="M 236.451562 243.51627 
L 80.371644 243.51627 
L 80.371644 241.029434 
L 236.451562 241.029434 
z
" style="fill:#1f77b4;"/>
   </g>
   <g id="patch_16">
    <path clip-path="url(#p6a0536a648)" d="M 236.451562 238.542598 
L 53.357812 238.542598 
L 53.357812 236.055762 
L 236.451562 236.055762 
z
" style="fill:#1f77b4;"/>
   </g>
   <g id="patch_17">
    <path clip-path="url(#p6a0536a648)" d="M 236.451562 233.568926 
L 104.38394 233.568926 
L 104.38394 231.08209 
L 236.451562 231.08209 
z
" style="fill:#1f77b4;"/>
   </g>
   <g id="patch_18">
    <path clip-path="url(#p6a0536a648)" d="M 236.451562 228.595254 
L 89.376255 228.595254 
L 89.376255 226.108418 
L 236.451562 226.108418 
z
" style="fill:#1f77b4;"/>
   </g>
   <g id="patch_19">
    <path clip-path="url(#p6a0536a648)" d="M 236.451562 223.621582 
L 62.362423 223.621582 
L 62.362423 221.134746 
L 236.451562 221.134746 
z
" style="fill:#1f77b4;"/>
   </g>
   <g id="patch_20">
    <path clip-path="url(#p6a0536a648)" d="M 236.451562 218.64791 
L 131.397772 218.64791 
L 131.397772 216.161074 
L 236.451562 216.161074 
z
" style="fill:#1f77b4;"/>
   </g>
   <g id="patch_21">
    <path clip-path="url(#p6a0536a648)" d="M 236.451562 213.674238 
L 104.38394 213.674238 
L 104.38394 211.187402 
L 236.451562 211.187402 
z
" style="fill:#1f77b4;"/>
   </g>
   <g id="patch_22">
    <path clip-path="url(#p6a0536a648)" d="M 236.451562 208.700566 
L 158.411603 208.700566 
L 158.411603 206.21373 
L 236.451562 206.21373 
z
" style="fill:#1f77b4;"/>
   </g>
   <g id="patch_23">
    <path clip-path="url(#p6a0536a648)" d="M 236.451562 203.726895 
L 107.385476 203.726895 
L 107.385476 201.240059 
L 236.451562 201.240059 
z
" style="fill:#1f77b4;"/>
   </g>
   <g id="patch_24">
    <path clip-path="url(#p6a0536a648)" d="M 236.451562 198.753223 
L 140.402382 198.753223 
L 140.402382 196.266387 
L 236.451562 196.266387 
z
" style="fill:#1f77b4;"/>
   </g>
   <g id="patch_25">
    <path clip-path="url(#p6a0536a648)" d="M 236.451562 193.779551 
L 131.397772 193.779551 
L 131.397772 191.292715 
L 236.451562 191.292715 
z
" style="fill:#1f77b4;"/>
   </g>
   <g id="patch_26">
    <path clip-path="url(#p6a0536a648)" d="M 236.451562 188.805879 
L 158.411603 188.805879 
L 158.411603 186.319043 
L 236.451562 186.319043 
z
" style="fill:#1f77b4;"/>
   </g>
   <g id="patch_27">
    <path clip-path="url(#p6a0536a648)" d="M 236.451562 183.832207 
L 149.406993 183.832207 
L 149.406993 181.345371 
L 236.451562 181.345371 
z
" style="fill:#1f77b4;"/>
   </g>
   <g id="patch_28">
    <path clip-path="url(#p6a0536a648)" d="M 236.451562 178.858535 
L 140.402382 178.858535 
L 140.402382 176.371699 
L 236.451562 176.371699 
z
" style="fill:#1f77b4;"/>
   </g>
   <g id="patch_29">
    <path clip-path="url(#p6a0536a648)" d="M 236.451562 173.884863 
L 158.411603 173.884863 
L 158.411603 171.398027 
L 236.451562 171.398027 
z
" style="fill:#1f77b4;"/>
   </g>
   <g id="patch_30">
    <path clip-path="url(#p6a0536a648)" d="M 236.451562 168.911191 
L 164.414677 168.911191 
L 164.414677 166.424355 
L 236.451562 166.424355 
z
" style="fill:#1f77b4;"/>
   </g>
   <g id="patch_31">
    <path clip-path="url(#p6a0536a648)" d="M 236.451562 163.93752 
L 209.437731 163.93752 
L 209.437731 161.450684 
L 236.451562 161.450684 
z
" style="fill:#1f77b4;"/>
   </g>
   <g id="patch_32">
    <path clip-path="url(#p6a0536a648)" d="M 236.451562 158.963848 
L 206.436194 158.963848 
L 206.436194 156.477012 
L 236.451562 156.477012 
z
" style="fill:#1f77b4;"/>
   </g>
   <g id="patch_33">
    <path clip-path="url(#p6a0536a648)" d="M 236.451562 153.990176 
L 206.436194 153.990176 
L 206.436194 151.50334 
L 236.451562 151.50334 
z
" style="fill:#1f77b4;"/>
   </g>
   <g id="patch_34">
    <path clip-path="url(#p6a0536a648)" d="M 236.451562 149.016504 
L 203.434657 149.016504 
L 203.434657 146.529668 
L 236.451562 146.529668 
z
" style="fill:#1f77b4;"/>
   </g>
   <g id="patch_35">
    <path clip-path="url(#p6a0536a648)" d="M 236.451562 144.042832 
L 209.437731 144.042832 
L 209.437731 141.555996 
L 236.451562 141.555996 
z
" style="fill:#1f77b4;"/>
   </g>
   <g id="patch_36">
    <path clip-path="url(#p6a0536a648)" d="M 236.451562 139.06916 
L 215.440804 139.06916 
L 215.440804 136.582324 
L 236.451562 136.582324 
z
" style="fill:#1f77b4;"/>
   </g>
   <g id="patch_37">
    <path clip-path="url(#p6a0536a648)" d="M 236.451562 134.095488 
L 203.434657 134.095488 
L 203.434657 131.608652 
L 236.451562 131.608652 
z
" style="fill:#1f77b4;"/>
   </g>
   <g id="patch_38">
    <path clip-path="url(#p6a0536a648)" d="M 236.451562 129.121816 
L 212.439267 129.121816 
L 212.439267 126.63498 
L 236.451562 126.63498 
z
" style="fill:#1f77b4;"/>
   </g>
   <g id="patch_39">
    <path clip-path="url(#p6a0536a648)" d="M 236.451562 124.148145 
L 230.448489 124.148145 
L 230.448489 121.661309 
L 236.451562 121.661309 
z
" style="fill:#1f77b4;"/>
   </g>
   <g id="patch_40">
    <path clip-path="url(#p6a0536a648)" d="M 236.451562 119.174473 
L 218.442341 119.174473 
L 218.442341 116.687637 
L 236.451562 116.687637 
z
" style="fill:#1f77b4;"/>
   </g>
   <g id="patch_41">
    <path clip-path="url(#p6a0536a648)" d="M 236.451562 114.200801 
L 218.442341 114.200801 
L 218.442341 111.713965 
L 236.451562 111.713965 
z
" style="fill:#1f77b4;"/>
   </g>
   <g id="patch_42">
    <path clip-path="url(#p6a0536a648)" d="M 236.451562 109.227129 
L 227.446952 109.227129 
L 227.446952 106.740293 
L 236.451562 106.740293 
z
" style="fill:#1f77b4;"/>
   </g>
   <g id="patch_43">
    <path clip-path="url(#p6a0536a648)" d="M 236.451562 104.253457 
L 227.446952 104.253457 
L 227.446952 101.766621 
L 236.451562 101.766621 
z
" style="fill:#1f77b4;"/>
   </g>
   <g id="patch_44">
    <path clip-path="url(#p6a0536a648)" d="M 236.451562 99.279785 
L 218.442341 99.279785 
L 218.442341 96.792949 
L 236.451562 96.792949 
z
" style="fill:#1f77b4;"/>
   </g>
   <g id="patch_45">
    <path clip-path="url(#p6a0536a648)" d="M 236.451562 94.306113 
L 233.450026 94.306113 
L 233.450026 91.819277 
L 236.451562 91.819277 
z
" style="fill:#1f77b4;"/>
   </g>
   <g id="patch_46">
    <path clip-path="url(#p6a0536a648)" d="M 236.451562 89.332441 
L 230.448489 89.332441 
L 230.448489 86.845605 
L 236.451562 86.845605 
z
" style="fill:#1f77b4;"/>
   </g>
   <g id="patch_47">
    <path clip-path="url(#p6a0536a648)" d="M 236.451562 84.35877 
L 224.445415 84.35877 
L 224.445415 81.871934 
L 236.451562 81.871934 
z
" style="fill:#1f77b4;"/>
   </g>
   <g id="patch_48">
    <path clip-path="url(#p6a0536a648)" d="M 236.451562 79.385098 
L 230.448489 79.385098 
L 230.448489 76.898262 
L 236.451562 76.898262 
z
" style="fill:#1f77b4;"/>
   </g>
   <g id="patch_49">
    <path clip-path="url(#p6a0536a648)" d="M 236.451562 74.411426 
L 236.451562 74.411426 
L 236.451562 71.92459 
L 236.451562 71.92459 
z
" style="fill:#1f77b4;"/>
   </g>
   <g id="patch_50">
    <path clip-path="url(#p6a0536a648)" d="M 236.451562 69.437754 
L 233.450026 69.437754 
L 233.450026 66.950918 
L 236.451562 66.950918 
z
" style="fill:#1f77b4;"/>
   </g>
   <g id="patch_51">
    <path clip-path="url(#p6a0536a648)" d="M 236.451562 64.464082 
L 233.450026 64.464082 
L 233.450026 61.977246 
L 236.451562 61.977246 
z
" style="fill:#1f77b4;"/>
   </g>
   <g id="patch_52">
    <path clip-path="url(#p6a0536a648)" d="M 236.451562 59.49041 
L 233.450026 59.49041 
L 233.450026 57.003574 
L 236.451562 57.003574 
z
" style="fill:#1f77b4;"/>
   </g>
   <g id="patch_53">
    <path clip-path="url(#p6a0536a648)" d="M 236.451562 54.516738 
L 233.450026 54.516738 
L 233.450026 52.029902 
L 236.451562 52.029902 
z
" style="fill:#1f77b4;"/>
   </g>
   <g id="patch_54">
    <path clip-path="url(#p6a0536a648)" d="M 236.451562 49.543066 
L 236.451562 49.543066 
L 236.451562 47.05623 
L 236.451562 47.05623 
z
" style="fill:#1f77b4;"/>
   </g>
   <g id="patch_55">
    <path clip-path="url(#p6a0536a648)" d="M 236.451562 44.569395 
L 236.451562 44.569395 
L 236.451562 42.082559 
L 236.451562 42.082559 
z
" style="fill:#1f77b4;"/>
   </g>
   <g id="patch_56">
    <path clip-path="url(#p6a0536a648)" d="M 236.451562 39.595723 
L 233.450026 39.595723 
L 233.450026 37.108887 
L 236.451562 37.108887 
z
" style="fill:#1f77b4;"/>
   </g>
   <g id="patch_57">
    <path clip-path="url(#p6a0536a648)" d="M 236.451562 34.622051 
L 236.451562 34.622051 
L 236.451562 32.135215 
L 236.451562 32.135215 
z
" style="fill:#1f77b4;"/>
   </g>
   <g id="patch_58">
    <path clip-path="url(#p6a0536a648)" d="M 236.451562 29.648379 
L 236.451562 29.648379 
L 236.451562 27.161543 
L 236.451562 27.161543 
z
" style="fill:#1f77b4;"/>
   </g>
   <g id="matplotlib.axis_1">
    <g id="xtick_1">
     <g id="line2d_1">
      <defs>
       <path d="M 0 0 
L 0 3.5 
" id="m400f08fa2d" style="stroke:#000000;stroke-width:0.8;"/>
      </defs>
      <g>
       <use style="stroke:#000000;stroke-width:0.8;" x="236.451562" xlink:href="#m400f08fa2d" y="304.44375"/>
      </g>
     </g>
     <g id="text_1">
      <!-- 0 -->
      <defs>
       <path d="M 31.78125 66.40625 
Q 24.171875 66.40625 20.328125 58.90625 
Q 16.5 51.421875 16.5 36.375 
Q 16.5 21.390625 20.328125 13.890625 
Q 24.171875 6.390625 31.78125 6.390625 
Q 39.453125 6.390625 43.28125 13.890625 
Q 47.125 21.390625 47.125 36.375 
Q 47.125 51.421875 43.28125 58.90625 
Q 39.453125 66.40625 31.78125 66.40625 
M 31.78125 74.21875 
Q 44.046875 74.21875 50.515625 64.515625 
Q 56.984375 54.828125 56.984375 36.375 
Q 56.984375 17.96875 50.515625 8.265625 
Q 44.046875 -1.421875 31.78125 -1.421875 
Q 19.53125 -1.421875 13.0625 8.265625 
Q 6.59375 17.96875 6.59375 36.375 
Q 6.59375 54.828125 13.0625 64.515625 
Q 19.53125 74.21875 31.78125 74.21875 
" id="DejaVuSans-30"/>
      </defs>
      <g transform="translate(233.270312 319.042187)scale(0.1 -0.1)">
       <use xlink:href="#DejaVuSans-30"/>
      </g>
     </g>
    </g>
    <g id="xtick_2">
     <g id="line2d_2">
      <g>
       <use style="stroke:#000000;stroke-width:0.8;" x="176.420825" xlink:href="#m400f08fa2d" y="304.44375"/>
      </g>
     </g>
     <g id="text_2">
      <!-- 20 -->
      <defs>
       <path d="M 19.1875 8.296875 
L 53.609375 8.296875 
L 53.609375 0 
L 7.328125 0 
L 7.328125 8.296875 
Q 12.9375 14.109375 22.625 23.890625 
Q 32.328125 33.6875 34.8125 36.53125 
Q 39.546875 41.84375 41.421875 45.53125 
Q 43.3125 49.21875 43.3125 52.78125 
Q 43.3125 58.59375 39.234375 62.25 
Q 35.15625 65.921875 28.609375 65.921875 
Q 23.96875 65.921875 18.8125 64.3125 
Q 13.671875 62.703125 7.8125 59.421875 
L 7.8125 69.390625 
Q 13.765625 71.78125 18.9375 73 
Q 24.125 74.21875 28.421875 74.21875 
Q 39.75 74.21875 46.484375 68.546875 
Q 53.21875 62.890625 53.21875 53.421875 
Q 53.21875 48.921875 51.53125 44.890625 
Q 49.859375 40.875 45.40625 35.40625 
Q 44.1875 33.984375 37.640625 27.21875 
Q 31.109375 20.453125 19.1875 8.296875 
" id="DejaVuSans-32"/>
      </defs>
      <g transform="translate(170.058325 319.042187)scale(0.1 -0.1)">
       <use xlink:href="#DejaVuSans-32"/>
       <use x="63.623047" xlink:href="#DejaVuSans-30"/>
      </g>
     </g>
    </g>
    <g id="xtick_3">
     <g id="line2d_3">
      <g>
       <use style="stroke:#000000;stroke-width:0.8;" x="116.390087" xlink:href="#m400f08fa2d" y="304.44375"/>
      </g>
     </g>
     <g id="text_3">
      <!-- 40 -->
      <defs>
       <path d="M 37.796875 64.3125 
L 12.890625 25.390625 
L 37.796875 25.390625 
z
M 35.203125 72.90625 
L 47.609375 72.90625 
L 47.609375 25.390625 
L 58.015625 25.390625 
L 58.015625 17.1875 
L 47.609375 17.1875 
L 47.609375 0 
L 37.796875 0 
L 37.796875 17.1875 
L 4.890625 17.1875 
L 4.890625 26.703125 
z
" id="DejaVuSans-34"/>
      </defs>
      <g transform="translate(110.027587 319.042187)scale(0.1 -0.1)">
       <use xlink:href="#DejaVuSans-34"/>
       <use x="63.623047" xlink:href="#DejaVuSans-30"/>
      </g>
     </g>
    </g>
    <g id="xtick_4">
     <g id="line2d_4">
      <g>
       <use style="stroke:#000000;stroke-width:0.8;" x="56.359349" xlink:href="#m400f08fa2d" y="304.44375"/>
      </g>
     </g>
     <g id="text_4">
      <!-- 60 -->
      <defs>
       <path d="M 33.015625 40.375 
Q 26.375 40.375 22.484375 35.828125 
Q 18.609375 31.296875 18.609375 23.390625 
Q 18.609375 15.53125 22.484375 10.953125 
Q 26.375 6.390625 33.015625 6.390625 
Q 39.65625 6.390625 43.53125 10.953125 
Q 47.40625 15.53125 47.40625 23.390625 
Q 47.40625 31.296875 43.53125 35.828125 
Q 39.65625 40.375 33.015625 40.375 
M 52.59375 71.296875 
L 52.59375 62.3125 
Q 48.875 64.0625 45.09375 64.984375 
Q 41.3125 65.921875 37.59375 65.921875 
Q 27.828125 65.921875 22.671875 59.328125 
Q 17.53125 52.734375 16.796875 39.40625 
Q 19.671875 43.65625 24.015625 45.921875 
Q 28.375 48.1875 33.59375 48.1875 
Q 44.578125 48.1875 50.953125 41.515625 
Q 57.328125 34.859375 57.328125 23.390625 
Q 57.328125 12.15625 50.6875 5.359375 
Q 44.046875 -1.421875 33.015625 -1.421875 
Q 20.359375 -1.421875 13.671875 8.265625 
Q 6.984375 17.96875 6.984375 36.375 
Q 6.984375 53.65625 15.1875 63.9375 
Q 23.390625 74.21875 37.203125 74.21875 
Q 40.921875 74.21875 44.703125 73.484375 
Q 48.484375 72.75 52.59375 71.296875 
" id="DejaVuSans-36"/>
      </defs>
      <g transform="translate(49.996849 319.042187)scale(0.1 -0.1)">
       <use xlink:href="#DejaVuSans-36"/>
       <use x="63.623047" xlink:href="#DejaVuSans-30"/>
      </g>
     </g>
    </g>
    <g id="text_5">
     <!-- Anzahl -->
     <defs>
      <path d="M 34.1875 63.1875 
L 20.796875 26.90625 
L 47.609375 26.90625 
z
M 28.609375 72.90625 
L 39.796875 72.90625 
L 67.578125 0 
L 57.328125 0 
L 50.6875 18.703125 
L 17.828125 18.703125 
L 11.1875 0 
L 0.78125 0 
z
" id="DejaVuSans-41"/>
      <path d="M 54.890625 33.015625 
L 54.890625 0 
L 45.90625 0 
L 45.90625 32.71875 
Q 45.90625 40.484375 42.875 44.328125 
Q 39.84375 48.1875 33.796875 48.1875 
Q 26.515625 48.1875 22.3125 43.546875 
Q 18.109375 38.921875 18.109375 30.90625 
L 18.109375 0 
L 9.078125 0 
L 9.078125 54.6875 
L 18.109375 54.6875 
L 18.109375 46.1875 
Q 21.34375 51.125 25.703125 53.5625 
Q 30.078125 56 35.796875 56 
Q 45.21875 56 50.046875 50.171875 
Q 54.890625 44.34375 54.890625 33.015625 
" id="DejaVuSans-6e"/>
      <path d="M 5.515625 54.6875 
L 48.1875 54.6875 
L 48.1875 46.484375 
L 14.40625 7.171875 
L 48.1875 7.171875 
L 48.1875 0 
L 4.296875 0 
L 4.296875 8.203125 
L 38.09375 47.515625 
L 5.515625 47.515625 
z
" id="DejaVuSans-7a"/>
      <path d="M 34.28125 27.484375 
Q 23.390625 27.484375 19.1875 25 
Q 14.984375 22.515625 14.984375 16.5 
Q 14.984375 11.71875 18.140625 8.90625 
Q 21.296875 6.109375 26.703125 6.109375 
Q 34.1875 6.109375 38.703125 11.40625 
Q 43.21875 16.703125 43.21875 25.484375 
L 43.21875 27.484375 
z
M 52.203125 31.203125 
L 52.203125 0 
L 43.21875 0 
L 43.21875 8.296875 
Q 40.140625 3.328125 35.546875 0.953125 
Q 30.953125 -1.421875 24.3125 -1.421875 
Q 15.921875 -1.421875 10.953125 3.296875 
Q 6 8.015625 6 15.921875 
Q 6 25.140625 12.171875 29.828125 
Q 18.359375 34.515625 30.609375 34.515625 
L 43.21875 34.515625 
L 43.21875 35.40625 
Q 43.21875 41.609375 39.140625 45 
Q 35.0625 48.390625 27.6875 48.390625 
Q 23 48.390625 18.546875 47.265625 
Q 14.109375 46.140625 10.015625 43.890625 
L 10.015625 52.203125 
Q 14.9375 54.109375 19.578125 55.046875 
Q 24.21875 56 28.609375 56 
Q 40.484375 56 46.34375 49.84375 
Q 52.203125 43.703125 52.203125 31.203125 
" id="DejaVuSans-61"/>
      <path d="M 54.890625 33.015625 
L 54.890625 0 
L 45.90625 0 
L 45.90625 32.71875 
Q 45.90625 40.484375 42.875 44.328125 
Q 39.84375 48.1875 33.796875 48.1875 
Q 26.515625 48.1875 22.3125 43.546875 
Q 18.109375 38.921875 18.109375 30.90625 
L 18.109375 0 
L 9.078125 0 
L 9.078125 75.984375 
L 18.109375 75.984375 
L 18.109375 46.1875 
Q 21.34375 51.125 25.703125 53.5625 
Q 30.078125 56 35.796875 56 
Q 45.21875 56 50.046875 50.171875 
Q 54.890625 44.34375 54.890625 33.015625 
" id="DejaVuSans-68"/>
      <path d="M 9.421875 75.984375 
L 18.40625 75.984375 
L 18.40625 0 
L 9.421875 0 
z
" id="DejaVuSans-6c"/>
     </defs>
     <g transform="translate(123.492188 332.720312)scale(0.1 -0.1)">
      <use xlink:href="#DejaVuSans-41"/>
      <use x="68.408203" xlink:href="#DejaVuSans-6e"/>
      <use x="131.787109" xlink:href="#DejaVuSans-7a"/>
      <use x="184.277344" xlink:href="#DejaVuSans-61"/>
      <use x="245.556641" xlink:href="#DejaVuSans-68"/>
      <use x="308.935547" xlink:href="#DejaVuSans-6c"/>
     </g>
    </g>
   </g>
   <g id="matplotlib.axis_2">
    <g id="ytick_1">
     <g id="line2d_5">
      <defs>
       <path d="M 0 0 
L -3.5 0 
" id="mf364134849" style="stroke:#000000;stroke-width:0.8;"/>
      </defs>
      <g>
       <use style="stroke:#000000;stroke-width:0.8;" x="44.203125" xlink:href="#mf364134849" y="301.956914"/>
      </g>
     </g>
     <g id="text_6">
      <!-- 10 -->
      <defs>
       <path d="M 12.40625 8.296875 
L 28.515625 8.296875 
L 28.515625 63.921875 
L 10.984375 60.40625 
L 10.984375 69.390625 
L 28.421875 72.90625 
L 38.28125 72.90625 
L 38.28125 8.296875 
L 54.390625 8.296875 
L 54.390625 0 
L 12.40625 0 
z
" id="DejaVuSans-31"/>
      </defs>
      <g transform="translate(24.478125 305.756133)scale(0.1 -0.1)">
       <use xlink:href="#DejaVuSans-31"/>
       <use x="63.623047" xlink:href="#DejaVuSans-30"/>
      </g>
     </g>
    </g>
    <g id="ytick_2">
     <g id="line2d_6">
      <g>
       <use style="stroke:#000000;stroke-width:0.8;" x="44.203125" xlink:href="#mf364134849" y="296.983242"/>
      </g>
     </g>
     <g id="text_7">
      <!-- 11 -->
      <g transform="translate(24.478125 300.782461)scale(0.1 -0.1)">
       <use xlink:href="#DejaVuSans-31"/>
       <use x="63.623047" xlink:href="#DejaVuSans-31"/>
      </g>
     </g>
    </g>
    <g id="ytick_3">
     <g id="line2d_7">
      <g>
       <use style="stroke:#000000;stroke-width:0.8;" x="44.203125" xlink:href="#mf364134849" y="292.00957"/>
      </g>
     </g>
     <g id="text_8">
      <!-- 12 -->
      <g transform="translate(24.478125 295.808789)scale(0.1 -0.1)">
       <use xlink:href="#DejaVuSans-31"/>
       <use x="63.623047" xlink:href="#DejaVuSans-32"/>
      </g>
     </g>
    </g>
    <g id="ytick_4">
     <g id="line2d_8">
      <g>
       <use style="stroke:#000000;stroke-width:0.8;" x="44.203125" xlink:href="#mf364134849" y="287.035898"/>
      </g>
     </g>
     <g id="text_9">
      <!-- 13 -->
      <defs>
       <path d="M 40.578125 39.3125 
Q 47.65625 37.796875 51.625 33 
Q 55.609375 28.21875 55.609375 21.1875 
Q 55.609375 10.40625 48.1875 4.484375 
Q 40.765625 -1.421875 27.09375 -1.421875 
Q 22.515625 -1.421875 17.65625 -0.515625 
Q 12.796875 0.390625 7.625 2.203125 
L 7.625 11.71875 
Q 11.71875 9.328125 16.59375 8.109375 
Q 21.484375 6.890625 26.8125 6.890625 
Q 36.078125 6.890625 40.9375 10.546875 
Q 45.796875 14.203125 45.796875 21.1875 
Q 45.796875 27.640625 41.28125 31.265625 
Q 36.765625 34.90625 28.71875 34.90625 
L 20.21875 34.90625 
L 20.21875 43.015625 
L 29.109375 43.015625 
Q 36.375 43.015625 40.234375 45.921875 
Q 44.09375 48.828125 44.09375 54.296875 
Q 44.09375 59.90625 40.109375 62.90625 
Q 36.140625 65.921875 28.71875 65.921875 
Q 24.65625 65.921875 20.015625 65.03125 
Q 15.375 64.15625 9.8125 62.3125 
L 9.8125 71.09375 
Q 15.4375 72.65625 20.34375 73.4375 
Q 25.25 74.21875 29.59375 74.21875 
Q 40.828125 74.21875 47.359375 69.109375 
Q 53.90625 64.015625 53.90625 55.328125 
Q 53.90625 49.265625 50.4375 45.09375 
Q 46.96875 40.921875 40.578125 39.3125 
" id="DejaVuSans-33"/>
      </defs>
      <g transform="translate(24.478125 290.835117)scale(0.1 -0.1)">
       <use xlink:href="#DejaVuSans-31"/>
       <use x="63.623047" xlink:href="#DejaVuSans-33"/>
      </g>
     </g>
    </g>
    <g id="ytick_5">
     <g id="line2d_9">
      <g>
       <use style="stroke:#000000;stroke-width:0.8;" x="44.203125" xlink:href="#mf364134849" y="282.062227"/>
      </g>
     </g>
     <g id="text_10">
      <!-- 14 -->
      <g transform="translate(24.478125 285.861445)scale(0.1 -0.1)">
       <use xlink:href="#DejaVuSans-31"/>
       <use x="63.623047" xlink:href="#DejaVuSans-34"/>
      </g>
     </g>
    </g>
    <g id="ytick_6">
     <g id="line2d_10">
      <g>
       <use style="stroke:#000000;stroke-width:0.8;" x="44.203125" xlink:href="#mf364134849" y="277.088555"/>
      </g>
     </g>
     <g id="text_11">
      <!-- 15 -->
      <defs>
       <path d="M 10.796875 72.90625 
L 49.515625 72.90625 
L 49.515625 64.59375 
L 19.828125 64.59375 
L 19.828125 46.734375 
Q 21.96875 47.46875 24.109375 47.828125 
Q 26.265625 48.1875 28.421875 48.1875 
Q 40.625 48.1875 47.75 41.5 
Q 54.890625 34.8125 54.890625 23.390625 
Q 54.890625 11.625 47.5625 5.09375 
Q 40.234375 -1.421875 26.90625 -1.421875 
Q 22.3125 -1.421875 17.546875 -0.640625 
Q 12.796875 0.140625 7.71875 1.703125 
L 7.71875 11.625 
Q 12.109375 9.234375 16.796875 8.0625 
Q 21.484375 6.890625 26.703125 6.890625 
Q 35.15625 6.890625 40.078125 11.328125 
Q 45.015625 15.765625 45.015625 23.390625 
Q 45.015625 31 40.078125 35.4375 
Q 35.15625 39.890625 26.703125 39.890625 
Q 22.75 39.890625 18.8125 39.015625 
Q 14.890625 38.140625 10.796875 36.28125 
z
" id="DejaVuSans-35"/>
      </defs>
      <g transform="translate(24.478125 280.887773)scale(0.1 -0.1)">
       <use xlink:href="#DejaVuSans-31"/>
       <use x="63.623047" xlink:href="#DejaVuSans-35"/>
      </g>
     </g>
    </g>
    <g id="ytick_7">
     <g id="line2d_11">
      <g>
       <use style="stroke:#000000;stroke-width:0.8;" x="44.203125" xlink:href="#mf364134849" y="272.114883"/>
      </g>
     </g>
     <g id="text_12">
      <!-- 16 -->
      <g transform="translate(24.478125 275.914102)scale(0.1 -0.1)">
       <use xlink:href="#DejaVuSans-31"/>
       <use x="63.623047" xlink:href="#DejaVuSans-36"/>
      </g>
     </g>
    </g>
    <g id="ytick_8">
     <g id="line2d_12">
      <g>
       <use style="stroke:#000000;stroke-width:0.8;" x="44.203125" xlink:href="#mf364134849" y="267.141211"/>
      </g>
     </g>
     <g id="text_13">
      <!-- 17 -->
      <defs>
       <path d="M 8.203125 72.90625 
L 55.078125 72.90625 
L 55.078125 68.703125 
L 28.609375 0 
L 18.3125 0 
L 43.21875 64.59375 
L 8.203125 64.59375 
z
" id="DejaVuSans-37"/>
      </defs>
      <g transform="translate(24.478125 270.94043)scale(0.1 -0.1)">
       <use xlink:href="#DejaVuSans-31"/>
       <use x="63.623047" xlink:href="#DejaVuSans-37"/>
      </g>
     </g>
    </g>
    <g id="ytick_9">
     <g id="line2d_13">
      <g>
       <use style="stroke:#000000;stroke-width:0.8;" x="44.203125" xlink:href="#mf364134849" y="262.167539"/>
      </g>
     </g>
     <g id="text_14">
      <!-- 18 -->
      <defs>
       <path d="M 31.78125 34.625 
Q 24.75 34.625 20.71875 30.859375 
Q 16.703125 27.09375 16.703125 20.515625 
Q 16.703125 13.921875 20.71875 10.15625 
Q 24.75 6.390625 31.78125 6.390625 
Q 38.8125 6.390625 42.859375 10.171875 
Q 46.921875 13.96875 46.921875 20.515625 
Q 46.921875 27.09375 42.890625 30.859375 
Q 38.875 34.625 31.78125 34.625 
M 21.921875 38.8125 
Q 15.578125 40.375 12.03125 44.71875 
Q 8.5 49.078125 8.5 55.328125 
Q 8.5 64.0625 14.71875 69.140625 
Q 20.953125 74.21875 31.78125 74.21875 
Q 42.671875 74.21875 48.875 69.140625 
Q 55.078125 64.0625 55.078125 55.328125 
Q 55.078125 49.078125 51.53125 44.71875 
Q 48 40.375 41.703125 38.8125 
Q 48.828125 37.15625 52.796875 32.3125 
Q 56.78125 27.484375 56.78125 20.515625 
Q 56.78125 9.90625 50.3125 4.234375 
Q 43.84375 -1.421875 31.78125 -1.421875 
Q 19.734375 -1.421875 13.25 4.234375 
Q 6.78125 9.90625 6.78125 20.515625 
Q 6.78125 27.484375 10.78125 32.3125 
Q 14.796875 37.15625 21.921875 38.8125 
M 18.3125 54.390625 
Q 18.3125 48.734375 21.84375 45.5625 
Q 25.390625 42.390625 31.78125 42.390625 
Q 38.140625 42.390625 41.71875 45.5625 
Q 45.3125 48.734375 45.3125 54.390625 
Q 45.3125 60.0625 41.71875 63.234375 
Q 38.140625 66.40625 31.78125 66.40625 
Q 25.390625 66.40625 21.84375 63.234375 
Q 18.3125 60.0625 18.3125 54.390625 
" id="DejaVuSans-38"/>
      </defs>
      <g transform="translate(24.478125 265.966758)scale(0.1 -0.1)">
       <use xlink:href="#DejaVuSans-31"/>
       <use x="63.623047" xlink:href="#DejaVuSans-38"/>
      </g>
     </g>
    </g>
    <g id="ytick_10">
     <g id="line2d_14">
      <g>
       <use style="stroke:#000000;stroke-width:0.8;" x="44.203125" xlink:href="#mf364134849" y="257.193867"/>
      </g>
     </g>
     <g id="text_15">
      <!-- 19 -->
      <defs>
       <path d="M 10.984375 1.515625 
L 10.984375 10.5 
Q 14.703125 8.734375 18.5 7.8125 
Q 22.3125 6.890625 25.984375 6.890625 
Q 35.75 6.890625 40.890625 13.453125 
Q 46.046875 20.015625 46.78125 33.40625 
Q 43.953125 29.203125 39.59375 26.953125 
Q 35.25 24.703125 29.984375 24.703125 
Q 19.046875 24.703125 12.671875 31.3125 
Q 6.296875 37.9375 6.296875 49.421875 
Q 6.296875 60.640625 12.9375 67.421875 
Q 19.578125 74.21875 30.609375 74.21875 
Q 43.265625 74.21875 49.921875 64.515625 
Q 56.59375 54.828125 56.59375 36.375 
Q 56.59375 19.140625 48.40625 8.859375 
Q 40.234375 -1.421875 26.421875 -1.421875 
Q 22.703125 -1.421875 18.890625 -0.6875 
Q 15.09375 0.046875 10.984375 1.515625 
M 30.609375 32.421875 
Q 37.25 32.421875 41.125 36.953125 
Q 45.015625 41.5 45.015625 49.421875 
Q 45.015625 57.28125 41.125 61.84375 
Q 37.25 66.40625 30.609375 66.40625 
Q 23.96875 66.40625 20.09375 61.84375 
Q 16.21875 57.28125 16.21875 49.421875 
Q 16.21875 41.5 20.09375 36.953125 
Q 23.96875 32.421875 30.609375 32.421875 
" id="DejaVuSans-39"/>
      </defs>
      <g transform="translate(24.478125 260.993086)scale(0.1 -0.1)">
       <use xlink:href="#DejaVuSans-31"/>
       <use x="63.623047" xlink:href="#DejaVuSans-39"/>
      </g>
     </g>
    </g>
    <g id="ytick_11">
     <g id="line2d_15">
      <g>
       <use style="stroke:#000000;stroke-width:0.8;" x="44.203125" xlink:href="#mf364134849" y="252.220195"/>
      </g>
     </g>
     <g id="text_16">
      <!-- 20 -->
      <g transform="translate(24.478125 256.019414)scale(0.1 -0.1)">
       <use xlink:href="#DejaVuSans-32"/>
       <use x="63.623047" xlink:href="#DejaVuSans-30"/>
      </g>
     </g>
    </g>
    <g id="ytick_12">
     <g id="line2d_16">
      <g>
       <use style="stroke:#000000;stroke-width:0.8;" x="44.203125" xlink:href="#mf364134849" y="247.246523"/>
      </g>
     </g>
     <g id="text_17">
      <!-- 21 -->
      <g transform="translate(24.478125 251.045742)scale(0.1 -0.1)">
       <use xlink:href="#DejaVuSans-32"/>
       <use x="63.623047" xlink:href="#DejaVuSans-31"/>
      </g>
     </g>
    </g>
    <g id="ytick_13">
     <g id="line2d_17">
      <g>
       <use style="stroke:#000000;stroke-width:0.8;" x="44.203125" xlink:href="#mf364134849" y="242.272852"/>
      </g>
     </g>
     <g id="text_18">
      <!-- 22 -->
      <g transform="translate(24.478125 246.07207)scale(0.1 -0.1)">
       <use xlink:href="#DejaVuSans-32"/>
       <use x="63.623047" xlink:href="#DejaVuSans-32"/>
      </g>
     </g>
    </g>
    <g id="ytick_14">
     <g id="line2d_18">
      <g>
       <use style="stroke:#000000;stroke-width:0.8;" x="44.203125" xlink:href="#mf364134849" y="237.29918"/>
      </g>
     </g>
     <g id="text_19">
      <!-- 23 -->
      <g transform="translate(24.478125 241.098398)scale(0.1 -0.1)">
       <use xlink:href="#DejaVuSans-32"/>
       <use x="63.623047" xlink:href="#DejaVuSans-33"/>
      </g>
     </g>
    </g>
    <g id="ytick_15">
     <g id="line2d_19">
      <g>
       <use style="stroke:#000000;stroke-width:0.8;" x="44.203125" xlink:href="#mf364134849" y="232.325508"/>
      </g>
     </g>
     <g id="text_20">
      <!-- 24 -->
      <g transform="translate(24.478125 236.124727)scale(0.1 -0.1)">
       <use xlink:href="#DejaVuSans-32"/>
       <use x="63.623047" xlink:href="#DejaVuSans-34"/>
      </g>
     </g>
    </g>
    <g id="ytick_16">
     <g id="line2d_20">
      <g>
       <use style="stroke:#000000;stroke-width:0.8;" x="44.203125" xlink:href="#mf364134849" y="227.351836"/>
      </g>
     </g>
     <g id="text_21">
      <!-- 25 -->
      <g transform="translate(24.478125 231.151055)scale(0.1 -0.1)">
       <use xlink:href="#DejaVuSans-32"/>
       <use x="63.623047" xlink:href="#DejaVuSans-35"/>
      </g>
     </g>
    </g>
    <g id="ytick_17">
     <g id="line2d_21">
      <g>
       <use style="stroke:#000000;stroke-width:0.8;" x="44.203125" xlink:href="#mf364134849" y="222.378164"/>
      </g>
     </g>
     <g id="text_22">
      <!-- 26 -->
      <g transform="translate(24.478125 226.177383)scale(0.1 -0.1)">
       <use xlink:href="#DejaVuSans-32"/>
       <use x="63.623047" xlink:href="#DejaVuSans-36"/>
      </g>
     </g>
    </g>
    <g id="ytick_18">
     <g id="line2d_22">
      <g>
       <use style="stroke:#000000;stroke-width:0.8;" x="44.203125" xlink:href="#mf364134849" y="217.404492"/>
      </g>
     </g>
     <g id="text_23">
      <!-- 27 -->
      <g transform="translate(24.478125 221.203711)scale(0.1 -0.1)">
       <use xlink:href="#DejaVuSans-32"/>
       <use x="63.623047" xlink:href="#DejaVuSans-37"/>
      </g>
     </g>
    </g>
    <g id="ytick_19">
     <g id="line2d_23">
      <g>
       <use style="stroke:#000000;stroke-width:0.8;" x="44.203125" xlink:href="#mf364134849" y="212.43082"/>
      </g>
     </g>
     <g id="text_24">
      <!-- 28 -->
      <g transform="translate(24.478125 216.230039)scale(0.1 -0.1)">
       <use xlink:href="#DejaVuSans-32"/>
       <use x="63.623047" xlink:href="#DejaVuSans-38"/>
      </g>
     </g>
    </g>
    <g id="ytick_20">
     <g id="line2d_24">
      <g>
       <use style="stroke:#000000;stroke-width:0.8;" x="44.203125" xlink:href="#mf364134849" y="207.457148"/>
      </g>
     </g>
     <g id="text_25">
      <!-- 29 -->
      <g transform="translate(24.478125 211.256367)scale(0.1 -0.1)">
       <use xlink:href="#DejaVuSans-32"/>
       <use x="63.623047" xlink:href="#DejaVuSans-39"/>
      </g>
     </g>
    </g>
    <g id="ytick_21">
     <g id="line2d_25">
      <g>
       <use style="stroke:#000000;stroke-width:0.8;" x="44.203125" xlink:href="#mf364134849" y="202.483477"/>
      </g>
     </g>
     <g id="text_26">
      <!-- 30 -->
      <g transform="translate(24.478125 206.282695)scale(0.1 -0.1)">
       <use xlink:href="#DejaVuSans-33"/>
       <use x="63.623047" xlink:href="#DejaVuSans-30"/>
      </g>
     </g>
    </g>
    <g id="ytick_22">
     <g id="line2d_26">
      <g>
       <use style="stroke:#000000;stroke-width:0.8;" x="44.203125" xlink:href="#mf364134849" y="197.509805"/>
      </g>
     </g>
     <g id="text_27">
      <!-- 31 -->
      <g transform="translate(24.478125 201.309023)scale(0.1 -0.1)">
       <use xlink:href="#DejaVuSans-33"/>
       <use x="63.623047" xlink:href="#DejaVuSans-31"/>
      </g>
     </g>
    </g>
    <g id="ytick_23">
     <g id="line2d_27">
      <g>
       <use style="stroke:#000000;stroke-width:0.8;" x="44.203125" xlink:href="#mf364134849" y="192.536133"/>
      </g>
     </g>
     <g id="text_28">
      <!-- 32 -->
      <g transform="translate(24.478125 196.335352)scale(0.1 -0.1)">
       <use xlink:href="#DejaVuSans-33"/>
       <use x="63.623047" xlink:href="#DejaVuSans-32"/>
      </g>
     </g>
    </g>
    <g id="ytick_24">
     <g id="line2d_28">
      <g>
       <use style="stroke:#000000;stroke-width:0.8;" x="44.203125" xlink:href="#mf364134849" y="187.562461"/>
      </g>
     </g>
     <g id="text_29">
      <!-- 33 -->
      <g transform="translate(24.478125 191.36168)scale(0.1 -0.1)">
       <use xlink:href="#DejaVuSans-33"/>
       <use x="63.623047" xlink:href="#DejaVuSans-33"/>
      </g>
     </g>
    </g>
    <g id="ytick_25">
     <g id="line2d_29">
      <g>
       <use style="stroke:#000000;stroke-width:0.8;" x="44.203125" xlink:href="#mf364134849" y="182.588789"/>
      </g>
     </g>
     <g id="text_30">
      <!-- 34 -->
      <g transform="translate(24.478125 186.388008)scale(0.1 -0.1)">
       <use xlink:href="#DejaVuSans-33"/>
       <use x="63.623047" xlink:href="#DejaVuSans-34"/>
      </g>
     </g>
    </g>
    <g id="ytick_26">
     <g id="line2d_30">
      <g>
       <use style="stroke:#000000;stroke-width:0.8;" x="44.203125" xlink:href="#mf364134849" y="177.615117"/>
      </g>
     </g>
     <g id="text_31">
      <!-- 35 -->
      <g transform="translate(24.478125 181.414336)scale(0.1 -0.1)">
       <use xlink:href="#DejaVuSans-33"/>
       <use x="63.623047" xlink:href="#DejaVuSans-35"/>
      </g>
     </g>
    </g>
    <g id="ytick_27">
     <g id="line2d_31">
      <g>
       <use style="stroke:#000000;stroke-width:0.8;" x="44.203125" xlink:href="#mf364134849" y="172.641445"/>
      </g>
     </g>
     <g id="text_32">
      <!-- 36 -->
      <g transform="translate(24.478125 176.440664)scale(0.1 -0.1)">
       <use xlink:href="#DejaVuSans-33"/>
       <use x="63.623047" xlink:href="#DejaVuSans-36"/>
      </g>
     </g>
    </g>
    <g id="ytick_28">
     <g id="line2d_32">
      <g>
       <use style="stroke:#000000;stroke-width:0.8;" x="44.203125" xlink:href="#mf364134849" y="167.667773"/>
      </g>
     </g>
     <g id="text_33">
      <!-- 37 -->
      <g transform="translate(24.478125 171.466992)scale(0.1 -0.1)">
       <use xlink:href="#DejaVuSans-33"/>
       <use x="63.623047" xlink:href="#DejaVuSans-37"/>
      </g>
     </g>
    </g>
    <g id="ytick_29">
     <g id="line2d_33">
      <g>
       <use style="stroke:#000000;stroke-width:0.8;" x="44.203125" xlink:href="#mf364134849" y="162.694102"/>
      </g>
     </g>
     <g id="text_34">
      <!-- 38 -->
      <g transform="translate(24.478125 166.49332)scale(0.1 -0.1)">
       <use xlink:href="#DejaVuSans-33"/>
       <use x="63.623047" xlink:href="#DejaVuSans-38"/>
      </g>
     </g>
    </g>
    <g id="ytick_30">
     <g id="line2d_34">
      <g>
       <use style="stroke:#000000;stroke-width:0.8;" x="44.203125" xlink:href="#mf364134849" y="157.72043"/>
      </g>
     </g>
     <g id="text_35">
      <!-- 39 -->
      <g transform="translate(24.478125 161.519648)scale(0.1 -0.1)">
       <use xlink:href="#DejaVuSans-33"/>
       <use x="63.623047" xlink:href="#DejaVuSans-39"/>
      </g>
     </g>
    </g>
    <g id="ytick_31">
     <g id="line2d_35">
      <g>
       <use style="stroke:#000000;stroke-width:0.8;" x="44.203125" xlink:href="#mf364134849" y="152.746758"/>
      </g>
     </g>
     <g id="text_36">
      <!-- 40 -->
      <g transform="translate(24.478125 156.545977)scale(0.1 -0.1)">
       <use xlink:href="#DejaVuSans-34"/>
       <use x="63.623047" xlink:href="#DejaVuSans-30"/>
      </g>
     </g>
    </g>
    <g id="ytick_32">
     <g id="line2d_36">
      <g>
       <use style="stroke:#000000;stroke-width:0.8;" x="44.203125" xlink:href="#mf364134849" y="147.773086"/>
      </g>
     </g>
     <g id="text_37">
      <!-- 41 -->
      <g transform="translate(24.478125 151.572305)scale(0.1 -0.1)">
       <use xlink:href="#DejaVuSans-34"/>
       <use x="63.623047" xlink:href="#DejaVuSans-31"/>
      </g>
     </g>
    </g>
    <g id="ytick_33">
     <g id="line2d_37">
      <g>
       <use style="stroke:#000000;stroke-width:0.8;" x="44.203125" xlink:href="#mf364134849" y="142.799414"/>
      </g>
     </g>
     <g id="text_38">
      <!-- 42 -->
      <g transform="translate(24.478125 146.598633)scale(0.1 -0.1)">
       <use xlink:href="#DejaVuSans-34"/>
       <use x="63.623047" xlink:href="#DejaVuSans-32"/>
      </g>
     </g>
    </g>
    <g id="ytick_34">
     <g id="line2d_38">
      <g>
       <use style="stroke:#000000;stroke-width:0.8;" x="44.203125" xlink:href="#mf364134849" y="137.825742"/>
      </g>
     </g>
     <g id="text_39">
      <!-- 43 -->
      <g transform="translate(24.478125 141.624961)scale(0.1 -0.1)">
       <use xlink:href="#DejaVuSans-34"/>
       <use x="63.623047" xlink:href="#DejaVuSans-33"/>
      </g>
     </g>
    </g>
    <g id="ytick_35">
     <g id="line2d_39">
      <g>
       <use style="stroke:#000000;stroke-width:0.8;" x="44.203125" xlink:href="#mf364134849" y="132.85207"/>
      </g>
     </g>
     <g id="text_40">
      <!-- 44 -->
      <g transform="translate(24.478125 136.651289)scale(0.1 -0.1)">
       <use xlink:href="#DejaVuSans-34"/>
       <use x="63.623047" xlink:href="#DejaVuSans-34"/>
      </g>
     </g>
    </g>
    <g id="ytick_36">
     <g id="line2d_40">
      <g>
       <use style="stroke:#000000;stroke-width:0.8;" x="44.203125" xlink:href="#mf364134849" y="127.878398"/>
      </g>
     </g>
     <g id="text_41">
      <!-- 45 -->
      <g transform="translate(24.478125 131.677617)scale(0.1 -0.1)">
       <use xlink:href="#DejaVuSans-34"/>
       <use x="63.623047" xlink:href="#DejaVuSans-35"/>
      </g>
     </g>
    </g>
    <g id="ytick_37">
     <g id="line2d_41">
      <g>
       <use style="stroke:#000000;stroke-width:0.8;" x="44.203125" xlink:href="#mf364134849" y="122.904727"/>
      </g>
     </g>
     <g id="text_42">
      <!-- 46 -->
      <g transform="translate(24.478125 126.703945)scale(0.1 -0.1)">
       <use xlink:href="#DejaVuSans-34"/>
       <use x="63.623047" xlink:href="#DejaVuSans-36"/>
      </g>
     </g>
    </g>
    <g id="ytick_38">
     <g id="line2d_42">
      <g>
       <use style="stroke:#000000;stroke-width:0.8;" x="44.203125" xlink:href="#mf364134849" y="117.931055"/>
      </g>
     </g>
     <g id="text_43">
      <!-- 47 -->
      <g transform="translate(24.478125 121.730273)scale(0.1 -0.1)">
       <use xlink:href="#DejaVuSans-34"/>
       <use x="63.623047" xlink:href="#DejaVuSans-37"/>
      </g>
     </g>
    </g>
    <g id="ytick_39">
     <g id="line2d_43">
      <g>
       <use style="stroke:#000000;stroke-width:0.8;" x="44.203125" xlink:href="#mf364134849" y="112.957383"/>
      </g>
     </g>
     <g id="text_44">
      <!-- 48 -->
      <g transform="translate(24.478125 116.756602)scale(0.1 -0.1)">
       <use xlink:href="#DejaVuSans-34"/>
       <use x="63.623047" xlink:href="#DejaVuSans-38"/>
      </g>
     </g>
    </g>
    <g id="ytick_40">
     <g id="line2d_44">
      <g>
       <use style="stroke:#000000;stroke-width:0.8;" x="44.203125" xlink:href="#mf364134849" y="107.983711"/>
      </g>
     </g>
     <g id="text_45">
      <!-- 49 -->
      <g transform="translate(24.478125 111.78293)scale(0.1 -0.1)">
       <use xlink:href="#DejaVuSans-34"/>
       <use x="63.623047" xlink:href="#DejaVuSans-39"/>
      </g>
     </g>
    </g>
    <g id="ytick_41">
     <g id="line2d_45">
      <g>
       <use style="stroke:#000000;stroke-width:0.8;" x="44.203125" xlink:href="#mf364134849" y="103.010039"/>
      </g>
     </g>
     <g id="text_46">
      <!-- 50 -->
      <g transform="translate(24.478125 106.809258)scale(0.1 -0.1)">
       <use xlink:href="#DejaVuSans-35"/>
       <use x="63.623047" xlink:href="#DejaVuSans-30"/>
      </g>
     </g>
    </g>
    <g id="ytick_42">
     <g id="line2d_46">
      <g>
       <use style="stroke:#000000;stroke-width:0.8;" x="44.203125" xlink:href="#mf364134849" y="98.036367"/>
      </g>
     </g>
     <g id="text_47">
      <!-- 51 -->
      <g transform="translate(24.478125 101.835586)scale(0.1 -0.1)">
       <use xlink:href="#DejaVuSans-35"/>
       <use x="63.623047" xlink:href="#DejaVuSans-31"/>
      </g>
     </g>
    </g>
    <g id="ytick_43">
     <g id="line2d_47">
      <g>
       <use style="stroke:#000000;stroke-width:0.8;" x="44.203125" xlink:href="#mf364134849" y="93.062695"/>
      </g>
     </g>
     <g id="text_48">
      <!-- 52 -->
      <g transform="translate(24.478125 96.861914)scale(0.1 -0.1)">
       <use xlink:href="#DejaVuSans-35"/>
       <use x="63.623047" xlink:href="#DejaVuSans-32"/>
      </g>
     </g>
    </g>
    <g id="ytick_44">
     <g id="line2d_48">
      <g>
       <use style="stroke:#000000;stroke-width:0.8;" x="44.203125" xlink:href="#mf364134849" y="88.089023"/>
      </g>
     </g>
     <g id="text_49">
      <!-- 53 -->
      <g transform="translate(24.478125 91.888242)scale(0.1 -0.1)">
       <use xlink:href="#DejaVuSans-35"/>
       <use x="63.623047" xlink:href="#DejaVuSans-33"/>
      </g>
     </g>
    </g>
    <g id="ytick_45">
     <g id="line2d_49">
      <g>
       <use style="stroke:#000000;stroke-width:0.8;" x="44.203125" xlink:href="#mf364134849" y="83.115352"/>
      </g>
     </g>
     <g id="text_50">
      <!-- 54 -->
      <g transform="translate(24.478125 86.91457)scale(0.1 -0.1)">
       <use xlink:href="#DejaVuSans-35"/>
       <use x="63.623047" xlink:href="#DejaVuSans-34"/>
      </g>
     </g>
    </g>
    <g id="ytick_46">
     <g id="line2d_50">
      <g>
       <use style="stroke:#000000;stroke-width:0.8;" x="44.203125" xlink:href="#mf364134849" y="78.14168"/>
      </g>
     </g>
     <g id="text_51">
      <!-- 55 -->
      <g transform="translate(24.478125 81.940898)scale(0.1 -0.1)">
       <use xlink:href="#DejaVuSans-35"/>
       <use x="63.623047" xlink:href="#DejaVuSans-35"/>
      </g>
     </g>
    </g>
    <g id="ytick_47">
     <g id="line2d_51">
      <g>
       <use style="stroke:#000000;stroke-width:0.8;" x="44.203125" xlink:href="#mf364134849" y="73.168008"/>
      </g>
     </g>
     <g id="text_52">
      <!-- 56 -->
      <g transform="translate(24.478125 76.967227)scale(0.1 -0.1)">
       <use xlink:href="#DejaVuSans-35"/>
       <use x="63.623047" xlink:href="#DejaVuSans-36"/>
      </g>
     </g>
    </g>
    <g id="ytick_48">
     <g id="line2d_52">
      <g>
       <use style="stroke:#000000;stroke-width:0.8;" x="44.203125" xlink:href="#mf364134849" y="68.194336"/>
      </g>
     </g>
     <g id="text_53">
      <!-- 57 -->
      <g transform="translate(24.478125 71.993555)scale(0.1 -0.1)">
       <use xlink:href="#DejaVuSans-35"/>
       <use x="63.623047" xlink:href="#DejaVuSans-37"/>
      </g>
     </g>
    </g>
    <g id="ytick_49">
     <g id="line2d_53">
      <g>
       <use style="stroke:#000000;stroke-width:0.8;" x="44.203125" xlink:href="#mf364134849" y="63.220664"/>
      </g>
     </g>
     <g id="text_54">
      <!-- 58 -->
      <g transform="translate(24.478125 67.019883)scale(0.1 -0.1)">
       <use xlink:href="#DejaVuSans-35"/>
       <use x="63.623047" xlink:href="#DejaVuSans-38"/>
      </g>
     </g>
    </g>
    <g id="ytick_50">
     <g id="line2d_54">
      <g>
       <use style="stroke:#000000;stroke-width:0.8;" x="44.203125" xlink:href="#mf364134849" y="58.246992"/>
      </g>
     </g>
     <g id="text_55">
      <!-- 59 -->
      <g transform="translate(24.478125 62.046211)scale(0.1 -0.1)">
       <use xlink:href="#DejaVuSans-35"/>
       <use x="63.623047" xlink:href="#DejaVuSans-39"/>
      </g>
     </g>
    </g>
    <g id="ytick_51">
     <g id="line2d_55">
      <g>
       <use style="stroke:#000000;stroke-width:0.8;" x="44.203125" xlink:href="#mf364134849" y="53.27332"/>
      </g>
     </g>
     <g id="text_56">
      <!-- 60 -->
      <g transform="translate(24.478125 57.072539)scale(0.1 -0.1)">
       <use xlink:href="#DejaVuSans-36"/>
       <use x="63.623047" xlink:href="#DejaVuSans-30"/>
      </g>
     </g>
    </g>
    <g id="ytick_52">
     <g id="line2d_56">
      <g>
       <use style="stroke:#000000;stroke-width:0.8;" x="44.203125" xlink:href="#mf364134849" y="48.299648"/>
      </g>
     </g>
     <g id="text_57">
      <!-- 61 -->
      <g transform="translate(24.478125 52.098867)scale(0.1 -0.1)">
       <use xlink:href="#DejaVuSans-36"/>
       <use x="63.623047" xlink:href="#DejaVuSans-31"/>
      </g>
     </g>
    </g>
    <g id="ytick_53">
     <g id="line2d_57">
      <g>
       <use style="stroke:#000000;stroke-width:0.8;" x="44.203125" xlink:href="#mf364134849" y="43.325977"/>
      </g>
     </g>
     <g id="text_58">
      <!-- 62 -->
      <g transform="translate(24.478125 47.125195)scale(0.1 -0.1)">
       <use xlink:href="#DejaVuSans-36"/>
       <use x="63.623047" xlink:href="#DejaVuSans-32"/>
      </g>
     </g>
    </g>
    <g id="ytick_54">
     <g id="line2d_58">
      <g>
       <use style="stroke:#000000;stroke-width:0.8;" x="44.203125" xlink:href="#mf364134849" y="38.352305"/>
      </g>
     </g>
     <g id="text_59">
      <!-- 63 -->
      <g transform="translate(24.478125 42.151523)scale(0.1 -0.1)">
       <use xlink:href="#DejaVuSans-36"/>
       <use x="63.623047" xlink:href="#DejaVuSans-33"/>
      </g>
     </g>
    </g>
    <g id="ytick_55">
     <g id="line2d_59">
      <g>
       <use style="stroke:#000000;stroke-width:0.8;" x="44.203125" xlink:href="#mf364134849" y="33.378633"/>
      </g>
     </g>
     <g id="text_60">
      <!-- 64 -->
      <g transform="translate(24.478125 37.177852)scale(0.1 -0.1)">
       <use xlink:href="#DejaVuSans-36"/>
       <use x="63.623047" xlink:href="#DejaVuSans-34"/>
      </g>
     </g>
    </g>
    <g id="ytick_56">
     <g id="line2d_60">
      <g>
       <use style="stroke:#000000;stroke-width:0.8;" x="44.203125" xlink:href="#mf364134849" y="28.404961"/>
      </g>
     </g>
     <g id="text_61">
      <!-- 65 -->
      <g transform="translate(24.478125 32.20418)scale(0.1 -0.1)">
       <use xlink:href="#DejaVuSans-36"/>
       <use x="63.623047" xlink:href="#DejaVuSans-35"/>
      </g>
     </g>
    </g>
    <g id="ytick_57">
     <g id="line2d_61">
      <defs>
       <path d="M 0 0 
L -2 0 
" id="m697281368c" style="stroke:#000000;stroke-width:0.6;"/>
      </defs>
      <g>
       <use style="stroke:#000000;stroke-width:0.6;" x="44.203125" xlink:href="#m697281368c" y="301.956914"/>
      </g>
     </g>
    </g>
    <g id="ytick_58">
     <g id="line2d_62">
      <g>
       <use style="stroke:#000000;stroke-width:0.6;" x="44.203125" xlink:href="#m697281368c" y="252.220195"/>
      </g>
     </g>
    </g>
    <g id="ytick_59">
     <g id="line2d_63">
      <g>
       <use style="stroke:#000000;stroke-width:0.6;" x="44.203125" xlink:href="#m697281368c" y="202.483477"/>
      </g>
     </g>
    </g>
    <g id="ytick_60">
     <g id="line2d_64">
      <g>
       <use style="stroke:#000000;stroke-width:0.6;" x="44.203125" xlink:href="#m697281368c" y="152.746758"/>
      </g>
     </g>
    </g>
    <g id="ytick_61">
     <g id="line2d_65">
      <g>
       <use style="stroke:#000000;stroke-width:0.6;" x="44.203125" xlink:href="#m697281368c" y="103.010039"/>
      </g>
     </g>
    </g>
    <g id="ytick_62">
     <g id="line2d_66">
      <g>
       <use style="stroke:#000000;stroke-width:0.6;" x="44.203125" xlink:href="#m697281368c" y="53.27332"/>
      </g>
     </g>
    </g>
    <g id="text_62">
     <!-- Alter (Jahre) -->
     <defs>
      <path d="M 18.3125 70.21875 
L 18.3125 54.6875 
L 36.8125 54.6875 
L 36.8125 47.703125 
L 18.3125 47.703125 
L 18.3125 18.015625 
Q 18.3125 11.328125 20.140625 9.421875 
Q 21.96875 7.515625 27.59375 7.515625 
L 36.8125 7.515625 
L 36.8125 0 
L 27.59375 0 
Q 17.1875 0 13.234375 3.875 
Q 9.28125 7.765625 9.28125 18.015625 
L 9.28125 47.703125 
L 2.6875 47.703125 
L 2.6875 54.6875 
L 9.28125 54.6875 
L 9.28125 70.21875 
z
" id="DejaVuSans-74"/>
      <path d="M 56.203125 29.59375 
L 56.203125 25.203125 
L 14.890625 25.203125 
Q 15.484375 15.921875 20.484375 11.0625 
Q 25.484375 6.203125 34.421875 6.203125 
Q 39.59375 6.203125 44.453125 7.46875 
Q 49.3125 8.734375 54.109375 11.28125 
L 54.109375 2.78125 
Q 49.265625 0.734375 44.1875 -0.34375 
Q 39.109375 -1.421875 33.890625 -1.421875 
Q 20.796875 -1.421875 13.15625 6.1875 
Q 5.515625 13.8125 5.515625 26.8125 
Q 5.515625 40.234375 12.765625 48.109375 
Q 20.015625 56 32.328125 56 
Q 43.359375 56 49.78125 48.890625 
Q 56.203125 41.796875 56.203125 29.59375 
M 47.21875 32.234375 
Q 47.125 39.59375 43.09375 43.984375 
Q 39.0625 48.390625 32.421875 48.390625 
Q 24.90625 48.390625 20.390625 44.140625 
Q 15.875 39.890625 15.1875 32.171875 
z
" id="DejaVuSans-65"/>
      <path d="M 41.109375 46.296875 
Q 39.59375 47.171875 37.8125 47.578125 
Q 36.03125 48 33.890625 48 
Q 26.265625 48 22.1875 43.046875 
Q 18.109375 38.09375 18.109375 28.8125 
L 18.109375 0 
L 9.078125 0 
L 9.078125 54.6875 
L 18.109375 54.6875 
L 18.109375 46.1875 
Q 20.953125 51.171875 25.484375 53.578125 
Q 30.03125 56 36.53125 56 
Q 37.453125 56 38.578125 55.875 
Q 39.703125 55.765625 41.0625 55.515625 
z
" id="DejaVuSans-72"/>
      <path id="DejaVuSans-20"/>
      <path d="M 31 75.875 
Q 24.46875 64.65625 21.28125 53.65625 
Q 18.109375 42.671875 18.109375 31.390625 
Q 18.109375 20.125 21.3125 9.0625 
Q 24.515625 -2 31 -13.1875 
L 23.1875 -13.1875 
Q 15.875 -1.703125 12.234375 9.375 
Q 8.59375 20.453125 8.59375 31.390625 
Q 8.59375 42.28125 12.203125 53.3125 
Q 15.828125 64.359375 23.1875 75.875 
z
" id="DejaVuSans-28"/>
      <path d="M 9.8125 72.90625 
L 19.671875 72.90625 
L 19.671875 5.078125 
Q 19.671875 -8.109375 14.671875 -14.0625 
Q 9.671875 -20.015625 -1.421875 -20.015625 
L -5.171875 -20.015625 
L -5.171875 -11.71875 
L -2.09375 -11.71875 
Q 4.4375 -11.71875 7.125 -8.046875 
Q 9.8125 -4.390625 9.8125 5.078125 
z
" id="DejaVuSans-4a"/>
      <path d="M 8.015625 75.875 
L 15.828125 75.875 
Q 23.140625 64.359375 26.78125 53.3125 
Q 30.421875 42.28125 30.421875 31.390625 
Q 30.421875 20.453125 26.78125 9.375 
Q 23.140625 -1.703125 15.828125 -13.1875 
L 8.015625 -13.1875 
Q 14.5 -2 17.703125 9.0625 
Q 20.90625 20.125 20.90625 31.390625 
Q 20.90625 42.671875 17.703125 53.65625 
Q 14.5 64.65625 8.015625 75.875 
" id="DejaVuSans-29"/>
     </defs>
     <g transform="translate(18.398438 195.411406)rotate(-90)scale(0.1 -0.1)">
      <use xlink:href="#DejaVuSans-41"/>
      <use x="68.408203" xlink:href="#DejaVuSans-6c"/>
      <use x="96.191406" xlink:href="#DejaVuSans-74"/>
      <use x="135.400391" xlink:href="#DejaVuSans-65"/>
      <use x="196.923828" xlink:href="#DejaVuSans-72"/>
      <use x="238.037109" xlink:href="#DejaVuSans-20"/>
      <use x="269.824219" xlink:href="#DejaVuSans-28"/>
      <use x="308.837891" xlink:href="#DejaVuSans-4a"/>
      <use x="338.330078" xlink:href="#DejaVuSans-61"/>
      <use x="399.609375" xlink:href="#DejaVuSans-68"/>
      <use x="462.988281" xlink:href="#DejaVuSans-72"/>
      <use x="504.070312" xlink:href="#DejaVuSans-65"/>
      <use x="565.59375" xlink:href="#DejaVuSans-29"/>
     </g>
    </g>
   </g>
   <g id="patch_59">
    <path d="M 44.203125 304.44375 
L 44.203125 25.918125 
" style="fill:none;stroke:#000000;stroke-linecap:square;stroke-linejoin:miter;stroke-width:0.8;"/>
   </g>
   <g id="patch_60">
    <path d="M 236.451562 304.44375 
L 236.451562 25.918125 
" style="fill:none;stroke:#000000;stroke-linecap:square;stroke-linejoin:miter;stroke-width:0.8;"/>
   </g>
   <g id="patch_61">
    <path d="M 44.203125 304.44375 
L 236.451562 304.44375 
" style="fill:none;stroke:#000000;stroke-linecap:square;stroke-linejoin:miter;stroke-width:0.8;"/>
   </g>
   <g id="patch_62">
    <path d="M 44.203125 25.918125 
L 236.451562 25.918125 
" style="fill:none;stroke:#000000;stroke-linecap:square;stroke-linejoin:miter;stroke-width:0.8;"/>
   </g>
   <g id="text_63">
    <!-- Mnnlich (n = 1010) -->
    <defs>
     <path d="M 9.8125 72.90625 
L 24.515625 72.90625 
L 43.109375 23.296875 
L 61.8125 72.90625 
L 76.515625 72.90625 
L 76.515625 0 
L 66.890625 0 
L 66.890625 64.015625 
L 48.09375 14.015625 
L 38.1875 14.015625 
L 19.390625 64.015625 
L 19.390625 0 
L 9.8125 0 
z
" id="DejaVuSans-4d"/>
     <path d="M 34.28125 27.484375 
Q 23.390625 27.484375 19.1875 25 
Q 14.984375 22.515625 14.984375 16.5 
Q 14.984375 11.71875 18.140625 8.90625 
Q 21.296875 6.109375 26.703125 6.109375 
Q 34.1875 6.109375 38.703125 11.40625 
Q 43.21875 16.703125 43.21875 25.484375 
L 43.21875 27.484375 
z
M 52.203125 31.203125 
L 52.203125 0 
L 43.21875 0 
L 43.21875 8.296875 
Q 40.140625 3.328125 35.546875 0.953125 
Q 30.953125 -1.421875 24.3125 -1.421875 
Q 15.921875 -1.421875 10.953125 3.296875 
Q 6 8.015625 6 15.921875 
Q 6 25.140625 12.171875 29.828125 
Q 18.359375 34.515625 30.609375 34.515625 
L 43.21875 34.515625 
L 43.21875 35.40625 
Q 43.21875 41.609375 39.140625 45 
Q 35.0625 48.390625 27.6875 48.390625 
Q 23 48.390625 18.546875 47.265625 
Q 14.109375 46.140625 10.015625 43.890625 
L 10.015625 52.203125 
Q 14.9375 54.109375 19.578125 55.046875 
Q 24.21875 56 28.609375 56 
Q 40.484375 56 46.34375 49.84375 
Q 52.203125 43.703125 52.203125 31.203125 
M 33.59375 75.78125 
L 43.5 75.78125 
L 43.5 65.921875 
L 33.59375 65.921875 
z
M 14.5 75.78125 
L 24.40625 75.78125 
L 24.40625 65.921875 
L 14.5 65.921875 
z
" id="DejaVuSans-e4"/>
     <path d="M 9.421875 54.6875 
L 18.40625 54.6875 
L 18.40625 0 
L 9.421875 0 
z
M 9.421875 75.984375 
L 18.40625 75.984375 
L 18.40625 64.59375 
L 9.421875 64.59375 
z
" id="DejaVuSans-69"/>
     <path d="M 48.78125 52.59375 
L 48.78125 44.1875 
Q 44.96875 46.296875 41.140625 47.34375 
Q 37.3125 48.390625 33.40625 48.390625 
Q 24.65625 48.390625 19.8125 42.84375 
Q 14.984375 37.3125 14.984375 27.296875 
Q 14.984375 17.28125 19.8125 11.734375 
Q 24.65625 6.203125 33.40625 6.203125 
Q 37.3125 6.203125 41.140625 7.25 
Q 44.96875 8.296875 48.78125 10.40625 
L 48.78125 2.09375 
Q 45.015625 0.34375 40.984375 -0.53125 
Q 36.96875 -1.421875 32.421875 -1.421875 
Q 20.0625 -1.421875 12.78125 6.34375 
Q 5.515625 14.109375 5.515625 27.296875 
Q 5.515625 40.671875 12.859375 48.328125 
Q 20.21875 56 33.015625 56 
Q 37.15625 56 41.109375 55.140625 
Q 45.0625 54.296875 48.78125 52.59375 
" id="DejaVuSans-63"/>
     <path d="M 10.59375 45.40625 
L 73.1875 45.40625 
L 73.1875 37.203125 
L 10.59375 37.203125 
z
M 10.59375 25.484375 
L 73.1875 25.484375 
L 73.1875 17.1875 
L 10.59375 17.1875 
z
" id="DejaVuSans-3d"/>
    </defs>
    <g transform="translate(78.930469 19.918125)scale(0.12 -0.12)">
     <use xlink:href="#DejaVuSans-4d"/>
     <use x="86.279297" xlink:href="#DejaVuSans-e4"/>
     <use x="147.558594" xlink:href="#DejaVuSans-6e"/>
     <use x="210.9375" xlink:href="#DejaVuSans-6e"/>
     <use x="274.316406" xlink:href="#DejaVuSans-6c"/>
     <use x="302.099609" xlink:href="#DejaVuSans-69"/>
     <use x="329.882812" xlink:href="#DejaVuSans-63"/>
     <use x="384.863281" xlink:href="#DejaVuSans-68"/>
     <use x="448.242188" xlink:href="#DejaVuSans-20"/>
     <use x="480.029297" xlink:href="#DejaVuSans-28"/>
     <use x="519.042969" xlink:href="#DejaVuSans-6e"/>
     <use x="582.421875" xlink:href="#DejaVuSans-20"/>
     <use x="614.208984" xlink:href="#DejaVuSans-3d"/>
     <use x="697.998047" xlink:href="#DejaVuSans-20"/>
     <use x="729.785156" xlink:href="#DejaVuSans-31"/>
     <use x="793.408203" xlink:href="#DejaVuSans-30"/>
     <use x="857.03125" xlink:href="#DejaVuSans-31"/>
     <use x="920.654297" xlink:href="#DejaVuSans-30"/>
     <use x="984.277344" xlink:href="#DejaVuSans-29"/>
    </g>
   </g>
  </g>
  <g id="axes_2">
   <g id="patch_63">
    <path d="M 254.251562 304.44375 
L 446.5 304.44375 
L 446.5 25.918125 
L 254.251562 25.918125 
z
" style="fill:#ffffff;"/>
   </g>
   <g id="patch_64">
    <path clip-path="url(#p8d4f15a392)" d="M 254.251562 303.200332 
L 254.251562 303.200332 
L 254.251562 300.713496 
L 254.251562 300.713496 
z
" style="fill:#1f77b4;"/>
   </g>
   <g id="patch_65">
    <path clip-path="url(#p8d4f15a392)" d="M 254.251562 298.22666 
L 254.251562 298.22666 
L 254.251562 295.739824 
L 254.251562 295.739824 
z
" style="fill:#1f77b4;"/>
   </g>
   <g id="patch_66">
    <path clip-path="url(#p8d4f15a392)" d="M 254.251562 293.252988 
L 254.251562 293.252988 
L 254.251562 290.766152 
L 254.251562 290.766152 
z
" style="fill:#1f77b4;"/>
   </g>
   <g id="patch_67">
    <path clip-path="url(#p8d4f15a392)" d="M 254.251562 288.279316 
L 254.251562 288.279316 
L 254.251562 285.79248 
L 254.251562 285.79248 
z
" style="fill:#1f77b4;"/>
   </g>
   <g id="patch_68">
    <path clip-path="url(#p8d4f15a392)" d="M 254.251562 283.305645 
L 254.251562 283.305645 
L 254.251562 280.818809 
L 254.251562 280.818809 
z
" style="fill:#1f77b4;"/>
   </g>
   <g id="patch_69">
    <path clip-path="url(#p8d4f15a392)" d="M 254.251562 278.331973 
L 254.251562 278.331973 
L 254.251562 275.845137 
L 254.251562 275.845137 
z
" style="fill:#1f77b4;"/>
   </g>
   <g id="patch_70">
    <path clip-path="url(#p8d4f15a392)" d="M 254.251562 273.358301 
L 254.251562 273.358301 
L 254.251562 270.871465 
L 254.251562 270.871465 
z
" style="fill:#1f77b4;"/>
   </g>
   <g id="patch_71">
    <path clip-path="url(#p8d4f15a392)" d="M 254.251562 268.384629 
L 294.939062 268.384629 
L 294.939062 265.897793 
L 254.251562 265.897793 
z
" style="fill:#1f77b4;"/>
   </g>
   <g id="patch_72">
    <path clip-path="url(#p8d4f15a392)" d="M 254.251562 263.410957 
L 274.595312 263.410957 
L 274.595312 260.924121 
L 254.251562 260.924121 
z
" style="fill:#1f77b4;"/>
   </g>
   <g id="patch_73">
    <path clip-path="url(#p8d4f15a392)" d="M 254.251562 258.437285 
L 294.939062 258.437285 
L 294.939062 255.950449 
L 254.251562 255.950449 
z
" style="fill:#1f77b4;"/>
   </g>
   <g id="patch_74">
    <path clip-path="url(#p8d4f15a392)" d="M 254.251562 253.463613 
L 294.939062 253.463613 
L 294.939062 250.976777 
L 254.251562 250.976777 
z
" style="fill:#1f77b4;"/>
   </g>
   <g id="patch_75">
    <path clip-path="url(#p8d4f15a392)" d="M 254.251562 248.489941 
L 376.314062 248.489941 
L 376.314062 246.003105 
L 254.251562 246.003105 
z
" style="fill:#1f77b4;"/>
   </g>
   <g id="patch_76">
    <path clip-path="url(#p8d4f15a392)" d="M 254.251562 243.51627 
L 437.345312 243.51627 
L 437.345312 241.029434 
L 254.251562 241.029434 
z
" style="fill:#1f77b4;"/>
   </g>
   <g id="patch_77">
    <path clip-path="url(#p8d4f15a392)" d="M 254.251562 238.542598 
L 294.939062 238.542598 
L 294.939062 236.055762 
L 254.251562 236.055762 
z
" style="fill:#1f77b4;"/>
   </g>
   <g id="patch_78">
    <path clip-path="url(#p8d4f15a392)" d="M 254.251562 233.568926 
L 355.970312 233.568926 
L 355.970312 231.08209 
L 254.251562 231.08209 
z
" style="fill:#1f77b4;"/>
   </g>
   <g id="patch_79">
    <path clip-path="url(#p8d4f15a392)" d="M 254.251562 228.595254 
L 274.595312 228.595254 
L 274.595312 226.108418 
L 254.251562 226.108418 
z
" style="fill:#1f77b4;"/>
   </g>
   <g id="patch_80">
    <path clip-path="url(#p8d4f15a392)" d="M 254.251562 223.621582 
L 417.001562 223.621582 
L 417.001562 221.134746 
L 254.251562 221.134746 
z
" style="fill:#1f77b4;"/>
   </g>
   <g id="patch_81">
    <path clip-path="url(#p8d4f15a392)" d="M 254.251562 218.64791 
L 274.595312 218.64791 
L 274.595312 216.161074 
L 254.251562 216.161074 
z
" style="fill:#1f77b4;"/>
   </g>
   <g id="patch_82">
    <path clip-path="url(#p8d4f15a392)" d="M 254.251562 213.674238 
L 376.314062 213.674238 
L 376.314062 211.187402 
L 254.251562 211.187402 
z
" style="fill:#1f77b4;"/>
   </g>
   <g id="patch_83">
    <path clip-path="url(#p8d4f15a392)" d="M 254.251562 208.700566 
L 315.282812 208.700566 
L 315.282812 206.21373 
L 254.251562 206.21373 
z
" style="fill:#1f77b4;"/>
   </g>
   <g id="patch_84">
    <path clip-path="url(#p8d4f15a392)" d="M 254.251562 203.726895 
L 274.595312 203.726895 
L 274.595312 201.240059 
L 254.251562 201.240059 
z
" style="fill:#1f77b4;"/>
   </g>
   <g id="patch_85">
    <path clip-path="url(#p8d4f15a392)" d="M 254.251562 198.753223 
L 294.939062 198.753223 
L 294.939062 196.266387 
L 254.251562 196.266387 
z
" style="fill:#1f77b4;"/>
   </g>
   <g id="patch_86">
    <path clip-path="url(#p8d4f15a392)" d="M 254.251562 193.779551 
L 335.626562 193.779551 
L 335.626562 191.292715 
L 254.251562 191.292715 
z
" style="fill:#1f77b4;"/>
   </g>
   <g id="patch_87">
    <path clip-path="url(#p8d4f15a392)" d="M 254.251562 188.805879 
L 274.595312 188.805879 
L 274.595312 186.319043 
L 254.251562 186.319043 
z
" style="fill:#1f77b4;"/>
   </g>
   <g id="patch_88">
    <path clip-path="url(#p8d4f15a392)" d="M 254.251562 183.832207 
L 274.595312 183.832207 
L 274.595312 181.345371 
L 254.251562 181.345371 
z
" style="fill:#1f77b4;"/>
   </g>
   <g id="patch_89">
    <path clip-path="url(#p8d4f15a392)" d="M 254.251562 178.858535 
L 274.595312 178.858535 
L 274.595312 176.371699 
L 254.251562 176.371699 
z
" style="fill:#1f77b4;"/>
   </g>
   <g id="patch_90">
    <path clip-path="url(#p8d4f15a392)" d="M 254.251562 173.884863 
L 294.939062 173.884863 
L 294.939062 171.398027 
L 254.251562 171.398027 
z
" style="fill:#1f77b4;"/>
   </g>
   <g id="patch_91">
    <path clip-path="url(#p8d4f15a392)" d="M 254.251562 168.911191 
L 376.314062 168.911191 
L 376.314062 166.424355 
L 254.251562 166.424355 
z
" style="fill:#1f77b4;"/>
   </g>
   <g id="patch_92">
    <path clip-path="url(#p8d4f15a392)" d="M 254.251562 163.93752 
L 274.595312 163.93752 
L 274.595312 161.450684 
L 254.251562 161.450684 
z
" style="fill:#1f77b4;"/>
   </g>
   <g id="patch_93">
    <path clip-path="url(#p8d4f15a392)" d="M 254.251562 158.963848 
L 294.939062 158.963848 
L 294.939062 156.477012 
L 254.251562 156.477012 
z
" style="fill:#1f77b4;"/>
   </g>
   <g id="patch_94">
    <path clip-path="url(#p8d4f15a392)" d="M 254.251562 153.990176 
L 254.251562 153.990176 
L 254.251562 151.50334 
L 254.251562 151.50334 
z
" style="fill:#1f77b4;"/>
   </g>
   <g id="patch_95">
    <path clip-path="url(#p8d4f15a392)" d="M 254.251562 149.016504 
L 254.251562 149.016504 
L 254.251562 146.529668 
L 254.251562 146.529668 
z
" style="fill:#1f77b4;"/>
   </g>
   <g id="patch_96">
    <path clip-path="url(#p8d4f15a392)" d="M 254.251562 144.042832 
L 254.251562 144.042832 
L 254.251562 141.555996 
L 254.251562 141.555996 
z
" style="fill:#1f77b4;"/>
   </g>
   <g id="patch_97">
    <path clip-path="url(#p8d4f15a392)" d="M 254.251562 139.06916 
L 335.626562 139.06916 
L 335.626562 136.582324 
L 254.251562 136.582324 
z
" style="fill:#1f77b4;"/>
   </g>
   <g id="patch_98">
    <path clip-path="url(#p8d4f15a392)" d="M 254.251562 134.095488 
L 254.251562 134.095488 
L 254.251562 131.608652 
L 254.251562 131.608652 
z
" style="fill:#1f77b4;"/>
   </g>
   <g id="patch_99">
    <path clip-path="url(#p8d4f15a392)" d="M 254.251562 129.121816 
L 254.251562 129.121816 
L 254.251562 126.63498 
L 254.251562 126.63498 
z
" style="fill:#1f77b4;"/>
   </g>
   <g id="patch_100">
    <path clip-path="url(#p8d4f15a392)" d="M 254.251562 124.148145 
L 274.595312 124.148145 
L 274.595312 121.661309 
L 254.251562 121.661309 
z
" style="fill:#1f77b4;"/>
   </g>
   <g id="patch_101">
    <path clip-path="url(#p8d4f15a392)" d="M 254.251562 119.174473 
L 254.251562 119.174473 
L 254.251562 116.687637 
L 254.251562 116.687637 
z
" style="fill:#1f77b4;"/>
   </g>
   <g id="patch_102">
    <path clip-path="url(#p8d4f15a392)" d="M 254.251562 114.200801 
L 254.251562 114.200801 
L 254.251562 111.713965 
L 254.251562 111.713965 
z
" style="fill:#1f77b4;"/>
   </g>
   <g id="patch_103">
    <path clip-path="url(#p8d4f15a392)" d="M 254.251562 109.227129 
L 274.595312 109.227129 
L 274.595312 106.740293 
L 254.251562 106.740293 
z
" style="fill:#1f77b4;"/>
   </g>
   <g id="patch_104">
    <path clip-path="url(#p8d4f15a392)" d="M 254.251562 104.253457 
L 254.251562 104.253457 
L 254.251562 101.766621 
L 254.251562 101.766621 
z
" style="fill:#1f77b4;"/>
   </g>
   <g id="patch_105">
    <path clip-path="url(#p8d4f15a392)" d="M 254.251562 99.279785 
L 274.595312 99.279785 
L 274.595312 96.792949 
L 254.251562 96.792949 
z
" style="fill:#1f77b4;"/>
   </g>
   <g id="patch_106">
    <path clip-path="url(#p8d4f15a392)" d="M 254.251562 94.306113 
L 254.251562 94.306113 
L 254.251562 91.819277 
L 254.251562 91.819277 
z
" style="fill:#1f77b4;"/>
   </g>
   <g id="patch_107">
    <path clip-path="url(#p8d4f15a392)" d="M 254.251562 89.332441 
L 254.251562 89.332441 
L 254.251562 86.845605 
L 254.251562 86.845605 
z
" style="fill:#1f77b4;"/>
   </g>
   <g id="patch_108">
    <path clip-path="url(#p8d4f15a392)" d="M 254.251562 84.35877 
L 254.251562 84.35877 
L 254.251562 81.871934 
L 254.251562 81.871934 
z
" style="fill:#1f77b4;"/>
   </g>
   <g id="patch_109">
    <path clip-path="url(#p8d4f15a392)" d="M 254.251562 79.385098 
L 254.251562 79.385098 
L 254.251562 76.898262 
L 254.251562 76.898262 
z
" style="fill:#1f77b4;"/>
   </g>
   <g id="patch_110">
    <path clip-path="url(#p8d4f15a392)" d="M 254.251562 74.411426 
L 254.251562 74.411426 
L 254.251562 71.92459 
L 254.251562 71.92459 
z
" style="fill:#1f77b4;"/>
   </g>
   <g id="patch_111">
    <path clip-path="url(#p8d4f15a392)" d="M 254.251562 69.437754 
L 254.251562 69.437754 
L 254.251562 66.950918 
L 254.251562 66.950918 
z
" style="fill:#1f77b4;"/>
   </g>
   <g id="patch_112">
    <path clip-path="url(#p8d4f15a392)" d="M 254.251562 64.464082 
L 254.251562 64.464082 
L 254.251562 61.977246 
L 254.251562 61.977246 
z
" style="fill:#1f77b4;"/>
   </g>
   <g id="patch_113">
    <path clip-path="url(#p8d4f15a392)" d="M 254.251562 59.49041 
L 254.251562 59.49041 
L 254.251562 57.003574 
L 254.251562 57.003574 
z
" style="fill:#1f77b4;"/>
   </g>
   <g id="patch_114">
    <path clip-path="url(#p8d4f15a392)" d="M 254.251562 54.516738 
L 254.251562 54.516738 
L 254.251562 52.029902 
L 254.251562 52.029902 
z
" style="fill:#1f77b4;"/>
   </g>
   <g id="patch_115">
    <path clip-path="url(#p8d4f15a392)" d="M 254.251562 49.543066 
L 254.251562 49.543066 
L 254.251562 47.05623 
L 254.251562 47.05623 
z
" style="fill:#1f77b4;"/>
   </g>
   <g id="patch_116">
    <path clip-path="url(#p8d4f15a392)" d="M 254.251562 44.569395 
L 254.251562 44.569395 
L 254.251562 42.082559 
L 254.251562 42.082559 
z
" style="fill:#1f77b4;"/>
   </g>
   <g id="patch_117">
    <path clip-path="url(#p8d4f15a392)" d="M 254.251562 39.595723 
L 254.251562 39.595723 
L 254.251562 37.108887 
L 254.251562 37.108887 
z
" style="fill:#1f77b4;"/>
   </g>
   <g id="patch_118">
    <path clip-path="url(#p8d4f15a392)" d="M 254.251562 34.622051 
L 254.251562 34.622051 
L 254.251562 32.135215 
L 254.251562 32.135215 
z
" style="fill:#1f77b4;"/>
   </g>
   <g id="patch_119">
    <path clip-path="url(#p8d4f15a392)" d="M 254.251562 29.648379 
L 254.251562 29.648379 
L 254.251562 27.161543 
L 254.251562 27.161543 
z
" style="fill:#1f77b4;"/>
   </g>
   <g id="matplotlib.axis_3">
    <g id="xtick_5">
     <g id="line2d_67">
      <g>
       <use style="stroke:#000000;stroke-width:0.8;" x="254.251562" xlink:href="#m400f08fa2d" y="304.44375"/>
      </g>
     </g>
     <g id="text_64">
      <!-- 0 -->
      <g transform="translate(251.070312 319.042187)scale(0.1 -0.1)">
       <use xlink:href="#DejaVuSans-30"/>
      </g>
     </g>
    </g>
    <g id="xtick_6">
     <g id="line2d_68">
      <g>
       <use style="stroke:#000000;stroke-width:0.8;" x="294.939062" xlink:href="#m400f08fa2d" y="304.44375"/>
      </g>
     </g>
     <g id="text_65">
      <!-- 2 -->
      <g transform="translate(291.757812 319.042187)scale(0.1 -0.1)">
       <use xlink:href="#DejaVuSans-32"/>
      </g>
     </g>
    </g>
    <g id="xtick_7">
     <g id="line2d_69">
      <g>
       <use style="stroke:#000000;stroke-width:0.8;" x="335.626562" xlink:href="#m400f08fa2d" y="304.44375"/>
      </g>
     </g>
     <g id="text_66">
      <!-- 4 -->
      <g transform="translate(332.445312 319.042187)scale(0.1 -0.1)">
       <use xlink:href="#DejaVuSans-34"/>
      </g>
     </g>
    </g>
    <g id="xtick_8">
     <g id="line2d_70">
      <g>
       <use style="stroke:#000000;stroke-width:0.8;" x="376.314062" xlink:href="#m400f08fa2d" y="304.44375"/>
      </g>
     </g>
     <g id="text_67">
      <!-- 6 -->
      <g transform="translate(373.132812 319.042187)scale(0.1 -0.1)">
       <use xlink:href="#DejaVuSans-36"/>
      </g>
     </g>
    </g>
    <g id="xtick_9">
     <g id="line2d_71">
      <g>
       <use style="stroke:#000000;stroke-width:0.8;" x="417.001562" xlink:href="#m400f08fa2d" y="304.44375"/>
      </g>
     </g>
     <g id="text_68">
      <!-- 8 -->
      <g transform="translate(413.820312 319.042187)scale(0.1 -0.1)">
       <use xlink:href="#DejaVuSans-38"/>
      </g>
     </g>
    </g>
    <g id="text_69">
     <!-- Anzahl -->
     <g transform="translate(333.540625 332.720312)scale(0.1 -0.1)">
      <use xlink:href="#DejaVuSans-41"/>
      <use x="68.408203" xlink:href="#DejaVuSans-6e"/>
      <use x="131.787109" xlink:href="#DejaVuSans-7a"/>
      <use x="184.277344" xlink:href="#DejaVuSans-61"/>
      <use x="245.556641" xlink:href="#DejaVuSans-68"/>
      <use x="308.935547" xlink:href="#DejaVuSans-6c"/>
     </g>
    </g>
   </g>
   <g id="matplotlib.axis_4">
    <g id="ytick_63">
     <g id="line2d_72">
      <g>
       <use style="stroke:#000000;stroke-width:0.8;" x="254.251562" xlink:href="#mf364134849" y="301.956914"/>
      </g>
     </g>
    </g>
    <g id="ytick_64">
     <g id="line2d_73">
      <g>
       <use style="stroke:#000000;stroke-width:0.8;" x="254.251562" xlink:href="#mf364134849" y="296.983242"/>
      </g>
     </g>
    </g>
    <g id="ytick_65">
     <g id="line2d_74">
      <g>
       <use style="stroke:#000000;stroke-width:0.8;" x="254.251562" xlink:href="#mf364134849" y="292.00957"/>
      </g>
     </g>
    </g>
    <g id="ytick_66">
     <g id="line2d_75">
      <g>
       <use style="stroke:#000000;stroke-width:0.8;" x="254.251562" xlink:href="#mf364134849" y="287.035898"/>
      </g>
     </g>
    </g>
    <g id="ytick_67">
     <g id="line2d_76">
      <g>
       <use style="stroke:#000000;stroke-width:0.8;" x="254.251562" xlink:href="#mf364134849" y="282.062227"/>
      </g>
     </g>
    </g>
    <g id="ytick_68">
     <g id="line2d_77">
      <g>
       <use style="stroke:#000000;stroke-width:0.8;" x="254.251562" xlink:href="#mf364134849" y="277.088555"/>
      </g>
     </g>
    </g>
    <g id="ytick_69">
     <g id="line2d_78">
      <g>
       <use style="stroke:#000000;stroke-width:0.8;" x="254.251562" xlink:href="#mf364134849" y="272.114883"/>
      </g>
     </g>
    </g>
    <g id="ytick_70">
     <g id="line2d_79">
      <g>
       <use style="stroke:#000000;stroke-width:0.8;" x="254.251562" xlink:href="#mf364134849" y="267.141211"/>
      </g>
     </g>
    </g>
    <g id="ytick_71">
     <g id="line2d_80">
      <g>
       <use style="stroke:#000000;stroke-width:0.8;" x="254.251562" xlink:href="#mf364134849" y="262.167539"/>
      </g>
     </g>
    </g>
    <g id="ytick_72">
     <g id="line2d_81">
      <g>
       <use style="stroke:#000000;stroke-width:0.8;" x="254.251562" xlink:href="#mf364134849" y="257.193867"/>
      </g>
     </g>
    </g>
    <g id="ytick_73">
     <g id="line2d_82">
      <g>
       <use style="stroke:#000000;stroke-width:0.8;" x="254.251562" xlink:href="#mf364134849" y="252.220195"/>
      </g>
     </g>
    </g>
    <g id="ytick_74">
     <g id="line2d_83">
      <g>
       <use style="stroke:#000000;stroke-width:0.8;" x="254.251562" xlink:href="#mf364134849" y="247.246523"/>
      </g>
     </g>
    </g>
    <g id="ytick_75">
     <g id="line2d_84">
      <g>
       <use style="stroke:#000000;stroke-width:0.8;" x="254.251562" xlink:href="#mf364134849" y="242.272852"/>
      </g>
     </g>
    </g>
    <g id="ytick_76">
     <g id="line2d_85">
      <g>
       <use style="stroke:#000000;stroke-width:0.8;" x="254.251562" xlink:href="#mf364134849" y="237.29918"/>
      </g>
     </g>
    </g>
    <g id="ytick_77">
     <g id="line2d_86">
      <g>
       <use style="stroke:#000000;stroke-width:0.8;" x="254.251562" xlink:href="#mf364134849" y="232.325508"/>
      </g>
     </g>
    </g>
    <g id="ytick_78">
     <g id="line2d_87">
      <g>
       <use style="stroke:#000000;stroke-width:0.8;" x="254.251562" xlink:href="#mf364134849" y="227.351836"/>
      </g>
     </g>
    </g>
    <g id="ytick_79">
     <g id="line2d_88">
      <g>
       <use style="stroke:#000000;stroke-width:0.8;" x="254.251562" xlink:href="#mf364134849" y="222.378164"/>
      </g>
     </g>
    </g>
    <g id="ytick_80">
     <g id="line2d_89">
      <g>
       <use style="stroke:#000000;stroke-width:0.8;" x="254.251562" xlink:href="#mf364134849" y="217.404492"/>
      </g>
     </g>
    </g>
    <g id="ytick_81">
     <g id="line2d_90">
      <g>
       <use style="stroke:#000000;stroke-width:0.8;" x="254.251562" xlink:href="#mf364134849" y="212.43082"/>
      </g>
     </g>
    </g>
    <g id="ytick_82">
     <g id="line2d_91">
      <g>
       <use style="stroke:#000000;stroke-width:0.8;" x="254.251562" xlink:href="#mf364134849" y="207.457148"/>
      </g>
     </g>
    </g>
    <g id="ytick_83">
     <g id="line2d_92">
      <g>
       <use style="stroke:#000000;stroke-width:0.8;" x="254.251562" xlink:href="#mf364134849" y="202.483477"/>
      </g>
     </g>
    </g>
    <g id="ytick_84">
     <g id="line2d_93">
      <g>
       <use style="stroke:#000000;stroke-width:0.8;" x="254.251562" xlink:href="#mf364134849" y="197.509805"/>
      </g>
     </g>
    </g>
    <g id="ytick_85">
     <g id="line2d_94">
      <g>
       <use style="stroke:#000000;stroke-width:0.8;" x="254.251562" xlink:href="#mf364134849" y="192.536133"/>
      </g>
     </g>
    </g>
    <g id="ytick_86">
     <g id="line2d_95">
      <g>
       <use style="stroke:#000000;stroke-width:0.8;" x="254.251562" xlink:href="#mf364134849" y="187.562461"/>
      </g>
     </g>
    </g>
    <g id="ytick_87">
     <g id="line2d_96">
      <g>
       <use style="stroke:#000000;stroke-width:0.8;" x="254.251562" xlink:href="#mf364134849" y="182.588789"/>
      </g>
     </g>
    </g>
    <g id="ytick_88">
     <g id="line2d_97">
      <g>
       <use style="stroke:#000000;stroke-width:0.8;" x="254.251562" xlink:href="#mf364134849" y="177.615117"/>
      </g>
     </g>
    </g>
    <g id="ytick_89">
     <g id="line2d_98">
      <g>
       <use style="stroke:#000000;stroke-width:0.8;" x="254.251562" xlink:href="#mf364134849" y="172.641445"/>
      </g>
     </g>
    </g>
    <g id="ytick_90">
     <g id="line2d_99">
      <g>
       <use style="stroke:#000000;stroke-width:0.8;" x="254.251562" xlink:href="#mf364134849" y="167.667773"/>
      </g>
     </g>
    </g>
    <g id="ytick_91">
     <g id="line2d_100">
      <g>
       <use style="stroke:#000000;stroke-width:0.8;" x="254.251562" xlink:href="#mf364134849" y="162.694102"/>
      </g>
     </g>
    </g>
    <g id="ytick_92">
     <g id="line2d_101">
      <g>
       <use style="stroke:#000000;stroke-width:0.8;" x="254.251562" xlink:href="#mf364134849" y="157.72043"/>
      </g>
     </g>
    </g>
    <g id="ytick_93">
     <g id="line2d_102">
      <g>
       <use style="stroke:#000000;stroke-width:0.8;" x="254.251562" xlink:href="#mf364134849" y="152.746758"/>
      </g>
     </g>
    </g>
    <g id="ytick_94">
     <g id="line2d_103">
      <g>
       <use style="stroke:#000000;stroke-width:0.8;" x="254.251562" xlink:href="#mf364134849" y="147.773086"/>
      </g>
     </g>
    </g>
    <g id="ytick_95">
     <g id="line2d_104">
      <g>
       <use style="stroke:#000000;stroke-width:0.8;" x="254.251562" xlink:href="#mf364134849" y="142.799414"/>
      </g>
     </g>
    </g>
    <g id="ytick_96">
     <g id="line2d_105">
      <g>
       <use style="stroke:#000000;stroke-width:0.8;" x="254.251562" xlink:href="#mf364134849" y="137.825742"/>
      </g>
     </g>
    </g>
    <g id="ytick_97">
     <g id="line2d_106">
      <g>
       <use style="stroke:#000000;stroke-width:0.8;" x="254.251562" xlink:href="#mf364134849" y="132.85207"/>
      </g>
     </g>
    </g>
    <g id="ytick_98">
     <g id="line2d_107">
      <g>
       <use style="stroke:#000000;stroke-width:0.8;" x="254.251562" xlink:href="#mf364134849" y="127.878398"/>
      </g>
     </g>
    </g>
    <g id="ytick_99">
     <g id="line2d_108">
      <g>
       <use style="stroke:#000000;stroke-width:0.8;" x="254.251562" xlink:href="#mf364134849" y="122.904727"/>
      </g>
     </g>
    </g>
    <g id="ytick_100">
     <g id="line2d_109">
      <g>
       <use style="stroke:#000000;stroke-width:0.8;" x="254.251562" xlink:href="#mf364134849" y="117.931055"/>
      </g>
     </g>
    </g>
    <g id="ytick_101">
     <g id="line2d_110">
      <g>
       <use style="stroke:#000000;stroke-width:0.8;" x="254.251562" xlink:href="#mf364134849" y="112.957383"/>
      </g>
     </g>
    </g>
    <g id="ytick_102">
     <g id="line2d_111">
      <g>
       <use style="stroke:#000000;stroke-width:0.8;" x="254.251562" xlink:href="#mf364134849" y="107.983711"/>
      </g>
     </g>
    </g>
    <g id="ytick_103">
     <g id="line2d_112">
      <g>
       <use style="stroke:#000000;stroke-width:0.8;" x="254.251562" xlink:href="#mf364134849" y="103.010039"/>
      </g>
     </g>
    </g>
    <g id="ytick_104">
     <g id="line2d_113">
      <g>
       <use style="stroke:#000000;stroke-width:0.8;" x="254.251562" xlink:href="#mf364134849" y="98.036367"/>
      </g>
     </g>
    </g>
    <g id="ytick_105">
     <g id="line2d_114">
      <g>
       <use style="stroke:#000000;stroke-width:0.8;" x="254.251562" xlink:href="#mf364134849" y="93.062695"/>
      </g>
     </g>
    </g>
    <g id="ytick_106">
     <g id="line2d_115">
      <g>
       <use style="stroke:#000000;stroke-width:0.8;" x="254.251562" xlink:href="#mf364134849" y="88.089023"/>
      </g>
     </g>
    </g>
    <g id="ytick_107">
     <g id="line2d_116">
      <g>
       <use style="stroke:#000000;stroke-width:0.8;" x="254.251562" xlink:href="#mf364134849" y="83.115352"/>
      </g>
     </g>
    </g>
    <g id="ytick_108">
     <g id="line2d_117">
      <g>
       <use style="stroke:#000000;stroke-width:0.8;" x="254.251562" xlink:href="#mf364134849" y="78.14168"/>
      </g>
     </g>
    </g>
    <g id="ytick_109">
     <g id="line2d_118">
      <g>
       <use style="stroke:#000000;stroke-width:0.8;" x="254.251562" xlink:href="#mf364134849" y="73.168008"/>
      </g>
     </g>
    </g>
    <g id="ytick_110">
     <g id="line2d_119">
      <g>
       <use style="stroke:#000000;stroke-width:0.8;" x="254.251562" xlink:href="#mf364134849" y="68.194336"/>
      </g>
     </g>
    </g>
    <g id="ytick_111">
     <g id="line2d_120">
      <g>
       <use style="stroke:#000000;stroke-width:0.8;" x="254.251562" xlink:href="#mf364134849" y="63.220664"/>
      </g>
     </g>
    </g>
    <g id="ytick_112">
     <g id="line2d_121">
      <g>
       <use style="stroke:#000000;stroke-width:0.8;" x="254.251562" xlink:href="#mf364134849" y="58.246992"/>
      </g>
     </g>
    </g>
    <g id="ytick_113">
     <g id="line2d_122">
      <g>
       <use style="stroke:#000000;stroke-width:0.8;" x="254.251562" xlink:href="#mf364134849" y="53.27332"/>
      </g>
     </g>
    </g>
    <g id="ytick_114">
     <g id="line2d_123">
      <g>
       <use style="stroke:#000000;stroke-width:0.8;" x="254.251562" xlink:href="#mf364134849" y="48.299648"/>
      </g>
     </g>
    </g>
    <g id="ytick_115">
     <g id="line2d_124">
      <g>
       <use style="stroke:#000000;stroke-width:0.8;" x="254.251562" xlink:href="#mf364134849" y="43.325977"/>
      </g>
     </g>
    </g>
    <g id="ytick_116">
     <g id="line2d_125">
      <g>
       <use style="stroke:#000000;stroke-width:0.8;" x="254.251562" xlink:href="#mf364134849" y="38.352305"/>
      </g>
     </g>
    </g>
    <g id="ytick_117">
     <g id="line2d_126">
      <g>
       <use style="stroke:#000000;stroke-width:0.8;" x="254.251562" xlink:href="#mf364134849" y="33.378633"/>
      </g>
     </g>
    </g>
    <g id="ytick_118">
     <g id="line2d_127">
      <g>
       <use style="stroke:#000000;stroke-width:0.8;" x="254.251562" xlink:href="#mf364134849" y="28.404961"/>
      </g>
     </g>
    </g>
    <g id="ytick_119">
     <g id="line2d_128">
      <g>
       <use style="stroke:#000000;stroke-width:0.6;" x="254.251562" xlink:href="#m697281368c" y="301.956914"/>
      </g>
     </g>
    </g>
    <g id="ytick_120">
     <g id="line2d_129">
      <g>
       <use style="stroke:#000000;stroke-width:0.6;" x="254.251562" xlink:href="#m697281368c" y="252.220195"/>
      </g>
     </g>
    </g>
    <g id="ytick_121">
     <g id="line2d_130">
      <g>
       <use style="stroke:#000000;stroke-width:0.6;" x="254.251562" xlink:href="#m697281368c" y="202.483477"/>
      </g>
     </g>
    </g>
    <g id="ytick_122">
     <g id="line2d_131">
      <g>
       <use style="stroke:#000000;stroke-width:0.6;" x="254.251562" xlink:href="#m697281368c" y="152.746758"/>
      </g>
     </g>
    </g>
    <g id="ytick_123">
     <g id="line2d_132">
      <g>
       <use style="stroke:#000000;stroke-width:0.6;" x="254.251562" xlink:href="#m697281368c" y="103.010039"/>
      </g>
     </g>
    </g>
    <g id="ytick_124">
     <g id="line2d_133">
      <g>
       <use style="stroke:#000000;stroke-width:0.6;" x="254.251562" xlink:href="#m697281368c" y="53.27332"/>
      </g>
     </g>
    </g>
   </g>
   <g id="patch_120">
    <path d="M 254.251562 304.44375 
L 254.251562 25.918125 
" style="fill:none;stroke:#000000;stroke-linecap:square;stroke-linejoin:miter;stroke-width:0.8;"/>
   </g>
   <g id="patch_121">
    <path d="M 446.5 304.44375 
L 446.5 25.918125 
" style="fill:none;stroke:#000000;stroke-linecap:square;stroke-linejoin:miter;stroke-width:0.8;"/>
   </g>
   <g id="patch_122">
    <path d="M 254.251562 304.44375 
L 446.5 304.44375 
" style="fill:none;stroke:#000000;stroke-linecap:square;stroke-linejoin:miter;stroke-width:0.8;"/>
   </g>
   <g id="patch_123">
    <path d="M 254.251562 25.918125 
L 446.5 25.918125 
" style="fill:none;stroke:#000000;stroke-linecap:square;stroke-linejoin:miter;stroke-width:0.8;"/>
   </g>
   <g id="text_70">
    <!-- Weiblich (n = 77) -->
    <defs>
     <path d="M 3.328125 72.90625 
L 13.28125 72.90625 
L 28.609375 11.28125 
L 43.890625 72.90625 
L 54.984375 72.90625 
L 70.3125 11.28125 
L 85.59375 72.90625 
L 95.609375 72.90625 
L 77.296875 0 
L 64.890625 0 
L 49.515625 63.28125 
L 33.984375 0 
L 21.578125 0 
z
" id="DejaVuSans-57"/>
     <path d="M 48.6875 27.296875 
Q 48.6875 37.203125 44.609375 42.84375 
Q 40.53125 48.484375 33.40625 48.484375 
Q 26.265625 48.484375 22.1875 42.84375 
Q 18.109375 37.203125 18.109375 27.296875 
Q 18.109375 17.390625 22.1875 11.75 
Q 26.265625 6.109375 33.40625 6.109375 
Q 40.53125 6.109375 44.609375 11.75 
Q 48.6875 17.390625 48.6875 27.296875 
M 18.109375 46.390625 
Q 20.953125 51.265625 25.265625 53.625 
Q 29.59375 56 35.59375 56 
Q 45.5625 56 51.78125 48.09375 
Q 58.015625 40.1875 58.015625 27.296875 
Q 58.015625 14.40625 51.78125 6.484375 
Q 45.5625 -1.421875 35.59375 -1.421875 
Q 29.59375 -1.421875 25.265625 0.953125 
Q 20.953125 3.328125 18.109375 8.203125 
L 18.109375 0 
L 9.078125 0 
L 9.078125 75.984375 
L 18.109375 75.984375 
z
" id="DejaVuSans-62"/>
    </defs>
    <g transform="translate(297.977031 19.918125)scale(0.12 -0.12)">
     <use xlink:href="#DejaVuSans-57"/>
     <use x="98.798828" xlink:href="#DejaVuSans-65"/>
     <use x="160.322266" xlink:href="#DejaVuSans-69"/>
     <use x="188.105469" xlink:href="#DejaVuSans-62"/>
     <use x="251.582031" xlink:href="#DejaVuSans-6c"/>
     <use x="279.365234" xlink:href="#DejaVuSans-69"/>
     <use x="307.148438" xlink:href="#DejaVuSans-63"/>
     <use x="362.128906" xlink:href="#DejaVuSans-68"/>
     <use x="425.507812" xlink:href="#DejaVuSans-20"/>
     <use x="457.294922" xlink:href="#DejaVuSans-28"/>
     <use x="496.308594" xlink:href="#DejaVuSans-6e"/>
     <use x="559.6875" xlink:href="#DejaVuSans-20"/>
     <use x="591.474609" xlink:href="#DejaVuSans-3d"/>
     <use x="675.263672" xlink:href="#DejaVuSans-20"/>
     <use x="707.050781" xlink:href="#DejaVuSans-37"/>
     <use x="770.673828" xlink:href="#DejaVuSans-37"/>
     <use x="834.296875" xlink:href="#DejaVuSans-29"/>
    </g>
   </g>
  </g>
 </g>
 <defs>
  <clipPath id="p6a0536a648">
   <rect height="278.525625" width="192.248437" x="44.203125" y="25.918125"/>
  </clipPath>
  <clipPath id="p8d4f15a392">
   <rect height="278.525625" width="192.248438" x="254.251562" y="25.918125"/>
  </clipPath>
 </defs>
</svg>
