<?xml version="1.0" encoding="utf-8" standalone="no"?>
<!DOCTYPE svg PUBLIC "-//W3C//DTD SVG 1.1//EN"
  "http://www.w3.org/Graphics/SVG/1.1/DTD/svg11.dtd">
<!-- Created with matplotlib (http://matplotlib.org/) -->
<svg height="432pt" version="1.1" viewBox="0 0 432 432" width="432pt" xmlns="http://www.w3.org/2000/svg" xmlns:xlink="http://www.w3.org/1999/xlink">
 <defs>
  <style type="text/css">
*{stroke-linecap:butt;stroke-linejoin:round;}
  </style>
 </defs>
 <g id="figure_1">
  <g id="patch_1">
   <path d="
M0 432
L432 432
L432 0
L0 0
z
" style="fill:#ffffff;"/>
  </g>
  <g id="axes_1">
   <g id="patch_2">
    <path d="
M352.245 232.033
C352.245 210.354 347.953 188.931 339.668 169.252
C331.382 149.574 319.3 132.106 304.259 118.062
C289.218 104.018 271.575 93.7303 252.555 87.9134
C233.536 82.0966 213.59 80.8884 194.103 84.3728
C174.616 87.8571 156.05 95.9514 139.693 108.094
C123.337 120.236 109.578 136.138 99.3715 154.697
C89.1653 173.255 82.7537 194.03 80.5821 215.578
C78.4104 237.126 80.5301 258.937 86.7939 279.497
L216 232.033
L352.245 232.033
z
" style="fill:#0000ff;stroke:#000000;stroke-linejoin:miter;"/>
   </g>
   <g id="patch_3">
    <path d="
M86.7939 279.497
C92.8175 299.268 102.539 317.44 115.333 332.844
C128.127 348.249 143.713 360.547 161.089 368.95
C178.465 377.352 197.25 381.675 216.236 381.638
C235.223 381.602 253.994 377.209 271.344 368.74
L216 232.033
L86.7939 279.497
z
" style="fill:#008000;stroke:#000000;stroke-linejoin:miter;"/>
   </g>
   <g id="patch_4">
    <path d="
M271.344 368.74
C283.032 363.035 293.93 355.55 303.717 346.508
C313.504 337.465 322.083 326.954 329.201 315.284
L216 232.033
L271.344 368.74
z
" style="fill:#ff0000;stroke:#000000;stroke-linejoin:miter;"/>
   </g>
   <g id="patch_5">
    <path d="
M329.201 315.284
C334.91 305.925 339.637 295.888 343.294 285.364
C346.951 274.84 349.513 263.896 350.933 252.74
L216 232.033
L329.201 315.284
z
" style="fill:#00bfbf;stroke:#000000;stroke-linejoin:miter;"/>
   </g>
   <g id="patch_6">
    <path d="
M350.933 252.74
C351.37 249.311 351.698 245.866 351.916 242.412
C352.135 238.957 352.245 235.496 352.245 232.033
L216 232.033
L350.933 252.74
z
" style="fill:#bf00bf;stroke:#000000;stroke-linejoin:miter;"/>
   </g>
   <g id="matplotlib.axis_1"/>
   <g id="matplotlib.axis_2"/>
   <g id="text_1">
    <!-- Auf jeden Fall -->
    <defs>
     <path d="
M9.42188 75.9844
L18.4062 75.9844
L18.4062 0
L9.42188 0
z
" id="DejaVuSans-6c"/>
     <path d="
M34.2812 27.4844
Q23.3906 27.4844 19.1875 25
Q14.9844 22.5156 14.9844 16.5
Q14.9844 11.7188 18.1406 8.90625
Q21.2969 6.10938 26.7031 6.10938
Q34.1875 6.10938 38.7031 11.4062
Q43.2188 16.7031 43.2188 25.4844
L43.2188 27.4844
z

M52.2031 31.2031
L52.2031 0
L43.2188 0
L43.2188 8.29688
Q40.1406 3.32812 35.5469 0.953125
Q30.9531 -1.42188 24.3125 -1.42188
Q15.9219 -1.42188 10.9531 3.29688
Q6 8.01562 6 15.9219
Q6 25.1406 12.1719 29.8281
Q18.3594 34.5156 30.6094 34.5156
L43.2188 34.5156
L43.2188 35.4062
Q43.2188 41.6094 39.1406 45
Q35.0625 48.3906 27.6875 48.3906
Q23 48.3906 18.5469 47.2656
Q14.1094 46.1406 10.0156 43.8906
L10.0156 52.2031
Q14.9375 54.1094 19.5781 55.0469
Q24.2188 56 28.6094 56
Q40.4844 56 46.3438 49.8438
Q52.2031 43.7031 52.2031 31.2031" id="DejaVuSans-61"/>
     <path d="
M37.1094 75.9844
L37.1094 68.5
L28.5156 68.5
Q23.6875 68.5 21.7969 66.5469
Q19.9219 64.5938 19.9219 59.5156
L19.9219 54.6875
L34.7188 54.6875
L34.7188 47.7031
L19.9219 47.7031
L19.9219 0
L10.8906 0
L10.8906 47.7031
L2.29688 47.7031
L2.29688 54.6875
L10.8906 54.6875
L10.8906 58.5
Q10.8906 67.625 15.1406 71.7969
Q19.3906 75.9844 28.6094 75.9844
z
" id="DejaVuSans-66"/>
     <path d="
M54.8906 33.0156
L54.8906 0
L45.9062 0
L45.9062 32.7188
Q45.9062 40.4844 42.875 44.3281
Q39.8438 48.1875 33.7969 48.1875
Q26.5156 48.1875 22.3125 43.5469
Q18.1094 38.9219 18.1094 30.9062
L18.1094 0
L9.07812 0
L9.07812 54.6875
L18.1094 54.6875
L18.1094 46.1875
Q21.3438 51.125 25.7031 53.5625
Q30.0781 56 35.7969 56
Q45.2188 56 50.0469 50.1719
Q54.8906 44.3438 54.8906 33.0156" id="DejaVuSans-6e"/>
     <path d="
M9.42188 54.6875
L18.4062 54.6875
L18.4062 -0.984375
Q18.4062 -11.4219 14.4219 -16.1094
Q10.4531 -20.7969 1.60938 -20.7969
L-1.8125 -20.7969
L-1.8125 -13.1875
L0.59375 -13.1875
Q5.71875 -13.1875 7.5625 -10.8125
Q9.42188 -8.45312 9.42188 -0.984375
z

M9.42188 75.9844
L18.4062 75.9844
L18.4062 64.5938
L9.42188 64.5938
z
" id="DejaVuSans-6a"/>
     <path d="
M56.2031 29.5938
L56.2031 25.2031
L14.8906 25.2031
Q15.4844 15.9219 20.4844 11.0625
Q25.4844 6.20312 34.4219 6.20312
Q39.5938 6.20312 44.4531 7.46875
Q49.3125 8.73438 54.1094 11.2812
L54.1094 2.78125
Q49.2656 0.734375 44.1875 -0.34375
Q39.1094 -1.42188 33.8906 -1.42188
Q20.7969 -1.42188 13.1562 6.1875
Q5.51562 13.8125 5.51562 26.8125
Q5.51562 40.2344 12.7656 48.1094
Q20.0156 56 32.3281 56
Q43.3594 56 49.7812 48.8906
Q56.2031 41.7969 56.2031 29.5938
M47.2188 32.2344
Q47.125 39.5938 43.0938 43.9844
Q39.0625 48.3906 32.4219 48.3906
Q24.9062 48.3906 20.3906 44.1406
Q15.875 39.8906 15.1875 32.1719
z
" id="DejaVuSans-65"/>
     <path id="DejaVuSans-20"/>
     <path d="
M8.5 21.5781
L8.5 54.6875
L17.4844 54.6875
L17.4844 21.9219
Q17.4844 14.1562 20.5 10.2656
Q23.5312 6.39062 29.5938 6.39062
Q36.8594 6.39062 41.0781 11.0312
Q45.3125 15.6719 45.3125 23.6875
L45.3125 54.6875
L54.2969 54.6875
L54.2969 0
L45.3125 0
L45.3125 8.40625
Q42.0469 3.42188 37.7188 1
Q33.4062 -1.42188 27.6875 -1.42188
Q18.2656 -1.42188 13.375 4.4375
Q8.5 10.2969 8.5 21.5781
M31.1094 56
z
" id="DejaVuSans-75"/>
     <path d="
M45.4062 46.3906
L45.4062 75.9844
L54.3906 75.9844
L54.3906 0
L45.4062 0
L45.4062 8.20312
Q42.5781 3.32812 38.25 0.953125
Q33.9375 -1.42188 27.875 -1.42188
Q17.9688 -1.42188 11.7344 6.48438
Q5.51562 14.4062 5.51562 27.2969
Q5.51562 40.1875 11.7344 48.0938
Q17.9688 56 27.875 56
Q33.9375 56 38.25 53.625
Q42.5781 51.2656 45.4062 46.3906
M14.7969 27.2969
Q14.7969 17.3906 18.875 11.75
Q22.9531 6.10938 30.0781 6.10938
Q37.2031 6.10938 41.2969 11.75
Q45.4062 17.3906 45.4062 27.2969
Q45.4062 37.2031 41.2969 42.8438
Q37.2031 48.4844 30.0781 48.4844
Q22.9531 48.4844 18.875 42.8438
Q14.7969 37.2031 14.7969 27.2969" id="DejaVuSans-64"/>
     <path d="
M9.8125 72.9062
L51.7031 72.9062
L51.7031 64.5938
L19.6719 64.5938
L19.6719 43.1094
L48.5781 43.1094
L48.5781 34.8125
L19.6719 34.8125
L19.6719 0
L9.8125 0
z
" id="DejaVuSans-46"/>
     <path d="
M34.1875 63.1875
L20.7969 26.9062
L47.6094 26.9062
z

M28.6094 72.9062
L39.7969 72.9062
L67.5781 0
L57.3281 0
L50.6875 18.7031
L17.8281 18.7031
L11.1875 0
L0.78125 0
z
" id="DejaVuSans-41"/>
    </defs>
    <g transform="translate(112.220092338 72.9179721824)scale(0.12 -0.12)">
     <use xlink:href="#DejaVuSans-41"/>
     <use x="68.408203125" xlink:href="#DejaVuSans-75"/>
     <use x="131.787109375" xlink:href="#DejaVuSans-66"/>
     <use x="166.9921875" xlink:href="#DejaVuSans-20"/>
     <use x="198.779296875" xlink:href="#DejaVuSans-6a"/>
     <use x="226.5625" xlink:href="#DejaVuSans-65"/>
     <use x="288.0859375" xlink:href="#DejaVuSans-64"/>
     <use x="351.5625" xlink:href="#DejaVuSans-65"/>
     <use x="413.0859375" xlink:href="#DejaVuSans-6e"/>
     <use x="476.46484375" xlink:href="#DejaVuSans-20"/>
     <use x="508.251953125" xlink:href="#DejaVuSans-46"/>
     <use x="556.646484375" xlink:href="#DejaVuSans-61"/>
     <use x="617.92578125" xlink:href="#DejaVuSans-6c"/>
     <use x="645.708984375" xlink:href="#DejaVuSans-6c"/>
    </g>
   </g>
   <g id="text_2">
    <!-- Eher ja -->
    <defs>
     <path d="
M9.8125 72.9062
L55.9062 72.9062
L55.9062 64.5938
L19.6719 64.5938
L19.6719 43.0156
L54.3906 43.0156
L54.3906 34.7188
L19.6719 34.7188
L19.6719 8.29688
L56.7812 8.29688
L56.7812 0
L9.8125 0
z
" id="DejaVuSans-45"/>
     <path d="
M41.1094 46.2969
Q39.5938 47.1719 37.8125 47.5781
Q36.0312 48 33.8906 48
Q26.2656 48 22.1875 43.0469
Q18.1094 38.0938 18.1094 28.8125
L18.1094 0
L9.07812 0
L9.07812 54.6875
L18.1094 54.6875
L18.1094 46.1875
Q20.9531 51.1719 25.4844 53.5781
Q30.0312 56 36.5312 56
Q37.4531 56 38.5781 55.875
Q39.7031 55.7656 41.0625 55.5156
z
" id="DejaVuSans-72"/>
     <path d="
M54.8906 33.0156
L54.8906 0
L45.9062 0
L45.9062 32.7188
Q45.9062 40.4844 42.875 44.3281
Q39.8438 48.1875 33.7969 48.1875
Q26.5156 48.1875 22.3125 43.5469
Q18.1094 38.9219 18.1094 30.9062
L18.1094 0
L9.07812 0
L9.07812 75.9844
L18.1094 75.9844
L18.1094 46.1875
Q21.3438 51.125 25.7031 53.5625
Q30.0781 56 35.7969 56
Q45.2188 56 50.0469 50.1719
Q54.8906 44.3438 54.8906 33.0156" id="DejaVuSans-68"/>
    </defs>
    <g transform="translate(114.681498523 385.952832234)scale(0.12 -0.12)">
     <use xlink:href="#DejaVuSans-45"/>
     <use x="63.18359375" xlink:href="#DejaVuSans-68"/>
     <use x="126.5625" xlink:href="#DejaVuSans-65"/>
     <use x="188.0859375" xlink:href="#DejaVuSans-72"/>
     <use x="229.19921875" xlink:href="#DejaVuSans-20"/>
     <use x="260.986328125" xlink:href="#DejaVuSans-6a"/>
     <use x="288.76953125" xlink:href="#DejaVuSans-61"/>
    </g>
   </g>
   <g id="text_3">
    <!-- Vielleicht -->
    <defs>
     <path d="
M28.6094 0
L0.78125 72.9062
L11.0781 72.9062
L34.1875 11.5312
L57.3281 72.9062
L67.5781 72.9062
L39.7969 0
z
" id="DejaVuSans-56"/>
     <path d="
M9.42188 54.6875
L18.4062 54.6875
L18.4062 0
L9.42188 0
z

M9.42188 75.9844
L18.4062 75.9844
L18.4062 64.5938
L9.42188 64.5938
z
" id="DejaVuSans-69"/>
     <path d="
M18.3125 70.2188
L18.3125 54.6875
L36.8125 54.6875
L36.8125 47.7031
L18.3125 47.7031
L18.3125 18.0156
Q18.3125 11.3281 20.1406 9.42188
Q21.9688 7.51562 27.5938 7.51562
L36.8125 7.51562
L36.8125 0
L27.5938 0
Q17.1875 0 13.2344 3.875
Q9.28125 7.76562 9.28125 18.0156
L9.28125 47.7031
L2.6875 47.7031
L2.6875 54.6875
L9.28125 54.6875
L9.28125 70.2188
z
" id="DejaVuSans-74"/>
     <path d="
M48.7812 52.5938
L48.7812 44.1875
Q44.9688 46.2969 41.1406 47.3438
Q37.3125 48.3906 33.4062 48.3906
Q24.6562 48.3906 19.8125 42.8438
Q14.9844 37.3125 14.9844 27.2969
Q14.9844 17.2812 19.8125 11.7344
Q24.6562 6.20312 33.4062 6.20312
Q37.3125 6.20312 41.1406 7.25
Q44.9688 8.29688 48.7812 10.4062
L48.7812 2.09375
Q45.0156 0.34375 40.9844 -0.53125
Q36.9688 -1.42188 32.4219 -1.42188
Q20.0625 -1.42188 12.7812 6.34375
Q5.51562 14.1094 5.51562 27.2969
Q5.51562 40.6719 12.8594 48.3281
Q20.2188 56 33.0156 56
Q37.1562 56 41.1094 55.1406
Q45.0625 54.2969 48.7812 52.5938" id="DejaVuSans-63"/>
    </defs>
    <g transform="translate(312.488902436 361.266412647)scale(0.12 -0.12)">
     <use xlink:href="#DejaVuSans-56"/>
     <use x="66.158203125" xlink:href="#DejaVuSans-69"/>
     <use x="93.94140625" xlink:href="#DejaVuSans-65"/>
     <use x="155.46484375" xlink:href="#DejaVuSans-6c"/>
     <use x="183.248046875" xlink:href="#DejaVuSans-6c"/>
     <use x="211.03125" xlink:href="#DejaVuSans-65"/>
     <use x="272.5546875" xlink:href="#DejaVuSans-69"/>
     <use x="300.337890625" xlink:href="#DejaVuSans-63"/>
     <use x="355.318359375" xlink:href="#DejaVuSans-68"/>
     <use x="418.697265625" xlink:href="#DejaVuSans-74"/>
    </g>
   </g>
   <g id="text_4">
    <!-- Eher nicht -->
    <g transform="translate(356.023321701 294.008452195)scale(0.12 -0.12)">
     <use xlink:href="#DejaVuSans-45"/>
     <use x="63.18359375" xlink:href="#DejaVuSans-68"/>
     <use x="126.5625" xlink:href="#DejaVuSans-65"/>
     <use x="188.0859375" xlink:href="#DejaVuSans-72"/>
     <use x="229.19921875" xlink:href="#DejaVuSans-20"/>
     <use x="260.986328125" xlink:href="#DejaVuSans-6e"/>
     <use x="324.365234375" xlink:href="#DejaVuSans-69"/>
     <use x="352.1484375" xlink:href="#DejaVuSans-63"/>
     <use x="407.12890625" xlink:href="#DejaVuSans-68"/>
     <use x="470.5078125" xlink:href="#DejaVuSans-74"/>
    </g>
   </g>
   <g id="text_5">
    <!-- Auf keinen Fall -->
    <defs>
     <path d="
M9.07812 75.9844
L18.1094 75.9844
L18.1094 31.1094
L44.9219 54.6875
L56.3906 54.6875
L27.3906 29.1094
L57.625 0
L45.9062 0
L18.1094 26.7031
L18.1094 0
L9.07812 0
z
" id="DejaVuSans-6b"/>
    </defs>
    <g transform="translate(365.508035962 246.76075296)scale(0.12 -0.12)">
     <use xlink:href="#DejaVuSans-41"/>
     <use x="68.408203125" xlink:href="#DejaVuSans-75"/>
     <use x="131.787109375" xlink:href="#DejaVuSans-66"/>
     <use x="166.9921875" xlink:href="#DejaVuSans-20"/>
     <use x="198.779296875" xlink:href="#DejaVuSans-6b"/>
     <use x="253.064453125" xlink:href="#DejaVuSans-65"/>
     <use x="314.587890625" xlink:href="#DejaVuSans-69"/>
     <use x="342.37109375" xlink:href="#DejaVuSans-6e"/>
     <use x="405.75" xlink:href="#DejaVuSans-65"/>
     <use x="467.2734375" xlink:href="#DejaVuSans-6e"/>
     <use x="530.65234375" xlink:href="#DejaVuSans-20"/>
     <use x="562.439453125" xlink:href="#DejaVuSans-46"/>
     <use x="610.833984375" xlink:href="#DejaVuSans-61"/>
     <use x="672.11328125" xlink:href="#DejaVuSans-6c"/>
     <use x="699.896484375" xlink:href="#DejaVuSans-6c"/>
    </g>
   </g>
   <g id="text_6">
    <!-- Ist es dir persönlich wichtig, dass Videospiele deutlicher -->
    <defs>
     <path d="
M18.1094 8.20312
L18.1094 -20.7969
L9.07812 -20.7969
L9.07812 54.6875
L18.1094 54.6875
L18.1094 46.3906
Q20.9531 51.2656 25.2656 53.625
Q29.5938 56 35.5938 56
Q45.5625 56 51.7812 48.0938
Q58.0156 40.1875 58.0156 27.2969
Q58.0156 14.4062 51.7812 6.48438
Q45.5625 -1.42188 35.5938 -1.42188
Q29.5938 -1.42188 25.2656 0.953125
Q20.9531 3.32812 18.1094 8.20312
M48.6875 27.2969
Q48.6875 37.2031 44.6094 42.8438
Q40.5312 48.4844 33.4062 48.4844
Q26.2656 48.4844 22.1875 42.8438
Q18.1094 37.2031 18.1094 27.2969
Q18.1094 17.3906 22.1875 11.75
Q26.2656 6.10938 33.4062 6.10938
Q40.5312 6.10938 44.6094 11.75
Q48.6875 17.3906 48.6875 27.2969" id="DejaVuSans-70"/>
     <path d="
M9.8125 72.9062
L19.6719 72.9062
L19.6719 0
L9.8125 0
z
" id="DejaVuSans-49"/>
     <path d="
M44.2812 53.0781
L44.2812 44.5781
Q40.4844 46.5312 36.375 47.5
Q32.2812 48.4844 27.875 48.4844
Q21.1875 48.4844 17.8438 46.4375
Q14.5 44.3906 14.5 40.2812
Q14.5 37.1562 16.8906 35.375
Q19.2812 33.5938 26.5156 31.9844
L29.5938 31.2969
Q39.1562 29.25 43.1875 25.5156
Q47.2188 21.7812 47.2188 15.0938
Q47.2188 7.46875 41.1875 3.01562
Q35.1562 -1.42188 24.6094 -1.42188
Q20.2188 -1.42188 15.4531 -0.5625
Q10.6875 0.296875 5.42188 2
L5.42188 11.2812
Q10.4062 8.6875 15.2344 7.39062
Q20.0625 6.10938 24.8125 6.10938
Q31.1562 6.10938 34.5625 8.28125
Q37.9844 10.4531 37.9844 14.4062
Q37.9844 18.0625 35.5156 20.0156
Q33.0625 21.9688 24.7031 23.7812
L21.5781 24.5156
Q13.2344 26.2656 9.51562 29.9062
Q5.8125 33.5469 5.8125 39.8906
Q5.8125 47.6094 11.2812 51.7969
Q16.75 56 26.8125 56
Q31.7812 56 36.1719 55.2656
Q40.5781 54.5469 44.2812 53.0781" id="DejaVuSans-73"/>
     <path d="
M11.7188 12.4062
L22.0156 12.4062
L22.0156 4
L14.0156 -11.625
L7.71875 -11.625
L11.7188 4
z
" id="DejaVuSans-2c"/>
     <path d="
M30.6094 48.3906
Q23.3906 48.3906 19.1875 42.75
Q14.9844 37.1094 14.9844 27.2969
Q14.9844 17.4844 19.1562 11.8438
Q23.3438 6.20312 30.6094 6.20312
Q37.7969 6.20312 41.9844 11.8594
Q46.1875 17.5312 46.1875 27.2969
Q46.1875 37.0156 41.9844 42.7031
Q37.7969 48.3906 30.6094 48.3906
M30.6094 56
Q42.3281 56 49.0156 48.375
Q55.7188 40.7656 55.7188 27.2969
Q55.7188 13.875 49.0156 6.21875
Q42.3281 -1.42188 30.6094 -1.42188
Q18.8438 -1.42188 12.1719 6.21875
Q5.51562 13.875 5.51562 27.2969
Q5.51562 40.7656 12.1719 48.375
Q18.8438 56 30.6094 56" id="DejaVuSans-6f"/>
     <path d="
M4.20312 54.6875
L13.1875 54.6875
L24.4219 12.0156
L35.5938 54.6875
L46.1875 54.6875
L57.4219 12.0156
L68.6094 54.6875
L77.5938 54.6875
L63.2812 0
L52.6875 0
L40.9219 44.8281
L29.1094 0
L18.5 0
z
" id="DejaVuSans-77"/>
     <path d="
M30.6094 48.3906
Q23.3906 48.3906 19.1875 42.75
Q14.9844 37.1094 14.9844 27.2969
Q14.9844 17.4844 19.1562 11.8438
Q23.3438 6.20312 30.6094 6.20312
Q37.7969 6.20312 41.9844 11.8594
Q46.1875 17.5312 46.1875 27.2969
Q46.1875 37.0156 41.9844 42.7031
Q37.7969 48.3906 30.6094 48.3906
M30.6094 56
Q42.3281 56 49.0156 48.375
Q55.7188 40.7656 55.7188 27.2969
Q55.7188 13.875 49.0156 6.21875
Q42.3281 -1.42188 30.6094 -1.42188
Q18.8438 -1.42188 12.1719 6.21875
Q5.51562 13.875 5.51562 27.2969
Q5.51562 40.7656 12.1719 48.375
Q18.8438 56 30.6094 56
M35.2188 75.7812
L45.125 75.7812
L45.125 65.9219
L35.2188 65.9219
z

M16.125 75.7812
L26.0312 75.7812
L26.0312 65.9219
L16.125 65.9219
z
" id="DejaVuSans-f6"/>
     <path d="
M45.4062 27.9844
Q45.4062 37.75 41.375 43.1094
Q37.3594 48.4844 30.0781 48.4844
Q22.8594 48.4844 18.8281 43.1094
Q14.7969 37.75 14.7969 27.9844
Q14.7969 18.2656 18.8281 12.8906
Q22.8594 7.51562 30.0781 7.51562
Q37.3594 7.51562 41.375 12.8906
Q45.4062 18.2656 45.4062 27.9844
M54.3906 6.78125
Q54.3906 -7.17188 48.1875 -13.9844
Q42 -20.7969 29.2031 -20.7969
Q24.4688 -20.7969 20.2656 -20.0938
Q16.0625 -19.3906 12.1094 -17.9219
L12.1094 -9.1875
Q16.0625 -11.3281 19.9219 -12.3438
Q23.7812 -13.375 27.7812 -13.375
Q36.625 -13.375 41.0156 -8.76562
Q45.4062 -4.15625 45.4062 5.17188
L45.4062 9.625
Q42.625 4.78125 38.2812 2.39062
Q33.9375 0 27.875 0
Q17.8281 0 11.6719 7.65625
Q5.51562 15.3281 5.51562 27.9844
Q5.51562 40.6719 11.6719 48.3281
Q17.8281 56 27.875 56
Q33.9375 56 38.2812 53.6094
Q42.625 51.2188 45.4062 46.3906
L45.4062 54.6875
L54.3906 54.6875
z
" id="DejaVuSans-67"/>
    </defs>
    <g transform="translate(14.14125 23.90175)scale(0.144 -0.144)">
     <use xlink:href="#DejaVuSans-49"/>
     <use x="29.4921875" xlink:href="#DejaVuSans-73"/>
     <use x="81.591796875" xlink:href="#DejaVuSans-74"/>
     <use x="120.80078125" xlink:href="#DejaVuSans-20"/>
     <use x="152.587890625" xlink:href="#DejaVuSans-65"/>
     <use x="214.111328125" xlink:href="#DejaVuSans-73"/>
     <use x="266.2109375" xlink:href="#DejaVuSans-20"/>
     <use x="297.998046875" xlink:href="#DejaVuSans-64"/>
     <use x="361.474609375" xlink:href="#DejaVuSans-69"/>
     <use x="389.2578125" xlink:href="#DejaVuSans-72"/>
     <use x="430.37109375" xlink:href="#DejaVuSans-20"/>
     <use x="462.158203125" xlink:href="#DejaVuSans-70"/>
     <use x="525.634765625" xlink:href="#DejaVuSans-65"/>
     <use x="587.158203125" xlink:href="#DejaVuSans-72"/>
     <use x="628.271484375" xlink:href="#DejaVuSans-73"/>
     <use x="680.37109375" xlink:href="#DejaVuSans-f6"/>
     <use x="741.552734375" xlink:href="#DejaVuSans-6e"/>
     <use x="804.931640625" xlink:href="#DejaVuSans-6c"/>
     <use x="832.71484375" xlink:href="#DejaVuSans-69"/>
     <use x="860.498046875" xlink:href="#DejaVuSans-63"/>
     <use x="915.478515625" xlink:href="#DejaVuSans-68"/>
     <use x="978.857421875" xlink:href="#DejaVuSans-20"/>
     <use x="1010.64453125" xlink:href="#DejaVuSans-77"/>
     <use x="1092.431640625" xlink:href="#DejaVuSans-69"/>
     <use x="1120.21484375" xlink:href="#DejaVuSans-63"/>
     <use x="1175.1953125" xlink:href="#DejaVuSans-68"/>
     <use x="1238.57421875" xlink:href="#DejaVuSans-74"/>
     <use x="1277.783203125" xlink:href="#DejaVuSans-69"/>
     <use x="1305.56640625" xlink:href="#DejaVuSans-67"/>
     <use x="1369.04296875" xlink:href="#DejaVuSans-2c"/>
     <use x="1400.830078125" xlink:href="#DejaVuSans-20"/>
     <use x="1432.6171875" xlink:href="#DejaVuSans-64"/>
     <use x="1496.09375" xlink:href="#DejaVuSans-61"/>
     <use x="1557.373046875" xlink:href="#DejaVuSans-73"/>
     <use x="1609.47265625" xlink:href="#DejaVuSans-73"/>
     <use x="1661.572265625" xlink:href="#DejaVuSans-20"/>
     <use x="1693.359375" xlink:href="#DejaVuSans-56"/>
     <use x="1759.517578125" xlink:href="#DejaVuSans-69"/>
     <use x="1787.30078125" xlink:href="#DejaVuSans-64"/>
     <use x="1850.77734375" xlink:href="#DejaVuSans-65"/>
     <use x="1912.30078125" xlink:href="#DejaVuSans-6f"/>
     <use x="1973.482421875" xlink:href="#DejaVuSans-73"/>
     <use x="2025.58203125" xlink:href="#DejaVuSans-70"/>
     <use x="2089.05859375" xlink:href="#DejaVuSans-69"/>
     <use x="2116.841796875" xlink:href="#DejaVuSans-65"/>
     <use x="2178.365234375" xlink:href="#DejaVuSans-6c"/>
     <use x="2206.1484375" xlink:href="#DejaVuSans-65"/>
     <use x="2267.671875" xlink:href="#DejaVuSans-20"/>
     <use x="2299.458984375" xlink:href="#DejaVuSans-64"/>
     <use x="2362.935546875" xlink:href="#DejaVuSans-65"/>
     <use x="2424.458984375" xlink:href="#DejaVuSans-75"/>
     <use x="2487.837890625" xlink:href="#DejaVuSans-74"/>
     <use x="2527.046875" xlink:href="#DejaVuSans-6c"/>
     <use x="2554.830078125" xlink:href="#DejaVuSans-69"/>
     <use x="2582.61328125" xlink:href="#DejaVuSans-63"/>
     <use x="2637.59375" xlink:href="#DejaVuSans-68"/>
     <use x="2700.97265625" xlink:href="#DejaVuSans-65"/>
     <use x="2762.49609375" xlink:href="#DejaVuSans-72"/>
    </g>
    <!-- als bisher "offiziell" als Kunst anerkannt werden? -->
    <defs>
     <path d="
M17.9219 72.9062
L17.9219 45.7969
L9.625 45.7969
L9.625 72.9062
z

M36.375 72.9062
L36.375 45.7969
L28.0781 45.7969
L28.0781 72.9062
z
" id="DejaVuSans-22"/>
     <path d="
M5.51562 54.6875
L48.1875 54.6875
L48.1875 46.4844
L14.4062 7.17188
L48.1875 7.17188
L48.1875 0
L4.29688 0
L4.29688 8.20312
L38.0938 47.5156
L5.51562 47.5156
z
" id="DejaVuSans-7a"/>
     <path d="
M48.6875 27.2969
Q48.6875 37.2031 44.6094 42.8438
Q40.5312 48.4844 33.4062 48.4844
Q26.2656 48.4844 22.1875 42.8438
Q18.1094 37.2031 18.1094 27.2969
Q18.1094 17.3906 22.1875 11.75
Q26.2656 6.10938 33.4062 6.10938
Q40.5312 6.10938 44.6094 11.75
Q48.6875 17.3906 48.6875 27.2969
M18.1094 46.3906
Q20.9531 51.2656 25.2656 53.625
Q29.5938 56 35.5938 56
Q45.5625 56 51.7812 48.0938
Q58.0156 40.1875 58.0156 27.2969
Q58.0156 14.4062 51.7812 6.48438
Q45.5625 -1.42188 35.5938 -1.42188
Q29.5938 -1.42188 25.2656 0.953125
Q20.9531 3.32812 18.1094 8.20312
L18.1094 0
L9.07812 0
L9.07812 75.9844
L18.1094 75.9844
z
" id="DejaVuSans-62"/>
     <path d="
M19.0938 12.4062
L29 12.4062
L29 0
L19.0938 0
z

M28.7188 19.5781
L19.3906 19.5781
L19.3906 27.0938
Q19.3906 32.0312 20.75 35.2031
Q22.125 38.375 26.5156 42.5781
L30.9062 46.9219
Q33.6875 49.5156 34.9375 51.8125
Q36.1875 54.1094 36.1875 56.5
Q36.1875 60.8438 32.9844 63.5312
Q29.7812 66.2188 24.5156 66.2188
Q20.6562 66.2188 16.2812 64.5
Q11.9219 62.7969 7.17188 59.5156
L7.17188 68.7031
Q11.7656 71.4844 16.4688 72.8438
Q21.1875 74.2188 26.2188 74.2188
Q35.2031 74.2188 40.6406 69.4844
Q46.0938 64.75 46.0938 56.9844
Q46.0938 53.2656 44.3281 49.9219
Q42.5781 46.5781 38.1875 42.3906
L33.8906 38.1875
Q31.5938 35.8906 30.6406 34.5938
Q29.6875 33.2969 29.2969 32.0781
Q29 31.0625 28.8594 29.5938
Q28.7188 28.125 28.7188 25.5938
z
" id="DejaVuSans-3f"/>
     <path d="
M9.8125 72.9062
L19.6719 72.9062
L19.6719 42.0938
L52.3906 72.9062
L65.0938 72.9062
L28.9062 38.9219
L67.6719 0
L54.6875 0
L19.6719 35.1094
L19.6719 0
L9.8125 0
z
" id="DejaVuSans-4b"/>
    </defs>
    <g transform="translate(40.494375 40.0266)scale(0.144 -0.144)">
     <use xlink:href="#DejaVuSans-61"/>
     <use x="61.279296875" xlink:href="#DejaVuSans-6c"/>
     <use x="89.0625" xlink:href="#DejaVuSans-73"/>
     <use x="141.162109375" xlink:href="#DejaVuSans-20"/>
     <use x="172.94921875" xlink:href="#DejaVuSans-62"/>
     <use x="236.42578125" xlink:href="#DejaVuSans-69"/>
     <use x="264.208984375" xlink:href="#DejaVuSans-73"/>
     <use x="316.30859375" xlink:href="#DejaVuSans-68"/>
     <use x="379.6875" xlink:href="#DejaVuSans-65"/>
     <use x="441.2109375" xlink:href="#DejaVuSans-72"/>
     <use x="482.32421875" xlink:href="#DejaVuSans-20"/>
     <use x="514.111328125" xlink:href="#DejaVuSans-22"/>
     <use x="560.107421875" xlink:href="#DejaVuSans-6f"/>
     <use x="621.2890625" xlink:href="#DejaVuSans-66"/>
     <use x="656.494140625" xlink:href="#DejaVuSans-66"/>
     <use x="691.69921875" xlink:href="#DejaVuSans-69"/>
     <use x="719.482421875" xlink:href="#DejaVuSans-7a"/>
     <use x="771.97265625" xlink:href="#DejaVuSans-69"/>
     <use x="799.755859375" xlink:href="#DejaVuSans-65"/>
     <use x="861.279296875" xlink:href="#DejaVuSans-6c"/>
     <use x="889.0625" xlink:href="#DejaVuSans-6c"/>
     <use x="916.845703125" xlink:href="#DejaVuSans-22"/>
     <use x="962.841796875" xlink:href="#DejaVuSans-20"/>
     <use x="994.62890625" xlink:href="#DejaVuSans-61"/>
     <use x="1055.908203125" xlink:href="#DejaVuSans-6c"/>
     <use x="1083.69140625" xlink:href="#DejaVuSans-73"/>
     <use x="1135.791015625" xlink:href="#DejaVuSans-20"/>
     <use x="1167.578125" xlink:href="#DejaVuSans-4b"/>
     <use x="1228.154296875" xlink:href="#DejaVuSans-75"/>
     <use x="1291.533203125" xlink:href="#DejaVuSans-6e"/>
     <use x="1354.912109375" xlink:href="#DejaVuSans-73"/>
     <use x="1407.01171875" xlink:href="#DejaVuSans-74"/>
     <use x="1446.220703125" xlink:href="#DejaVuSans-20"/>
     <use x="1478.0078125" xlink:href="#DejaVuSans-61"/>
     <use x="1539.287109375" xlink:href="#DejaVuSans-6e"/>
     <use x="1602.666015625" xlink:href="#DejaVuSans-65"/>
     <use x="1664.189453125" xlink:href="#DejaVuSans-72"/>
     <use x="1705.302734375" xlink:href="#DejaVuSans-6b"/>
     <use x="1761.462890625" xlink:href="#DejaVuSans-61"/>
     <use x="1822.7421875" xlink:href="#DejaVuSans-6e"/>
     <use x="1886.12109375" xlink:href="#DejaVuSans-6e"/>
     <use x="1949.5" xlink:href="#DejaVuSans-74"/>
     <use x="1988.708984375" xlink:href="#DejaVuSans-20"/>
     <use x="2020.49609375" xlink:href="#DejaVuSans-77"/>
     <use x="2102.283203125" xlink:href="#DejaVuSans-65"/>
     <use x="2163.806640625" xlink:href="#DejaVuSans-72"/>
     <use x="2203.169921875" xlink:href="#DejaVuSans-64"/>
     <use x="2266.646484375" xlink:href="#DejaVuSans-65"/>
     <use x="2328.169921875" xlink:href="#DejaVuSans-6e"/>
     <use x="2391.548828125" xlink:href="#DejaVuSans-3f"/>
    </g>
   </g>
  </g>
 </g>
</svg>
