<?xml version="1.0" encoding="utf-8" standalone="no"?>
<!DOCTYPE svg PUBLIC "-//W3C//DTD SVG 1.1//EN"
  "http://www.w3.org/Graphics/SVG/1.1/DTD/svg11.dtd">
<!-- Created with matplotlib (http://matplotlib.org/) -->
<svg height="432pt" version="1.1" viewBox="0 0 432 432" width="432pt" xmlns="http://www.w3.org/2000/svg" xmlns:xlink="http://www.w3.org/1999/xlink">
 <defs>
  <style type="text/css">
*{stroke-linecap:butt;stroke-linejoin:round;}
  </style>
 </defs>
 <g id="figure_1">
  <g id="patch_1">
   <path d="
M0 432
L432 432
L432 0
L0 0
z
" style="fill:#ffffff;"/>
  </g>
  <g id="axes_1">
   <g id="patch_2">
    <path d="
M378.432 232.033
C378.432 215.198 375.347 198.483 369.306 182.594
C363.266 166.704 354.356 151.867 342.954 138.709
C331.552 125.551 317.819 114.26 302.337 105.311
C286.854 96.3628 269.842 89.8854 252.018 86.1523
C234.194 82.4192 215.814 81.4838 197.652 83.3854
C179.491 85.2871 161.807 89.9987 145.348 97.3214
C128.889 104.644 113.89 114.473 100.983 126.394
C88.076 138.315 77.4459 152.158 69.5415 167.337
C61.637 182.517 56.5708 198.817 54.5569 215.55
C52.543 232.283 53.61 249.209 57.713 265.615
C61.8159 282.02 68.8962 297.671 78.655 311.906
C88.4138 326.141 100.712 338.758 115.03 349.223
C129.348 359.688 145.482 367.852 162.75 373.371
C180.019 378.89 198.175 381.685 216.454 381.638
C234.733 381.591 252.872 378.703 270.107 373.095
C287.341 367.487 303.425 359.24 317.68 348.701
L216 232.033
L378.432 232.033
z
" style="fill:#0000ff;stroke:#000000;stroke-linejoin:miter;"/>
   </g>
   <g id="patch_3">
    <path d="
M317.68 348.701
C336.641 334.683 351.944 316.921 362.459 296.729
C372.973 276.538 378.432 254.427 378.432 232.033
L216 232.033
L317.68 348.701
z
" style="fill:#008000;stroke:#000000;stroke-linejoin:miter;"/>
   </g>
   <g id="matplotlib.axis_1"/>
   <g id="matplotlib.axis_2"/>
   <g id="text_1">
    <!-- Ja -->
    <defs>
     <path d="
M9.8125 72.9062
L19.6719 72.9062
L19.6719 5.07812
Q19.6719 -8.10938 14.6719 -14.0625
Q9.67188 -20.0156 -1.42188 -20.0156
L-5.17188 -20.0156
L-5.17188 -11.7188
L-2.09375 -11.7188
Q4.4375 -11.7188 7.125 -8.04688
Q9.8125 -4.39062 9.8125 5.07812
z
" id="DejaVuSans-4a"/>
     <path d="
M34.2812 27.4844
Q23.3906 27.4844 19.1875 25
Q14.9844 22.5156 14.9844 16.5
Q14.9844 11.7188 18.1406 8.90625
Q21.2969 6.10938 26.7031 6.10938
Q34.1875 6.10938 38.7031 11.4062
Q43.2188 16.7031 43.2188 25.4844
L43.2188 27.4844
z

M52.2031 31.2031
L52.2031 0
L43.2188 0
L43.2188 8.29688
Q40.1406 3.32812 35.5469 0.953125
Q30.9531 -1.42188 24.3125 -1.42188
Q15.9219 -1.42188 10.9531 3.29688
Q6 8.01562 6 15.9219
Q6 25.1406 12.1719 29.8281
Q18.3594 34.5156 30.6094 34.5156
L43.2188 34.5156
L43.2188 35.4062
Q43.2188 41.6094 39.1406 45
Q35.0625 48.3906 27.6875 48.3906
Q23 48.3906 18.5469 47.2656
Q14.1094 46.1406 10.0156 43.8906
L10.0156 52.2031
Q14.9375 54.1094 19.5781 55.0469
Q24.2188 56 28.6094 56
Q40.4844 56 46.3438 49.8438
Q52.2031 43.7031 52.2031 31.2031" id="DejaVuSans-61"/>
    </defs>
    <g transform="translate(44.4705977686 164.178976471)scale(0.12 -0.12)">
     <use xlink:href="#DejaVuSans-4a"/>
     <use x="29.4921875" xlink:href="#DejaVuSans-61"/>
    </g>
   </g>
   <g id="text_2">
    <!-- Nein -->
    <defs>
     <path d="
M9.8125 72.9062
L23.0938 72.9062
L55.4219 11.9219
L55.4219 72.9062
L64.9844 72.9062
L64.9844 0
L51.7031 0
L19.3906 60.9844
L19.3906 0
L9.8125 0
z
" id="DejaVuSans-4e"/>
     <path d="
M56.2031 29.5938
L56.2031 25.2031
L14.8906 25.2031
Q15.4844 15.9219 20.4844 11.0625
Q25.4844 6.20312 34.4219 6.20312
Q39.5938 6.20312 44.4531 7.46875
Q49.3125 8.73438 54.1094 11.2812
L54.1094 2.78125
Q49.2656 0.734375 44.1875 -0.34375
Q39.1094 -1.42188 33.8906 -1.42188
Q20.7969 -1.42188 13.1562 6.1875
Q5.51562 13.8125 5.51562 26.8125
Q5.51562 40.2344 12.7656 48.1094
Q20.0156 56 32.3281 56
Q43.3594 56 49.7812 48.8906
Q56.2031 41.7969 56.2031 29.5938
M47.2188 32.2344
Q47.125 39.5938 43.0938 43.9844
Q39.0625 48.3906 32.4219 48.3906
Q24.9062 48.3906 20.3906 44.1406
Q15.875 39.8906 15.1875 32.1719
z
" id="DejaVuSans-65"/>
     <path d="
M9.42188 54.6875
L18.4062 54.6875
L18.4062 0
L9.42188 0
z

M9.42188 75.9844
L18.4062 75.9844
L18.4062 64.5938
L9.42188 64.5938
z
" id="DejaVuSans-69"/>
     <path d="
M54.8906 33.0156
L54.8906 0
L45.9062 0
L45.9062 32.7188
Q45.9062 40.4844 42.875 44.3281
Q39.8438 48.1875 33.7969 48.1875
Q26.5156 48.1875 22.3125 43.5469
Q18.1094 38.9219 18.1094 30.9062
L18.1094 0
L9.07812 0
L9.07812 54.6875
L18.1094 54.6875
L18.1094 46.1875
Q21.3438 51.125 25.7031 53.5625
Q30.0781 56 35.7969 56
Q45.2188 56 50.0469 50.1719
Q54.8906 44.3438 54.8906 33.0156" id="DejaVuSans-6e"/>
    </defs>
    <g transform="translate(377.104398614 306.510130475)scale(0.12 -0.12)">
     <use xlink:href="#DejaVuSans-4e"/>
     <use x="74.8046875" xlink:href="#DejaVuSans-65"/>
     <use x="136.328125" xlink:href="#DejaVuSans-69"/>
     <use x="164.111328125" xlink:href="#DejaVuSans-6e"/>
    </g>
   </g>
   <g id="text_3">
    <!-- Gibt es Gründe, weshalb du eine Anerkennung -->
    <defs>
     <path d="
M9.42188 75.9844
L18.4062 75.9844
L18.4062 0
L9.42188 0
z
" id="DejaVuSans-6c"/>
     <path d="
M11.7188 12.4062
L22.0156 12.4062
L22.0156 4
L14.0156 -11.625
L7.71875 -11.625
L11.7188 4
z
" id="DejaVuSans-2c"/>
     <path d="
M54.8906 33.0156
L54.8906 0
L45.9062 0
L45.9062 32.7188
Q45.9062 40.4844 42.875 44.3281
Q39.8438 48.1875 33.7969 48.1875
Q26.5156 48.1875 22.3125 43.5469
Q18.1094 38.9219 18.1094 30.9062
L18.1094 0
L9.07812 0
L9.07812 75.9844
L18.1094 75.9844
L18.1094 46.1875
Q21.3438 51.125 25.7031 53.5625
Q30.0781 56 35.7969 56
Q45.2188 56 50.0469 50.1719
Q54.8906 44.3438 54.8906 33.0156" id="DejaVuSans-68"/>
     <path d="
M9.07812 75.9844
L18.1094 75.9844
L18.1094 31.1094
L44.9219 54.6875
L56.3906 54.6875
L27.3906 29.1094
L57.625 0
L45.9062 0
L18.1094 26.7031
L18.1094 0
L9.07812 0
z
" id="DejaVuSans-6b"/>
     <path d="
M59.5156 10.4062
L59.5156 29.9844
L43.4062 29.9844
L43.4062 38.0938
L69.2812 38.0938
L69.2812 6.78125
Q63.5781 2.73438 56.6875 0.65625
Q49.8125 -1.42188 42 -1.42188
Q24.9062 -1.42188 15.25 8.5625
Q5.60938 18.5625 5.60938 36.375
Q5.60938 54.25 15.25 64.2344
Q24.9062 74.2188 42 74.2188
Q49.125 74.2188 55.5469 72.4531
Q61.9688 70.7031 67.3906 67.2812
L67.3906 56.7812
Q61.9219 61.4219 55.7656 63.7656
Q49.6094 66.1094 42.8281 66.1094
Q29.4375 66.1094 22.7188 58.6406
Q16.0156 51.1719 16.0156 36.375
Q16.0156 21.625 22.7188 14.1562
Q29.4375 6.6875 42.8281 6.6875
Q48.0469 6.6875 52.1406 7.59375
Q56.25 8.5 59.5156 10.4062" id="DejaVuSans-47"/>
     <path d="
M8.5 21.5781
L8.5 54.6875
L17.4844 54.6875
L17.4844 21.9219
Q17.4844 14.1562 20.5 10.2656
Q23.5312 6.39062 29.5938 6.39062
Q36.8594 6.39062 41.0781 11.0312
Q45.3125 15.6719 45.3125 23.6875
L45.3125 54.6875
L54.2969 54.6875
L54.2969 0
L45.3125 0
L45.3125 8.40625
Q42.0469 3.42188 37.7188 1
Q33.4062 -1.42188 27.6875 -1.42188
Q18.2656 -1.42188 13.375 4.4375
Q8.5 10.2969 8.5 21.5781
M31.1094 56
z
" id="DejaVuSans-75"/>
     <path d="
M48.6875 27.2969
Q48.6875 37.2031 44.6094 42.8438
Q40.5312 48.4844 33.4062 48.4844
Q26.2656 48.4844 22.1875 42.8438
Q18.1094 37.2031 18.1094 27.2969
Q18.1094 17.3906 22.1875 11.75
Q26.2656 6.10938 33.4062 6.10938
Q40.5312 6.10938 44.6094 11.75
Q48.6875 17.3906 48.6875 27.2969
M18.1094 46.3906
Q20.9531 51.2656 25.2656 53.625
Q29.5938 56 35.5938 56
Q45.5625 56 51.7812 48.0938
Q58.0156 40.1875 58.0156 27.2969
Q58.0156 14.4062 51.7812 6.48438
Q45.5625 -1.42188 35.5938 -1.42188
Q29.5938 -1.42188 25.2656 0.953125
Q20.9531 3.32812 18.1094 8.20312
L18.1094 0
L9.07812 0
L9.07812 75.9844
L18.1094 75.9844
z
" id="DejaVuSans-62"/>
     <path d="
M8.5 21.5781
L8.5 54.6875
L17.4844 54.6875
L17.4844 21.9219
Q17.4844 14.1562 20.5 10.2656
Q23.5312 6.39062 29.5938 6.39062
Q36.8594 6.39062 41.0781 11.0312
Q45.3125 15.6719 45.3125 23.6875
L45.3125 54.6875
L54.2969 54.6875
L54.2969 0
L45.3125 0
L45.3125 8.40625
Q42.0469 3.42188 37.7188 1
Q33.4062 -1.42188 27.6875 -1.42188
Q18.2656 -1.42188 13.375 4.4375
Q8.5 10.2969 8.5 21.5781
M31.1094 56
z

M35.5938 75.7812
L45.5 75.7812
L45.5 65.9219
L35.5938 65.9219
z

M16.5 75.7812
L26.4062 75.7812
L26.4062 65.9219
L16.5 65.9219
z
" id="DejaVuSans-fc"/>
     <path d="
M44.2812 53.0781
L44.2812 44.5781
Q40.4844 46.5312 36.375 47.5
Q32.2812 48.4844 27.875 48.4844
Q21.1875 48.4844 17.8438 46.4375
Q14.5 44.3906 14.5 40.2812
Q14.5 37.1562 16.8906 35.375
Q19.2812 33.5938 26.5156 31.9844
L29.5938 31.2969
Q39.1562 29.25 43.1875 25.5156
Q47.2188 21.7812 47.2188 15.0938
Q47.2188 7.46875 41.1875 3.01562
Q35.1562 -1.42188 24.6094 -1.42188
Q20.2188 -1.42188 15.4531 -0.5625
Q10.6875 0.296875 5.42188 2
L5.42188 11.2812
Q10.4062 8.6875 15.2344 7.39062
Q20.0625 6.10938 24.8125 6.10938
Q31.1562 6.10938 34.5625 8.28125
Q37.9844 10.4531 37.9844 14.4062
Q37.9844 18.0625 35.5156 20.0156
Q33.0625 21.9688 24.7031 23.7812
L21.5781 24.5156
Q13.2344 26.2656 9.51562 29.9062
Q5.8125 33.5469 5.8125 39.8906
Q5.8125 47.6094 11.2812 51.7969
Q16.75 56 26.8125 56
Q31.7812 56 36.1719 55.2656
Q40.5781 54.5469 44.2812 53.0781" id="DejaVuSans-73"/>
     <path d="
M41.1094 46.2969
Q39.5938 47.1719 37.8125 47.5781
Q36.0312 48 33.8906 48
Q26.2656 48 22.1875 43.0469
Q18.1094 38.0938 18.1094 28.8125
L18.1094 0
L9.07812 0
L9.07812 54.6875
L18.1094 54.6875
L18.1094 46.1875
Q20.9531 51.1719 25.4844 53.5781
Q30.0312 56 36.5312 56
Q37.4531 56 38.5781 55.875
Q39.7031 55.7656 41.0625 55.5156
z
" id="DejaVuSans-72"/>
     <path d="
M4.20312 54.6875
L13.1875 54.6875
L24.4219 12.0156
L35.5938 54.6875
L46.1875 54.6875
L57.4219 12.0156
L68.6094 54.6875
L77.5938 54.6875
L63.2812 0
L52.6875 0
L40.9219 44.8281
L29.1094 0
L18.5 0
z
" id="DejaVuSans-77"/>
     <path id="DejaVuSans-20"/>
     <path d="
M34.1875 63.1875
L20.7969 26.9062
L47.6094 26.9062
z

M28.6094 72.9062
L39.7969 72.9062
L67.5781 0
L57.3281 0
L50.6875 18.7031
L17.8281 18.7031
L11.1875 0
L0.78125 0
z
" id="DejaVuSans-41"/>
     <path d="
M45.4062 46.3906
L45.4062 75.9844
L54.3906 75.9844
L54.3906 0
L45.4062 0
L45.4062 8.20312
Q42.5781 3.32812 38.25 0.953125
Q33.9375 -1.42188 27.875 -1.42188
Q17.9688 -1.42188 11.7344 6.48438
Q5.51562 14.4062 5.51562 27.2969
Q5.51562 40.1875 11.7344 48.0938
Q17.9688 56 27.875 56
Q33.9375 56 38.25 53.625
Q42.5781 51.2656 45.4062 46.3906
M14.7969 27.2969
Q14.7969 17.3906 18.875 11.75
Q22.9531 6.10938 30.0781 6.10938
Q37.2031 6.10938 41.2969 11.75
Q45.4062 17.3906 45.4062 27.2969
Q45.4062 37.2031 41.2969 42.8438
Q37.2031 48.4844 30.0781 48.4844
Q22.9531 48.4844 18.875 42.8438
Q14.7969 37.2031 14.7969 27.2969" id="DejaVuSans-64"/>
     <path d="
M18.3125 70.2188
L18.3125 54.6875
L36.8125 54.6875
L36.8125 47.7031
L18.3125 47.7031
L18.3125 18.0156
Q18.3125 11.3281 20.1406 9.42188
Q21.9688 7.51562 27.5938 7.51562
L36.8125 7.51562
L36.8125 0
L27.5938 0
Q17.1875 0 13.2344 3.875
Q9.28125 7.76562 9.28125 18.0156
L9.28125 47.7031
L2.6875 47.7031
L2.6875 54.6875
L9.28125 54.6875
L9.28125 70.2188
z
" id="DejaVuSans-74"/>
     <path d="
M45.4062 27.9844
Q45.4062 37.75 41.375 43.1094
Q37.3594 48.4844 30.0781 48.4844
Q22.8594 48.4844 18.8281 43.1094
Q14.7969 37.75 14.7969 27.9844
Q14.7969 18.2656 18.8281 12.8906
Q22.8594 7.51562 30.0781 7.51562
Q37.3594 7.51562 41.375 12.8906
Q45.4062 18.2656 45.4062 27.9844
M54.3906 6.78125
Q54.3906 -7.17188 48.1875 -13.9844
Q42 -20.7969 29.2031 -20.7969
Q24.4688 -20.7969 20.2656 -20.0938
Q16.0625 -19.3906 12.1094 -17.9219
L12.1094 -9.1875
Q16.0625 -11.3281 19.9219 -12.3438
Q23.7812 -13.375 27.7812 -13.375
Q36.625 -13.375 41.0156 -8.76562
Q45.4062 -4.15625 45.4062 5.17188
L45.4062 9.625
Q42.625 4.78125 38.2812 2.39062
Q33.9375 0 27.875 0
Q17.8281 0 11.6719 7.65625
Q5.51562 15.3281 5.51562 27.9844
Q5.51562 40.6719 11.6719 48.3281
Q17.8281 56 27.875 56
Q33.9375 56 38.2812 53.6094
Q42.625 51.2188 45.4062 46.3906
L45.4062 54.6875
L54.3906 54.6875
z
" id="DejaVuSans-67"/>
    </defs>
    <g transform="translate(48.6045 23.90175)scale(0.144 -0.144)">
     <use xlink:href="#DejaVuSans-47"/>
     <use x="77.490234375" xlink:href="#DejaVuSans-69"/>
     <use x="105.2734375" xlink:href="#DejaVuSans-62"/>
     <use x="168.75" xlink:href="#DejaVuSans-74"/>
     <use x="207.958984375" xlink:href="#DejaVuSans-20"/>
     <use x="239.74609375" xlink:href="#DejaVuSans-65"/>
     <use x="301.26953125" xlink:href="#DejaVuSans-73"/>
     <use x="353.369140625" xlink:href="#DejaVuSans-20"/>
     <use x="385.15625" xlink:href="#DejaVuSans-47"/>
     <use x="462.646484375" xlink:href="#DejaVuSans-72"/>
     <use x="503.759765625" xlink:href="#DejaVuSans-fc"/>
     <use x="567.138671875" xlink:href="#DejaVuSans-6e"/>
     <use x="630.517578125" xlink:href="#DejaVuSans-64"/>
     <use x="693.994140625" xlink:href="#DejaVuSans-65"/>
     <use x="755.517578125" xlink:href="#DejaVuSans-2c"/>
     <use x="787.3046875" xlink:href="#DejaVuSans-20"/>
     <use x="819.091796875" xlink:href="#DejaVuSans-77"/>
     <use x="900.87890625" xlink:href="#DejaVuSans-65"/>
     <use x="962.40234375" xlink:href="#DejaVuSans-73"/>
     <use x="1014.501953125" xlink:href="#DejaVuSans-68"/>
     <use x="1077.880859375" xlink:href="#DejaVuSans-61"/>
     <use x="1139.16015625" xlink:href="#DejaVuSans-6c"/>
     <use x="1166.943359375" xlink:href="#DejaVuSans-62"/>
     <use x="1230.419921875" xlink:href="#DejaVuSans-20"/>
     <use x="1262.20703125" xlink:href="#DejaVuSans-64"/>
     <use x="1325.68359375" xlink:href="#DejaVuSans-75"/>
     <use x="1389.0625" xlink:href="#DejaVuSans-20"/>
     <use x="1420.849609375" xlink:href="#DejaVuSans-65"/>
     <use x="1482.373046875" xlink:href="#DejaVuSans-69"/>
     <use x="1510.15625" xlink:href="#DejaVuSans-6e"/>
     <use x="1573.53515625" xlink:href="#DejaVuSans-65"/>
     <use x="1635.05859375" xlink:href="#DejaVuSans-20"/>
     <use x="1666.845703125" xlink:href="#DejaVuSans-41"/>
     <use x="1735.25390625" xlink:href="#DejaVuSans-6e"/>
     <use x="1798.6328125" xlink:href="#DejaVuSans-65"/>
     <use x="1860.15625" xlink:href="#DejaVuSans-72"/>
     <use x="1901.26953125" xlink:href="#DejaVuSans-6b"/>
     <use x="1955.5546875" xlink:href="#DejaVuSans-65"/>
     <use x="2017.078125" xlink:href="#DejaVuSans-6e"/>
     <use x="2080.45703125" xlink:href="#DejaVuSans-6e"/>
     <use x="2143.8359375" xlink:href="#DejaVuSans-75"/>
     <use x="2207.21484375" xlink:href="#DejaVuSans-6e"/>
     <use x="2270.59375" xlink:href="#DejaVuSans-67"/>
    </g>
    <!-- von Videospielen als Kunst befürwortest? -->
    <defs>
     <path d="
M18.1094 8.20312
L18.1094 -20.7969
L9.07812 -20.7969
L9.07812 54.6875
L18.1094 54.6875
L18.1094 46.3906
Q20.9531 51.2656 25.2656 53.625
Q29.5938 56 35.5938 56
Q45.5625 56 51.7812 48.0938
Q58.0156 40.1875 58.0156 27.2969
Q58.0156 14.4062 51.7812 6.48438
Q45.5625 -1.42188 35.5938 -1.42188
Q29.5938 -1.42188 25.2656 0.953125
Q20.9531 3.32812 18.1094 8.20312
M48.6875 27.2969
Q48.6875 37.2031 44.6094 42.8438
Q40.5312 48.4844 33.4062 48.4844
Q26.2656 48.4844 22.1875 42.8438
Q18.1094 37.2031 18.1094 27.2969
Q18.1094 17.3906 22.1875 11.75
Q26.2656 6.10938 33.4062 6.10938
Q40.5312 6.10938 44.6094 11.75
Q48.6875 17.3906 48.6875 27.2969" id="DejaVuSans-70"/>
     <path d="
M28.6094 0
L0.78125 72.9062
L11.0781 72.9062
L34.1875 11.5312
L57.3281 72.9062
L67.5781 72.9062
L39.7969 0
z
" id="DejaVuSans-56"/>
     <path d="
M19.0938 12.4062
L29 12.4062
L29 0
L19.0938 0
z

M28.7188 19.5781
L19.3906 19.5781
L19.3906 27.0938
Q19.3906 32.0312 20.75 35.2031
Q22.125 38.375 26.5156 42.5781
L30.9062 46.9219
Q33.6875 49.5156 34.9375 51.8125
Q36.1875 54.1094 36.1875 56.5
Q36.1875 60.8438 32.9844 63.5312
Q29.7812 66.2188 24.5156 66.2188
Q20.6562 66.2188 16.2812 64.5
Q11.9219 62.7969 7.17188 59.5156
L7.17188 68.7031
Q11.7656 71.4844 16.4688 72.8438
Q21.1875 74.2188 26.2188 74.2188
Q35.2031 74.2188 40.6406 69.4844
Q46.0938 64.75 46.0938 56.9844
Q46.0938 53.2656 44.3281 49.9219
Q42.5781 46.5781 38.1875 42.3906
L33.8906 38.1875
Q31.5938 35.8906 30.6406 34.5938
Q29.6875 33.2969 29.2969 32.0781
Q29 31.0625 28.8594 29.5938
Q28.7188 28.125 28.7188 25.5938
z
" id="DejaVuSans-3f"/>
     <path d="
M30.6094 48.3906
Q23.3906 48.3906 19.1875 42.75
Q14.9844 37.1094 14.9844 27.2969
Q14.9844 17.4844 19.1562 11.8438
Q23.3438 6.20312 30.6094 6.20312
Q37.7969 6.20312 41.9844 11.8594
Q46.1875 17.5312 46.1875 27.2969
Q46.1875 37.0156 41.9844 42.7031
Q37.7969 48.3906 30.6094 48.3906
M30.6094 56
Q42.3281 56 49.0156 48.375
Q55.7188 40.7656 55.7188 27.2969
Q55.7188 13.875 49.0156 6.21875
Q42.3281 -1.42188 30.6094 -1.42188
Q18.8438 -1.42188 12.1719 6.21875
Q5.51562 13.875 5.51562 27.2969
Q5.51562 40.7656 12.1719 48.375
Q18.8438 56 30.6094 56" id="DejaVuSans-6f"/>
     <path d="
M37.1094 75.9844
L37.1094 68.5
L28.5156 68.5
Q23.6875 68.5 21.7969 66.5469
Q19.9219 64.5938 19.9219 59.5156
L19.9219 54.6875
L34.7188 54.6875
L34.7188 47.7031
L19.9219 47.7031
L19.9219 0
L10.8906 0
L10.8906 47.7031
L2.29688 47.7031
L2.29688 54.6875
L10.8906 54.6875
L10.8906 58.5
Q10.8906 67.625 15.1406 71.7969
Q19.3906 75.9844 28.6094 75.9844
z
" id="DejaVuSans-66"/>
     <path d="
M2.98438 54.6875
L12.5 54.6875
L29.5938 8.79688
L46.6875 54.6875
L56.2031 54.6875
L35.6875 0
L23.4844 0
z
" id="DejaVuSans-76"/>
     <path d="
M9.8125 72.9062
L19.6719 72.9062
L19.6719 42.0938
L52.3906 72.9062
L65.0938 72.9062
L28.9062 38.9219
L67.6719 0
L54.6875 0
L19.6719 35.1094
L19.6719 0
L9.8125 0
z
" id="DejaVuSans-4b"/>
    </defs>
    <g transform="translate(68.01975 40.0266)scale(0.144 -0.144)">
     <use xlink:href="#DejaVuSans-76"/>
     <use x="59.1796875" xlink:href="#DejaVuSans-6f"/>
     <use x="120.361328125" xlink:href="#DejaVuSans-6e"/>
     <use x="183.740234375" xlink:href="#DejaVuSans-20"/>
     <use x="215.52734375" xlink:href="#DejaVuSans-56"/>
     <use x="281.685546875" xlink:href="#DejaVuSans-69"/>
     <use x="309.46875" xlink:href="#DejaVuSans-64"/>
     <use x="372.9453125" xlink:href="#DejaVuSans-65"/>
     <use x="434.46875" xlink:href="#DejaVuSans-6f"/>
     <use x="495.650390625" xlink:href="#DejaVuSans-73"/>
     <use x="547.75" xlink:href="#DejaVuSans-70"/>
     <use x="611.2265625" xlink:href="#DejaVuSans-69"/>
     <use x="639.009765625" xlink:href="#DejaVuSans-65"/>
     <use x="700.533203125" xlink:href="#DejaVuSans-6c"/>
     <use x="728.31640625" xlink:href="#DejaVuSans-65"/>
     <use x="789.83984375" xlink:href="#DejaVuSans-6e"/>
     <use x="853.21875" xlink:href="#DejaVuSans-20"/>
     <use x="885.005859375" xlink:href="#DejaVuSans-61"/>
     <use x="946.28515625" xlink:href="#DejaVuSans-6c"/>
     <use x="974.068359375" xlink:href="#DejaVuSans-73"/>
     <use x="1026.16796875" xlink:href="#DejaVuSans-20"/>
     <use x="1057.955078125" xlink:href="#DejaVuSans-4b"/>
     <use x="1118.53125" xlink:href="#DejaVuSans-75"/>
     <use x="1181.91015625" xlink:href="#DejaVuSans-6e"/>
     <use x="1245.2890625" xlink:href="#DejaVuSans-73"/>
     <use x="1297.388671875" xlink:href="#DejaVuSans-74"/>
     <use x="1336.59765625" xlink:href="#DejaVuSans-20"/>
     <use x="1368.384765625" xlink:href="#DejaVuSans-62"/>
     <use x="1431.861328125" xlink:href="#DejaVuSans-65"/>
     <use x="1493.384765625" xlink:href="#DejaVuSans-66"/>
     <use x="1528.58984375" xlink:href="#DejaVuSans-fc"/>
     <use x="1591.96875" xlink:href="#DejaVuSans-72"/>
     <use x="1633.08203125" xlink:href="#DejaVuSans-77"/>
     <use x="1714.869140625" xlink:href="#DejaVuSans-6f"/>
     <use x="1776.05078125" xlink:href="#DejaVuSans-72"/>
     <use x="1817.1640625" xlink:href="#DejaVuSans-74"/>
     <use x="1856.373046875" xlink:href="#DejaVuSans-65"/>
     <use x="1917.896484375" xlink:href="#DejaVuSans-73"/>
     <use x="1969.99609375" xlink:href="#DejaVuSans-74"/>
     <use x="2009.205078125" xlink:href="#DejaVuSans-3f"/>
    </g>
   </g>
  </g>
 </g>
</svg>
