<?xml version="1.0" encoding="utf-8" standalone="no"?>
<!DOCTYPE svg PUBLIC "-//W3C//DTD SVG 1.1//EN"
  "http://www.w3.org/Graphics/SVG/1.1/DTD/svg11.dtd">
<!-- Created with matplotlib (http://matplotlib.org/) -->
<svg height="432pt" version="1.1" viewBox="0 0 432 432" width="432pt" xmlns="http://www.w3.org/2000/svg" xmlns:xlink="http://www.w3.org/1999/xlink">
 <defs>
  <style type="text/css">
*{stroke-linecap:butt;stroke-linejoin:round;}
  </style>
 </defs>
 <g id="figure_1">
  <g id="patch_1">
   <path d="
M0 432
L432 432
L432 0
L0 0
z
" style="fill:#ffffff;"/>
  </g>
  <g id="axes_1">
   <g id="patch_2">
    <path d="
M313.825 223.971
C313.825 193.517 308.237 163.718 297.752 138.268
C287.268 112.817 272.34 92.8106 254.816 80.7265
C237.293 68.6425 217.93 65.0016 199.125 70.2549
C180.321 75.5082 162.886 89.4294 148.979 110.294
L216 223.971
L313.825 223.971
z
" style="fill:#0000ff;stroke:#000000;stroke-linejoin:miter;"/>
   </g>
   <g id="patch_3">
    <path d="
M148.979 110.294
C136.598 128.87 127.463 152.276 122.478 178.197
C117.493 204.118 116.827 231.669 120.547 258.125
C124.267 284.581 132.245 309.04 143.693 329.081
C155.141 349.122 169.667 364.062 185.836 372.422
L216 223.971
L148.979 110.294
z
" style="fill:#008000;stroke:#000000;stroke-linejoin:miter;"/>
   </g>
   <g id="patch_4">
    <path d="
M185.836 372.422
C200.46 379.984 215.998 381.941 231.185 378.135
C246.372 374.328 260.785 364.863 273.25 350.511
L216 223.971
L185.836 372.422
z
" style="fill:#ff0000;stroke:#000000;stroke-linejoin:miter;"/>
   </g>
   <g id="patch_5">
    <path d="
M273.25 350.511
C278.533 344.428 283.422 337.519 287.844 329.886
C292.266 322.253 296.198 313.935 299.584 305.055
L216 223.971
L273.25 350.511
z
" style="fill:#00bfbf;stroke:#000000;stroke-linejoin:miter;"/>
   </g>
   <g id="patch_6">
    <path d="
M299.584 305.055
C301.958 298.826 304.056 292.339 305.862 285.642
C307.668 278.945 309.178 272.054 310.38 265.02
L216 223.971
L299.584 305.055
z
" style="fill:#bf00bf;stroke:#000000;stroke-linejoin:miter;"/>
   </g>
   <g id="patch_7">
    <path d="
M310.38 265.02
C311.522 258.339 312.384 251.543 312.96 244.679
C313.536 237.814 313.825 230.896 313.825 223.971
L216 223.971
L310.38 265.02
z
" style="fill:#bfbf00;stroke:#000000;stroke-linejoin:miter;"/>
   </g>
   <g id="matplotlib.axis_1"/>
   <g id="matplotlib.axis_2"/>
   <g id="text_1">
    <!-- Weniger, es wird bei manchen Genres seine Nische finden. -->
    <defs>
     <path d="
M54.8906 33.0156
L54.8906 0
L45.9062 0
L45.9062 32.7188
Q45.9062 40.4844 42.875 44.3281
Q39.8438 48.1875 33.7969 48.1875
Q26.5156 48.1875 22.3125 43.5469
Q18.1094 38.9219 18.1094 30.9062
L18.1094 0
L9.07812 0
L9.07812 75.9844
L18.1094 75.9844
L18.1094 46.1875
Q21.3438 51.125 25.7031 53.5625
Q30.0781 56 35.7969 56
Q45.2188 56 50.0469 50.1719
Q54.8906 44.3438 54.8906 33.0156" id="DejaVuSans-68"/>
     <path d="
M48.7812 52.5938
L48.7812 44.1875
Q44.9688 46.2969 41.1406 47.3438
Q37.3125 48.3906 33.4062 48.3906
Q24.6562 48.3906 19.8125 42.8438
Q14.9844 37.3125 14.9844 27.2969
Q14.9844 17.2812 19.8125 11.7344
Q24.6562 6.20312 33.4062 6.20312
Q37.3125 6.20312 41.1406 7.25
Q44.9688 8.29688 48.7812 10.4062
L48.7812 2.09375
Q45.0156 0.34375 40.9844 -0.53125
Q36.9688 -1.42188 32.4219 -1.42188
Q20.0625 -1.42188 12.7812 6.34375
Q5.51562 14.1094 5.51562 27.2969
Q5.51562 40.6719 12.8594 48.3281
Q20.2188 56 33.0156 56
Q37.1562 56 41.1094 55.1406
Q45.0625 54.2969 48.7812 52.5938" id="DejaVuSans-63"/>
     <path d="
M48.6875 27.2969
Q48.6875 37.2031 44.6094 42.8438
Q40.5312 48.4844 33.4062 48.4844
Q26.2656 48.4844 22.1875 42.8438
Q18.1094 37.2031 18.1094 27.2969
Q18.1094 17.3906 22.1875 11.75
Q26.2656 6.10938 33.4062 6.10938
Q40.5312 6.10938 44.6094 11.75
Q48.6875 17.3906 48.6875 27.2969
M18.1094 46.3906
Q20.9531 51.2656 25.2656 53.625
Q29.5938 56 35.5938 56
Q45.5625 56 51.7812 48.0938
Q58.0156 40.1875 58.0156 27.2969
Q58.0156 14.4062 51.7812 6.48438
Q45.5625 -1.42188 35.5938 -1.42188
Q29.5938 -1.42188 25.2656 0.953125
Q20.9531 3.32812 18.1094 8.20312
L18.1094 0
L9.07812 0
L9.07812 75.9844
L18.1094 75.9844
z
" id="DejaVuSans-62"/>
     <path d="
M9.42188 54.6875
L18.4062 54.6875
L18.4062 0
L9.42188 0
z

M9.42188 75.9844
L18.4062 75.9844
L18.4062 64.5938
L9.42188 64.5938
z
" id="DejaVuSans-69"/>
     <path d="
M4.20312 54.6875
L13.1875 54.6875
L24.4219 12.0156
L35.5938 54.6875
L46.1875 54.6875
L57.4219 12.0156
L68.6094 54.6875
L77.5938 54.6875
L63.2812 0
L52.6875 0
L40.9219 44.8281
L29.1094 0
L18.5 0
z
" id="DejaVuSans-77"/>
     <path d="
M41.1094 46.2969
Q39.5938 47.1719 37.8125 47.5781
Q36.0312 48 33.8906 48
Q26.2656 48 22.1875 43.0469
Q18.1094 38.0938 18.1094 28.8125
L18.1094 0
L9.07812 0
L9.07812 54.6875
L18.1094 54.6875
L18.1094 46.1875
Q20.9531 51.1719 25.4844 53.5781
Q30.0312 56 36.5312 56
Q37.4531 56 38.5781 55.875
Q39.7031 55.7656 41.0625 55.5156
z
" id="DejaVuSans-72"/>
     <path d="
M34.2812 27.4844
Q23.3906 27.4844 19.1875 25
Q14.9844 22.5156 14.9844 16.5
Q14.9844 11.7188 18.1406 8.90625
Q21.2969 6.10938 26.7031 6.10938
Q34.1875 6.10938 38.7031 11.4062
Q43.2188 16.7031 43.2188 25.4844
L43.2188 27.4844
z

M52.2031 31.2031
L52.2031 0
L43.2188 0
L43.2188 8.29688
Q40.1406 3.32812 35.5469 0.953125
Q30.9531 -1.42188 24.3125 -1.42188
Q15.9219 -1.42188 10.9531 3.29688
Q6 8.01562 6 15.9219
Q6 25.1406 12.1719 29.8281
Q18.3594 34.5156 30.6094 34.5156
L43.2188 34.5156
L43.2188 35.4062
Q43.2188 41.6094 39.1406 45
Q35.0625 48.3906 27.6875 48.3906
Q23 48.3906 18.5469 47.2656
Q14.1094 46.1406 10.0156 43.8906
L10.0156 52.2031
Q14.9375 54.1094 19.5781 55.0469
Q24.2188 56 28.6094 56
Q40.4844 56 46.3438 49.8438
Q52.2031 43.7031 52.2031 31.2031" id="DejaVuSans-61"/>
     <path d="
M52 44.1875
Q55.375 50.25 60.0625 53.125
Q64.75 56 71.0938 56
Q79.6406 56 84.2812 50.0156
Q88.9219 44.0469 88.9219 33.0156
L88.9219 0
L79.8906 0
L79.8906 32.7188
Q79.8906 40.5781 77.0938 44.375
Q74.3125 48.1875 68.6094 48.1875
Q61.625 48.1875 57.5625 43.5469
Q53.5156 38.9219 53.5156 30.9062
L53.5156 0
L44.4844 0
L44.4844 32.7188
Q44.4844 40.625 41.7031 44.4062
Q38.9219 48.1875 33.1094 48.1875
Q26.2188 48.1875 22.1562 43.5312
Q18.1094 38.875 18.1094 30.9062
L18.1094 0
L9.07812 0
L9.07812 54.6875
L18.1094 54.6875
L18.1094 46.1875
Q21.1875 51.2188 25.4844 53.6094
Q29.7812 56 35.6875 56
Q41.6562 56 45.8281 52.9688
Q50 49.9531 52 44.1875" id="DejaVuSans-6d"/>
     <path d="
M9.8125 72.9062
L23.0938 72.9062
L55.4219 11.9219
L55.4219 72.9062
L64.9844 72.9062
L64.9844 0
L51.7031 0
L19.3906 60.9844
L19.3906 0
L9.8125 0
z
" id="DejaVuSans-4e"/>
     <path d="
M10.6875 12.4062
L21 12.4062
L21 0
L10.6875 0
z
" id="DejaVuSans-2e"/>
     <path d="
M45.4062 46.3906
L45.4062 75.9844
L54.3906 75.9844
L54.3906 0
L45.4062 0
L45.4062 8.20312
Q42.5781 3.32812 38.25 0.953125
Q33.9375 -1.42188 27.875 -1.42188
Q17.9688 -1.42188 11.7344 6.48438
Q5.51562 14.4062 5.51562 27.2969
Q5.51562 40.1875 11.7344 48.0938
Q17.9688 56 27.875 56
Q33.9375 56 38.25 53.625
Q42.5781 51.2656 45.4062 46.3906
M14.7969 27.2969
Q14.7969 17.3906 18.875 11.75
Q22.9531 6.10938 30.0781 6.10938
Q37.2031 6.10938 41.2969 11.75
Q45.4062 17.3906 45.4062 27.2969
Q45.4062 37.2031 41.2969 42.8438
Q37.2031 48.4844 30.0781 48.4844
Q22.9531 48.4844 18.875 42.8438
Q14.7969 37.2031 14.7969 27.2969" id="DejaVuSans-64"/>
     <path d="
M44.2812 53.0781
L44.2812 44.5781
Q40.4844 46.5312 36.375 47.5
Q32.2812 48.4844 27.875 48.4844
Q21.1875 48.4844 17.8438 46.4375
Q14.5 44.3906 14.5 40.2812
Q14.5 37.1562 16.8906 35.375
Q19.2812 33.5938 26.5156 31.9844
L29.5938 31.2969
Q39.1562 29.25 43.1875 25.5156
Q47.2188 21.7812 47.2188 15.0938
Q47.2188 7.46875 41.1875 3.01562
Q35.1562 -1.42188 24.6094 -1.42188
Q20.2188 -1.42188 15.4531 -0.5625
Q10.6875 0.296875 5.42188 2
L5.42188 11.2812
Q10.4062 8.6875 15.2344 7.39062
Q20.0625 6.10938 24.8125 6.10938
Q31.1562 6.10938 34.5625 8.28125
Q37.9844 10.4531 37.9844 14.4062
Q37.9844 18.0625 35.5156 20.0156
Q33.0625 21.9688 24.7031 23.7812
L21.5781 24.5156
Q13.2344 26.2656 9.51562 29.9062
Q5.8125 33.5469 5.8125 39.8906
Q5.8125 47.6094 11.2812 51.7969
Q16.75 56 26.8125 56
Q31.7812 56 36.1719 55.2656
Q40.5781 54.5469 44.2812 53.0781" id="DejaVuSans-73"/>
     <path d="
M3.32812 72.9062
L13.2812 72.9062
L28.6094 11.2812
L43.8906 72.9062
L54.9844 72.9062
L70.3125 11.2812
L85.5938 72.9062
L95.6094 72.9062
L77.2969 0
L64.8906 0
L49.5156 63.2812
L33.9844 0
L21.5781 0
z
" id="DejaVuSans-57"/>
     <path d="
M45.4062 27.9844
Q45.4062 37.75 41.375 43.1094
Q37.3594 48.4844 30.0781 48.4844
Q22.8594 48.4844 18.8281 43.1094
Q14.7969 37.75 14.7969 27.9844
Q14.7969 18.2656 18.8281 12.8906
Q22.8594 7.51562 30.0781 7.51562
Q37.3594 7.51562 41.375 12.8906
Q45.4062 18.2656 45.4062 27.9844
M54.3906 6.78125
Q54.3906 -7.17188 48.1875 -13.9844
Q42 -20.7969 29.2031 -20.7969
Q24.4688 -20.7969 20.2656 -20.0938
Q16.0625 -19.3906 12.1094 -17.9219
L12.1094 -9.1875
Q16.0625 -11.3281 19.9219 -12.3438
Q23.7812 -13.375 27.7812 -13.375
Q36.625 -13.375 41.0156 -8.76562
Q45.4062 -4.15625 45.4062 5.17188
L45.4062 9.625
Q42.625 4.78125 38.2812 2.39062
Q33.9375 0 27.875 0
Q17.8281 0 11.6719 7.65625
Q5.51562 15.3281 5.51562 27.9844
Q5.51562 40.6719 11.6719 48.3281
Q17.8281 56 27.875 56
Q33.9375 56 38.2812 53.6094
Q42.625 51.2188 45.4062 46.3906
L45.4062 54.6875
L54.3906 54.6875
z
" id="DejaVuSans-67"/>
     <path d="
M54.8906 33.0156
L54.8906 0
L45.9062 0
L45.9062 32.7188
Q45.9062 40.4844 42.875 44.3281
Q39.8438 48.1875 33.7969 48.1875
Q26.5156 48.1875 22.3125 43.5469
Q18.1094 38.9219 18.1094 30.9062
L18.1094 0
L9.07812 0
L9.07812 54.6875
L18.1094 54.6875
L18.1094 46.1875
Q21.3438 51.125 25.7031 53.5625
Q30.0781 56 35.7969 56
Q45.2188 56 50.0469 50.1719
Q54.8906 44.3438 54.8906 33.0156" id="DejaVuSans-6e"/>
     <path d="
M37.1094 75.9844
L37.1094 68.5
L28.5156 68.5
Q23.6875 68.5 21.7969 66.5469
Q19.9219 64.5938 19.9219 59.5156
L19.9219 54.6875
L34.7188 54.6875
L34.7188 47.7031
L19.9219 47.7031
L19.9219 0
L10.8906 0
L10.8906 47.7031
L2.29688 47.7031
L2.29688 54.6875
L10.8906 54.6875
L10.8906 58.5
Q10.8906 67.625 15.1406 71.7969
Q19.3906 75.9844 28.6094 75.9844
z
" id="DejaVuSans-66"/>
     <path d="
M11.7188 12.4062
L22.0156 12.4062
L22.0156 4
L14.0156 -11.625
L7.71875 -11.625
L11.7188 4
z
" id="DejaVuSans-2c"/>
     <path id="DejaVuSans-20"/>
     <path d="
M56.2031 29.5938
L56.2031 25.2031
L14.8906 25.2031
Q15.4844 15.9219 20.4844 11.0625
Q25.4844 6.20312 34.4219 6.20312
Q39.5938 6.20312 44.4531 7.46875
Q49.3125 8.73438 54.1094 11.2812
L54.1094 2.78125
Q49.2656 0.734375 44.1875 -0.34375
Q39.1094 -1.42188 33.8906 -1.42188
Q20.7969 -1.42188 13.1562 6.1875
Q5.51562 13.8125 5.51562 26.8125
Q5.51562 40.2344 12.7656 48.1094
Q20.0156 56 32.3281 56
Q43.3594 56 49.7812 48.8906
Q56.2031 41.7969 56.2031 29.5938
M47.2188 32.2344
Q47.125 39.5938 43.0938 43.9844
Q39.0625 48.3906 32.4219 48.3906
Q24.9062 48.3906 20.3906 44.1406
Q15.875 39.8906 15.1875 32.1719
z
" id="DejaVuSans-65"/>
     <path d="
M59.5156 10.4062
L59.5156 29.9844
L43.4062 29.9844
L43.4062 38.0938
L69.2812 38.0938
L69.2812 6.78125
Q63.5781 2.73438 56.6875 0.65625
Q49.8125 -1.42188 42 -1.42188
Q24.9062 -1.42188 15.25 8.5625
Q5.60938 18.5625 5.60938 36.375
Q5.60938 54.25 15.25 64.2344
Q24.9062 74.2188 42 74.2188
Q49.125 74.2188 55.5469 72.4531
Q61.9688 70.7031 67.3906 67.2812
L67.3906 56.7812
Q61.9219 61.4219 55.7656 63.7656
Q49.6094 66.1094 42.8281 66.1094
Q29.4375 66.1094 22.7188 58.6406
Q16.0156 51.1719 16.0156 36.375
Q16.0156 21.625 22.7188 14.1562
Q29.4375 6.6875 42.8281 6.6875
Q48.0469 6.6875 52.1406 7.59375
Q56.25 8.5 59.5156 10.4062" id="DejaVuSans-47"/>
    </defs>
    <g transform="translate(258.698005632 69.7133489309)scale(0.12 -0.12)">
     <use xlink:href="#DejaVuSans-57"/>
     <use x="93.001953125" xlink:href="#DejaVuSans-65"/>
     <use x="154.525390625" xlink:href="#DejaVuSans-6e"/>
     <use x="217.904296875" xlink:href="#DejaVuSans-69"/>
     <use x="245.6875" xlink:href="#DejaVuSans-67"/>
     <use x="309.1640625" xlink:href="#DejaVuSans-65"/>
     <use x="370.6875" xlink:href="#DejaVuSans-72"/>
     <use x="411.80078125" xlink:href="#DejaVuSans-2c"/>
     <use x="443.587890625" xlink:href="#DejaVuSans-20"/>
     <use x="475.375" xlink:href="#DejaVuSans-65"/>
     <use x="536.8984375" xlink:href="#DejaVuSans-73"/>
     <use x="588.998046875" xlink:href="#DejaVuSans-20"/>
     <use x="620.78515625" xlink:href="#DejaVuSans-77"/>
     <use x="702.572265625" xlink:href="#DejaVuSans-69"/>
     <use x="730.35546875" xlink:href="#DejaVuSans-72"/>
     <use x="769.71875" xlink:href="#DejaVuSans-64"/>
     <use x="833.1953125" xlink:href="#DejaVuSans-20"/>
     <use x="864.982421875" xlink:href="#DejaVuSans-62"/>
     <use x="928.458984375" xlink:href="#DejaVuSans-65"/>
     <use x="989.982421875" xlink:href="#DejaVuSans-69"/>
     <use x="1017.765625" xlink:href="#DejaVuSans-20"/>
     <use x="1049.552734375" xlink:href="#DejaVuSans-6d"/>
     <use x="1146.96484375" xlink:href="#DejaVuSans-61"/>
     <use x="1208.244140625" xlink:href="#DejaVuSans-6e"/>
     <use x="1271.623046875" xlink:href="#DejaVuSans-63"/>
     <use x="1326.603515625" xlink:href="#DejaVuSans-68"/>
     <use x="1389.982421875" xlink:href="#DejaVuSans-65"/>
     <use x="1451.505859375" xlink:href="#DejaVuSans-6e"/>
     <use x="1514.884765625" xlink:href="#DejaVuSans-20"/>
     <use x="1546.671875" xlink:href="#DejaVuSans-47"/>
     <use x="1624.162109375" xlink:href="#DejaVuSans-65"/>
     <use x="1685.685546875" xlink:href="#DejaVuSans-6e"/>
     <use x="1749.064453125" xlink:href="#DejaVuSans-72"/>
     <use x="1787.927734375" xlink:href="#DejaVuSans-65"/>
     <use x="1849.451171875" xlink:href="#DejaVuSans-73"/>
     <use x="1901.55078125" xlink:href="#DejaVuSans-20"/>
     <use x="1933.337890625" xlink:href="#DejaVuSans-73"/>
     <use x="1985.4375" xlink:href="#DejaVuSans-65"/>
     <use x="2046.9609375" xlink:href="#DejaVuSans-69"/>
     <use x="2074.744140625" xlink:href="#DejaVuSans-6e"/>
     <use x="2138.123046875" xlink:href="#DejaVuSans-65"/>
     <use x="2199.646484375" xlink:href="#DejaVuSans-20"/>
     <use x="2231.43359375" xlink:href="#DejaVuSans-4e"/>
     <use x="2306.23828125" xlink:href="#DejaVuSans-69"/>
     <use x="2334.021484375" xlink:href="#DejaVuSans-73"/>
     <use x="2386.12109375" xlink:href="#DejaVuSans-63"/>
     <use x="2441.1015625" xlink:href="#DejaVuSans-68"/>
     <use x="2504.48046875" xlink:href="#DejaVuSans-65"/>
     <use x="2566.00390625" xlink:href="#DejaVuSans-20"/>
     <use x="2597.791015625" xlink:href="#DejaVuSans-66"/>
     <use x="2632.99609375" xlink:href="#DejaVuSans-69"/>
     <use x="2660.779296875" xlink:href="#DejaVuSans-6e"/>
     <use x="2724.158203125" xlink:href="#DejaVuSans-64"/>
     <use x="2787.634765625" xlink:href="#DejaVuSans-65"/>
     <use x="2849.158203125" xlink:href="#DejaVuSans-6e"/>
     <use x="2912.537109375" xlink:href="#DejaVuSans-2e"/>
    </g>
   </g>
   <g id="text_2">
    <!-- Nicht in der jetzt bekannten Form. Es wird noch einige Jahre dauern. -->
    <defs>
     <path d="
M9.8125 72.9062
L55.9062 72.9062
L55.9062 64.5938
L19.6719 64.5938
L19.6719 43.0156
L54.3906 43.0156
L54.3906 34.7188
L19.6719 34.7188
L19.6719 8.29688
L56.7812 8.29688
L56.7812 0
L9.8125 0
z
" id="DejaVuSans-45"/>
     <path d="
M5.51562 54.6875
L48.1875 54.6875
L48.1875 46.4844
L14.4062 7.17188
L48.1875 7.17188
L48.1875 0
L4.29688 0
L4.29688 8.20312
L38.0938 47.5156
L5.51562 47.5156
z
" id="DejaVuSans-7a"/>
     <path d="
M30.6094 48.3906
Q23.3906 48.3906 19.1875 42.75
Q14.9844 37.1094 14.9844 27.2969
Q14.9844 17.4844 19.1562 11.8438
Q23.3438 6.20312 30.6094 6.20312
Q37.7969 6.20312 41.9844 11.8594
Q46.1875 17.5312 46.1875 27.2969
Q46.1875 37.0156 41.9844 42.7031
Q37.7969 48.3906 30.6094 48.3906
M30.6094 56
Q42.3281 56 49.0156 48.375
Q55.7188 40.7656 55.7188 27.2969
Q55.7188 13.875 49.0156 6.21875
Q42.3281 -1.42188 30.6094 -1.42188
Q18.8438 -1.42188 12.1719 6.21875
Q5.51562 13.875 5.51562 27.2969
Q5.51562 40.7656 12.1719 48.375
Q18.8438 56 30.6094 56" id="DejaVuSans-6f"/>
     <path d="
M8.5 21.5781
L8.5 54.6875
L17.4844 54.6875
L17.4844 21.9219
Q17.4844 14.1562 20.5 10.2656
Q23.5312 6.39062 29.5938 6.39062
Q36.8594 6.39062 41.0781 11.0312
Q45.3125 15.6719 45.3125 23.6875
L45.3125 54.6875
L54.2969 54.6875
L54.2969 0
L45.3125 0
L45.3125 8.40625
Q42.0469 3.42188 37.7188 1
Q33.4062 -1.42188 27.6875 -1.42188
Q18.2656 -1.42188 13.375 4.4375
Q8.5 10.2969 8.5 21.5781
M31.1094 56
z
" id="DejaVuSans-75"/>
     <path d="
M9.8125 72.9062
L19.6719 72.9062
L19.6719 5.07812
Q19.6719 -8.10938 14.6719 -14.0625
Q9.67188 -20.0156 -1.42188 -20.0156
L-5.17188 -20.0156
L-5.17188 -11.7188
L-2.09375 -11.7188
Q4.4375 -11.7188 7.125 -8.04688
Q9.8125 -4.39062 9.8125 5.07812
z
" id="DejaVuSans-4a"/>
     <path d="
M9.42188 54.6875
L18.4062 54.6875
L18.4062 -0.984375
Q18.4062 -11.4219 14.4219 -16.1094
Q10.4531 -20.7969 1.60938 -20.7969
L-1.8125 -20.7969
L-1.8125 -13.1875
L0.59375 -13.1875
Q5.71875 -13.1875 7.5625 -10.8125
Q9.42188 -8.45312 9.42188 -0.984375
z

M9.42188 75.9844
L18.4062 75.9844
L18.4062 64.5938
L9.42188 64.5938
z
" id="DejaVuSans-6a"/>
     <path d="
M9.07812 75.9844
L18.1094 75.9844
L18.1094 31.1094
L44.9219 54.6875
L56.3906 54.6875
L27.3906 29.1094
L57.625 0
L45.9062 0
L18.1094 26.7031
L18.1094 0
L9.07812 0
z
" id="DejaVuSans-6b"/>
     <path d="
M18.3125 70.2188
L18.3125 54.6875
L36.8125 54.6875
L36.8125 47.7031
L18.3125 47.7031
L18.3125 18.0156
Q18.3125 11.3281 20.1406 9.42188
Q21.9688 7.51562 27.5938 7.51562
L36.8125 7.51562
L36.8125 0
L27.5938 0
Q17.1875 0 13.2344 3.875
Q9.28125 7.76562 9.28125 18.0156
L9.28125 47.7031
L2.6875 47.7031
L2.6875 54.6875
L9.28125 54.6875
L9.28125 70.2188
z
" id="DejaVuSans-74"/>
     <path d="
M9.8125 72.9062
L51.7031 72.9062
L51.7031 64.5938
L19.6719 64.5938
L19.6719 43.1094
L48.5781 43.1094
L48.5781 34.8125
L19.6719 34.8125
L19.6719 0
L9.8125 0
z
" id="DejaVuSans-46"/>
    </defs>
    <g transform="translate(-297.984838822 264.851982175)scale(0.12 -0.12)">
     <use xlink:href="#DejaVuSans-4e"/>
     <use x="74.8046875" xlink:href="#DejaVuSans-69"/>
     <use x="102.587890625" xlink:href="#DejaVuSans-63"/>
     <use x="157.568359375" xlink:href="#DejaVuSans-68"/>
     <use x="220.947265625" xlink:href="#DejaVuSans-74"/>
     <use x="260.15625" xlink:href="#DejaVuSans-20"/>
     <use x="291.943359375" xlink:href="#DejaVuSans-69"/>
     <use x="319.7265625" xlink:href="#DejaVuSans-6e"/>
     <use x="383.10546875" xlink:href="#DejaVuSans-20"/>
     <use x="414.892578125" xlink:href="#DejaVuSans-64"/>
     <use x="478.369140625" xlink:href="#DejaVuSans-65"/>
     <use x="539.892578125" xlink:href="#DejaVuSans-72"/>
     <use x="581.005859375" xlink:href="#DejaVuSans-20"/>
     <use x="612.79296875" xlink:href="#DejaVuSans-6a"/>
     <use x="640.576171875" xlink:href="#DejaVuSans-65"/>
     <use x="702.099609375" xlink:href="#DejaVuSans-74"/>
     <use x="741.30859375" xlink:href="#DejaVuSans-7a"/>
     <use x="793.798828125" xlink:href="#DejaVuSans-74"/>
     <use x="833.0078125" xlink:href="#DejaVuSans-20"/>
     <use x="864.794921875" xlink:href="#DejaVuSans-62"/>
     <use x="928.271484375" xlink:href="#DejaVuSans-65"/>
     <use x="989.794921875" xlink:href="#DejaVuSans-6b"/>
     <use x="1045.955078125" xlink:href="#DejaVuSans-61"/>
     <use x="1107.234375" xlink:href="#DejaVuSans-6e"/>
     <use x="1170.61328125" xlink:href="#DejaVuSans-6e"/>
     <use x="1233.9921875" xlink:href="#DejaVuSans-74"/>
     <use x="1273.201171875" xlink:href="#DejaVuSans-65"/>
     <use x="1334.724609375" xlink:href="#DejaVuSans-6e"/>
     <use x="1398.103515625" xlink:href="#DejaVuSans-20"/>
     <use x="1429.890625" xlink:href="#DejaVuSans-46"/>
     <use x="1483.78515625" xlink:href="#DejaVuSans-6f"/>
     <use x="1544.966796875" xlink:href="#DejaVuSans-72"/>
     <use x="1584.330078125" xlink:href="#DejaVuSans-6d"/>
     <use x="1681.7421875" xlink:href="#DejaVuSans-2e"/>
     <use x="1713.529296875" xlink:href="#DejaVuSans-20"/>
     <use x="1745.31640625" xlink:href="#DejaVuSans-45"/>
     <use x="1808.5" xlink:href="#DejaVuSans-73"/>
     <use x="1860.599609375" xlink:href="#DejaVuSans-20"/>
     <use x="1892.38671875" xlink:href="#DejaVuSans-77"/>
     <use x="1974.173828125" xlink:href="#DejaVuSans-69"/>
     <use x="2001.95703125" xlink:href="#DejaVuSans-72"/>
     <use x="2041.3203125" xlink:href="#DejaVuSans-64"/>
     <use x="2104.796875" xlink:href="#DejaVuSans-20"/>
     <use x="2136.583984375" xlink:href="#DejaVuSans-6e"/>
     <use x="2199.962890625" xlink:href="#DejaVuSans-6f"/>
     <use x="2261.14453125" xlink:href="#DejaVuSans-63"/>
     <use x="2316.125" xlink:href="#DejaVuSans-68"/>
     <use x="2379.50390625" xlink:href="#DejaVuSans-20"/>
     <use x="2411.291015625" xlink:href="#DejaVuSans-65"/>
     <use x="2472.814453125" xlink:href="#DejaVuSans-69"/>
     <use x="2500.59765625" xlink:href="#DejaVuSans-6e"/>
     <use x="2563.9765625" xlink:href="#DejaVuSans-69"/>
     <use x="2591.759765625" xlink:href="#DejaVuSans-67"/>
     <use x="2655.236328125" xlink:href="#DejaVuSans-65"/>
     <use x="2716.759765625" xlink:href="#DejaVuSans-20"/>
     <use x="2748.546875" xlink:href="#DejaVuSans-4a"/>
     <use x="2778.0390625" xlink:href="#DejaVuSans-61"/>
     <use x="2839.318359375" xlink:href="#DejaVuSans-68"/>
     <use x="2902.697265625" xlink:href="#DejaVuSans-72"/>
     <use x="2941.560546875" xlink:href="#DejaVuSans-65"/>
     <use x="3003.083984375" xlink:href="#DejaVuSans-20"/>
     <use x="3034.87109375" xlink:href="#DejaVuSans-64"/>
     <use x="3098.34765625" xlink:href="#DejaVuSans-61"/>
     <use x="3159.626953125" xlink:href="#DejaVuSans-75"/>
     <use x="3223.005859375" xlink:href="#DejaVuSans-65"/>
     <use x="3284.529296875" xlink:href="#DejaVuSans-72"/>
     <use x="3323.892578125" xlink:href="#DejaVuSans-6e"/>
     <use x="3387.271484375" xlink:href="#DejaVuSans-2e"/>
    </g>
   </g>
   <g id="text_3">
    <!-- Ja, VR-Brillen werden das Gaming komplett verändern. -->
    <defs>
     <path d="
M9.42188 75.9844
L18.4062 75.9844
L18.4062 0
L9.42188 0
z
" id="DejaVuSans-6c"/>
     <path d="
M18.1094 8.20312
L18.1094 -20.7969
L9.07812 -20.7969
L9.07812 54.6875
L18.1094 54.6875
L18.1094 46.3906
Q20.9531 51.2656 25.2656 53.625
Q29.5938 56 35.5938 56
Q45.5625 56 51.7812 48.0938
Q58.0156 40.1875 58.0156 27.2969
Q58.0156 14.4062 51.7812 6.48438
Q45.5625 -1.42188 35.5938 -1.42188
Q29.5938 -1.42188 25.2656 0.953125
Q20.9531 3.32812 18.1094 8.20312
M48.6875 27.2969
Q48.6875 37.2031 44.6094 42.8438
Q40.5312 48.4844 33.4062 48.4844
Q26.2656 48.4844 22.1875 42.8438
Q18.1094 37.2031 18.1094 27.2969
Q18.1094 17.3906 22.1875 11.75
Q26.2656 6.10938 33.4062 6.10938
Q40.5312 6.10938 44.6094 11.75
Q48.6875 17.3906 48.6875 27.2969" id="DejaVuSans-70"/>
     <path d="
M28.6094 0
L0.78125 72.9062
L11.0781 72.9062
L34.1875 11.5312
L57.3281 72.9062
L67.5781 72.9062
L39.7969 0
z
" id="DejaVuSans-56"/>
     <path d="
M44.3906 34.1875
Q47.5625 33.1094 50.5625 29.5938
Q53.5625 26.0781 56.5938 19.9219
L66.6094 0
L56 0
L46.6875 18.7031
Q43.0625 26.0312 39.6719 28.4219
Q36.2812 30.8125 30.4219 30.8125
L19.6719 30.8125
L19.6719 0
L9.8125 0
L9.8125 72.9062
L32.0781 72.9062
Q44.5781 72.9062 50.7344 67.6719
Q56.8906 62.4531 56.8906 51.9062
Q56.8906 45.0156 53.6875 40.4688
Q50.4844 35.9375 44.3906 34.1875
M19.6719 64.7969
L19.6719 38.9219
L32.0781 38.9219
Q39.2031 38.9219 42.8438 42.2188
Q46.4844 45.5156 46.4844 51.9062
Q46.4844 58.2969 42.8438 61.5469
Q39.2031 64.7969 32.0781 64.7969
z
" id="DejaVuSans-52"/>
     <path d="
M34.2812 27.4844
Q23.3906 27.4844 19.1875 25
Q14.9844 22.5156 14.9844 16.5
Q14.9844 11.7188 18.1406 8.90625
Q21.2969 6.10938 26.7031 6.10938
Q34.1875 6.10938 38.7031 11.4062
Q43.2188 16.7031 43.2188 25.4844
L43.2188 27.4844
z

M52.2031 31.2031
L52.2031 0
L43.2188 0
L43.2188 8.29688
Q40.1406 3.32812 35.5469 0.953125
Q30.9531 -1.42188 24.3125 -1.42188
Q15.9219 -1.42188 10.9531 3.29688
Q6 8.01562 6 15.9219
Q6 25.1406 12.1719 29.8281
Q18.3594 34.5156 30.6094 34.5156
L43.2188 34.5156
L43.2188 35.4062
Q43.2188 41.6094 39.1406 45
Q35.0625 48.3906 27.6875 48.3906
Q23 48.3906 18.5469 47.2656
Q14.1094 46.1406 10.0156 43.8906
L10.0156 52.2031
Q14.9375 54.1094 19.5781 55.0469
Q24.2188 56 28.6094 56
Q40.4844 56 46.3438 49.8438
Q52.2031 43.7031 52.2031 31.2031
M33.5938 75.7812
L43.5 75.7812
L43.5 65.9219
L33.5938 65.9219
z

M14.5 75.7812
L24.4062 75.7812
L24.4062 65.9219
L14.5 65.9219
z
" id="DejaVuSans-e4"/>
     <path d="
M4.89062 31.3906
L31.2031 31.3906
L31.2031 23.3906
L4.89062 23.3906
z
" id="DejaVuSans-2d"/>
     <path d="
M2.98438 54.6875
L12.5 54.6875
L29.5938 8.79688
L46.6875 54.6875
L56.2031 54.6875
L35.6875 0
L23.4844 0
z
" id="DejaVuSans-76"/>
     <path d="
M19.6719 34.8125
L19.6719 8.10938
L35.5 8.10938
Q43.4531 8.10938 47.2812 11.4062
Q51.125 14.7031 51.125 21.4844
Q51.125 28.3281 47.2812 31.5625
Q43.4531 34.8125 35.5 34.8125
z

M19.6719 64.7969
L19.6719 42.8281
L34.2812 42.8281
Q41.5 42.8281 45.0312 45.5312
Q48.5781 48.25 48.5781 53.8125
Q48.5781 59.3281 45.0312 62.0625
Q41.5 64.7969 34.2812 64.7969
z

M9.8125 72.9062
L35.0156 72.9062
Q46.2969 72.9062 52.3906 68.2188
Q58.5 63.5312 58.5 54.8906
Q58.5 48.1875 55.375 44.2344
Q52.25 40.2812 46.1875 39.3125
Q53.4688 37.75 57.5 32.7812
Q61.5312 27.8281 61.5312 20.4062
Q61.5312 10.6406 54.8906 5.3125
Q48.25 0 35.9844 0
L9.8125 0
z
" id="DejaVuSans-42"/>
    </defs>
    <g transform="translate(232.70320812 396.862316887)scale(0.12 -0.12)">
     <use xlink:href="#DejaVuSans-4a"/>
     <use x="29.4921875" xlink:href="#DejaVuSans-61"/>
     <use x="90.771484375" xlink:href="#DejaVuSans-2c"/>
     <use x="122.55859375" xlink:href="#DejaVuSans-20"/>
     <use x="154.345703125" xlink:href="#DejaVuSans-56"/>
     <use x="222.75390625" xlink:href="#DejaVuSans-52"/>
     <use x="288.236328125" xlink:href="#DejaVuSans-2d"/>
     <use x="320.6953125" xlink:href="#DejaVuSans-42"/>
     <use x="389.298828125" xlink:href="#DejaVuSans-72"/>
     <use x="430.412109375" xlink:href="#DejaVuSans-69"/>
     <use x="458.1953125" xlink:href="#DejaVuSans-6c"/>
     <use x="485.978515625" xlink:href="#DejaVuSans-6c"/>
     <use x="513.76171875" xlink:href="#DejaVuSans-65"/>
     <use x="575.28515625" xlink:href="#DejaVuSans-6e"/>
     <use x="638.6640625" xlink:href="#DejaVuSans-20"/>
     <use x="670.451171875" xlink:href="#DejaVuSans-77"/>
     <use x="752.23828125" xlink:href="#DejaVuSans-65"/>
     <use x="813.76171875" xlink:href="#DejaVuSans-72"/>
     <use x="853.125" xlink:href="#DejaVuSans-64"/>
     <use x="916.6015625" xlink:href="#DejaVuSans-65"/>
     <use x="978.125" xlink:href="#DejaVuSans-6e"/>
     <use x="1041.50390625" xlink:href="#DejaVuSans-20"/>
     <use x="1073.291015625" xlink:href="#DejaVuSans-64"/>
     <use x="1136.767578125" xlink:href="#DejaVuSans-61"/>
     <use x="1198.046875" xlink:href="#DejaVuSans-73"/>
     <use x="1250.146484375" xlink:href="#DejaVuSans-20"/>
     <use x="1281.93359375" xlink:href="#DejaVuSans-47"/>
     <use x="1359.423828125" xlink:href="#DejaVuSans-61"/>
     <use x="1420.703125" xlink:href="#DejaVuSans-6d"/>
     <use x="1518.115234375" xlink:href="#DejaVuSans-69"/>
     <use x="1545.8984375" xlink:href="#DejaVuSans-6e"/>
     <use x="1609.27734375" xlink:href="#DejaVuSans-67"/>
     <use x="1672.75390625" xlink:href="#DejaVuSans-20"/>
     <use x="1704.541015625" xlink:href="#DejaVuSans-6b"/>
     <use x="1758.826171875" xlink:href="#DejaVuSans-6f"/>
     <use x="1820.0078125" xlink:href="#DejaVuSans-6d"/>
     <use x="1917.419921875" xlink:href="#DejaVuSans-70"/>
     <use x="1980.896484375" xlink:href="#DejaVuSans-6c"/>
     <use x="2008.6796875" xlink:href="#DejaVuSans-65"/>
     <use x="2070.203125" xlink:href="#DejaVuSans-74"/>
     <use x="2109.412109375" xlink:href="#DejaVuSans-74"/>
     <use x="2148.62109375" xlink:href="#DejaVuSans-20"/>
     <use x="2180.408203125" xlink:href="#DejaVuSans-76"/>
     <use x="2239.587890625" xlink:href="#DejaVuSans-65"/>
     <use x="2301.111328125" xlink:href="#DejaVuSans-72"/>
     <use x="2342.224609375" xlink:href="#DejaVuSans-e4"/>
     <use x="2403.50390625" xlink:href="#DejaVuSans-6e"/>
     <use x="2466.8828125" xlink:href="#DejaVuSans-64"/>
     <use x="2530.359375" xlink:href="#DejaVuSans-65"/>
     <use x="2591.8828125" xlink:href="#DejaVuSans-72"/>
     <use x="2631.24609375" xlink:href="#DejaVuSans-6e"/>
     <use x="2694.625" xlink:href="#DejaVuSans-2e"/>
    </g>
   </g>
   <g id="text_4">
    <!-- VR wird sich in anderen Bereichen, nicht aber für Gaming durchsetzen. -->
    <defs>
     <path d="
M8.5 21.5781
L8.5 54.6875
L17.4844 54.6875
L17.4844 21.9219
Q17.4844 14.1562 20.5 10.2656
Q23.5312 6.39062 29.5938 6.39062
Q36.8594 6.39062 41.0781 11.0312
Q45.3125 15.6719 45.3125 23.6875
L45.3125 54.6875
L54.2969 54.6875
L54.2969 0
L45.3125 0
L45.3125 8.40625
Q42.0469 3.42188 37.7188 1
Q33.4062 -1.42188 27.6875 -1.42188
Q18.2656 -1.42188 13.375 4.4375
Q8.5 10.2969 8.5 21.5781
M31.1094 56
z

M35.5938 75.7812
L45.5 75.7812
L45.5 65.9219
L35.5938 65.9219
z

M16.5 75.7812
L26.4062 75.7812
L26.4062 65.9219
L16.5 65.9219
z
" id="DejaVuSans-fc"/>
    </defs>
    <g transform="translate(295.028136955 343.789075702)scale(0.12 -0.12)">
     <use xlink:href="#DejaVuSans-56"/>
     <use x="68.408203125" xlink:href="#DejaVuSans-52"/>
     <use x="137.890625" xlink:href="#DejaVuSans-20"/>
     <use x="169.677734375" xlink:href="#DejaVuSans-77"/>
     <use x="251.46484375" xlink:href="#DejaVuSans-69"/>
     <use x="279.248046875" xlink:href="#DejaVuSans-72"/>
     <use x="318.611328125" xlink:href="#DejaVuSans-64"/>
     <use x="382.087890625" xlink:href="#DejaVuSans-20"/>
     <use x="413.875" xlink:href="#DejaVuSans-73"/>
     <use x="465.974609375" xlink:href="#DejaVuSans-69"/>
     <use x="493.7578125" xlink:href="#DejaVuSans-63"/>
     <use x="548.73828125" xlink:href="#DejaVuSans-68"/>
     <use x="612.1171875" xlink:href="#DejaVuSans-20"/>
     <use x="643.904296875" xlink:href="#DejaVuSans-69"/>
     <use x="671.6875" xlink:href="#DejaVuSans-6e"/>
     <use x="735.06640625" xlink:href="#DejaVuSans-20"/>
     <use x="766.853515625" xlink:href="#DejaVuSans-61"/>
     <use x="828.1328125" xlink:href="#DejaVuSans-6e"/>
     <use x="891.51171875" xlink:href="#DejaVuSans-64"/>
     <use x="954.98828125" xlink:href="#DejaVuSans-65"/>
     <use x="1016.51171875" xlink:href="#DejaVuSans-72"/>
     <use x="1055.375" xlink:href="#DejaVuSans-65"/>
     <use x="1116.8984375" xlink:href="#DejaVuSans-6e"/>
     <use x="1180.27734375" xlink:href="#DejaVuSans-20"/>
     <use x="1212.064453125" xlink:href="#DejaVuSans-42"/>
     <use x="1280.66796875" xlink:href="#DejaVuSans-65"/>
     <use x="1342.19140625" xlink:href="#DejaVuSans-72"/>
     <use x="1381.0546875" xlink:href="#DejaVuSans-65"/>
     <use x="1442.578125" xlink:href="#DejaVuSans-69"/>
     <use x="1470.361328125" xlink:href="#DejaVuSans-63"/>
     <use x="1525.341796875" xlink:href="#DejaVuSans-68"/>
     <use x="1588.720703125" xlink:href="#DejaVuSans-65"/>
     <use x="1650.244140625" xlink:href="#DejaVuSans-6e"/>
     <use x="1713.623046875" xlink:href="#DejaVuSans-2c"/>
     <use x="1745.41015625" xlink:href="#DejaVuSans-20"/>
     <use x="1777.197265625" xlink:href="#DejaVuSans-6e"/>
     <use x="1840.576171875" xlink:href="#DejaVuSans-69"/>
     <use x="1868.359375" xlink:href="#DejaVuSans-63"/>
     <use x="1923.33984375" xlink:href="#DejaVuSans-68"/>
     <use x="1986.71875" xlink:href="#DejaVuSans-74"/>
     <use x="2025.927734375" xlink:href="#DejaVuSans-20"/>
     <use x="2057.71484375" xlink:href="#DejaVuSans-61"/>
     <use x="2118.994140625" xlink:href="#DejaVuSans-62"/>
     <use x="2182.470703125" xlink:href="#DejaVuSans-65"/>
     <use x="2243.994140625" xlink:href="#DejaVuSans-72"/>
     <use x="2285.107421875" xlink:href="#DejaVuSans-20"/>
     <use x="2316.89453125" xlink:href="#DejaVuSans-66"/>
     <use x="2352.099609375" xlink:href="#DejaVuSans-fc"/>
     <use x="2415.478515625" xlink:href="#DejaVuSans-72"/>
     <use x="2456.591796875" xlink:href="#DejaVuSans-20"/>
     <use x="2488.37890625" xlink:href="#DejaVuSans-47"/>
     <use x="2565.869140625" xlink:href="#DejaVuSans-61"/>
     <use x="2627.1484375" xlink:href="#DejaVuSans-6d"/>
     <use x="2724.560546875" xlink:href="#DejaVuSans-69"/>
     <use x="2752.34375" xlink:href="#DejaVuSans-6e"/>
     <use x="2815.72265625" xlink:href="#DejaVuSans-67"/>
     <use x="2879.19921875" xlink:href="#DejaVuSans-20"/>
     <use x="2910.986328125" xlink:href="#DejaVuSans-64"/>
     <use x="2974.462890625" xlink:href="#DejaVuSans-75"/>
     <use x="3037.841796875" xlink:href="#DejaVuSans-72"/>
     <use x="3076.705078125" xlink:href="#DejaVuSans-63"/>
     <use x="3131.685546875" xlink:href="#DejaVuSans-68"/>
     <use x="3195.064453125" xlink:href="#DejaVuSans-73"/>
     <use x="3247.1640625" xlink:href="#DejaVuSans-65"/>
     <use x="3308.6875" xlink:href="#DejaVuSans-74"/>
     <use x="3347.896484375" xlink:href="#DejaVuSans-7a"/>
     <use x="3400.38671875" xlink:href="#DejaVuSans-65"/>
     <use x="3461.91015625" xlink:href="#DejaVuSans-6e"/>
     <use x="3525.2890625" xlink:href="#DejaVuSans-2e"/>
    </g>
   </g>
   <g id="text_5">
    <!-- Keine Meinung/Unentschlossen. -->
    <defs>
     <path d="
M8.6875 72.9062
L18.6094 72.9062
L18.6094 28.6094
Q18.6094 16.8906 22.8438 11.7344
Q27.0938 6.59375 36.625 6.59375
Q46.0938 6.59375 50.3438 11.7344
Q54.5938 16.8906 54.5938 28.6094
L54.5938 72.9062
L64.5 72.9062
L64.5 27.3906
Q64.5 13.1406 57.4375 5.85938
Q50.3906 -1.42188 36.625 -1.42188
Q22.7969 -1.42188 15.7344 5.85938
Q8.6875 13.1406 8.6875 27.3906
z
" id="DejaVuSans-55"/>
     <path d="
M9.8125 72.9062
L24.5156 72.9062
L43.1094 23.2969
L61.8125 72.9062
L76.5156 72.9062
L76.5156 0
L66.8906 0
L66.8906 64.0156
L48.0938 14.0156
L38.1875 14.0156
L19.3906 64.0156
L19.3906 0
L9.8125 0
z
" id="DejaVuSans-4d"/>
     <path d="
M25.3906 72.9062
L33.6875 72.9062
L8.29688 -9.28125
L0 -9.28125
z
" id="DejaVuSans-2f"/>
     <path d="
M9.8125 72.9062
L19.6719 72.9062
L19.6719 42.0938
L52.3906 72.9062
L65.0938 72.9062
L28.9062 38.9219
L67.6719 0
L54.6875 0
L19.6719 35.1094
L19.6719 0
L9.8125 0
z
" id="DejaVuSans-4b"/>
    </defs>
    <g transform="translate(314.848279634 295.120137589)scale(0.12 -0.12)">
     <use xlink:href="#DejaVuSans-4b"/>
     <use x="60.576171875" xlink:href="#DejaVuSans-65"/>
     <use x="122.099609375" xlink:href="#DejaVuSans-69"/>
     <use x="149.8828125" xlink:href="#DejaVuSans-6e"/>
     <use x="213.26171875" xlink:href="#DejaVuSans-65"/>
     <use x="274.78515625" xlink:href="#DejaVuSans-20"/>
     <use x="306.572265625" xlink:href="#DejaVuSans-4d"/>
     <use x="392.8515625" xlink:href="#DejaVuSans-65"/>
     <use x="454.375" xlink:href="#DejaVuSans-69"/>
     <use x="482.158203125" xlink:href="#DejaVuSans-6e"/>
     <use x="545.537109375" xlink:href="#DejaVuSans-75"/>
     <use x="608.916015625" xlink:href="#DejaVuSans-6e"/>
     <use x="672.294921875" xlink:href="#DejaVuSans-67"/>
     <use x="735.771484375" xlink:href="#DejaVuSans-2f"/>
     <use x="769.462890625" xlink:href="#DejaVuSans-55"/>
     <use x="842.65625" xlink:href="#DejaVuSans-6e"/>
     <use x="906.03515625" xlink:href="#DejaVuSans-65"/>
     <use x="967.55859375" xlink:href="#DejaVuSans-6e"/>
     <use x="1030.9375" xlink:href="#DejaVuSans-74"/>
     <use x="1070.146484375" xlink:href="#DejaVuSans-73"/>
     <use x="1122.24609375" xlink:href="#DejaVuSans-63"/>
     <use x="1177.2265625" xlink:href="#DejaVuSans-68"/>
     <use x="1240.60546875" xlink:href="#DejaVuSans-6c"/>
     <use x="1268.388671875" xlink:href="#DejaVuSans-6f"/>
     <use x="1329.5703125" xlink:href="#DejaVuSans-73"/>
     <use x="1381.669921875" xlink:href="#DejaVuSans-73"/>
     <use x="1433.76953125" xlink:href="#DejaVuSans-65"/>
     <use x="1495.29296875" xlink:href="#DejaVuSans-6e"/>
     <use x="1558.671875" xlink:href="#DejaVuSans-2e"/>
    </g>
   </g>
   <g id="text_6">
    <!-- Nein, VR ist eine Moderscheinung, die nichts für den Massenmarkt werden wird. -->
    <g transform="translate(322.655819624 250.060857907)scale(0.12 -0.12)">
     <use xlink:href="#DejaVuSans-4e"/>
     <use x="74.8046875" xlink:href="#DejaVuSans-65"/>
     <use x="136.328125" xlink:href="#DejaVuSans-69"/>
     <use x="164.111328125" xlink:href="#DejaVuSans-6e"/>
     <use x="227.490234375" xlink:href="#DejaVuSans-2c"/>
     <use x="259.27734375" xlink:href="#DejaVuSans-20"/>
     <use x="291.064453125" xlink:href="#DejaVuSans-56"/>
     <use x="359.47265625" xlink:href="#DejaVuSans-52"/>
     <use x="428.955078125" xlink:href="#DejaVuSans-20"/>
     <use x="460.7421875" xlink:href="#DejaVuSans-69"/>
     <use x="488.525390625" xlink:href="#DejaVuSans-73"/>
     <use x="540.625" xlink:href="#DejaVuSans-74"/>
     <use x="579.833984375" xlink:href="#DejaVuSans-20"/>
     <use x="611.62109375" xlink:href="#DejaVuSans-65"/>
     <use x="673.14453125" xlink:href="#DejaVuSans-69"/>
     <use x="700.927734375" xlink:href="#DejaVuSans-6e"/>
     <use x="764.306640625" xlink:href="#DejaVuSans-65"/>
     <use x="825.830078125" xlink:href="#DejaVuSans-20"/>
     <use x="857.6171875" xlink:href="#DejaVuSans-4d"/>
     <use x="943.896484375" xlink:href="#DejaVuSans-6f"/>
     <use x="1005.078125" xlink:href="#DejaVuSans-64"/>
     <use x="1068.5546875" xlink:href="#DejaVuSans-65"/>
     <use x="1130.078125" xlink:href="#DejaVuSans-72"/>
     <use x="1171.19140625" xlink:href="#DejaVuSans-73"/>
     <use x="1223.291015625" xlink:href="#DejaVuSans-63"/>
     <use x="1278.271484375" xlink:href="#DejaVuSans-68"/>
     <use x="1341.650390625" xlink:href="#DejaVuSans-65"/>
     <use x="1403.173828125" xlink:href="#DejaVuSans-69"/>
     <use x="1430.95703125" xlink:href="#DejaVuSans-6e"/>
     <use x="1494.3359375" xlink:href="#DejaVuSans-75"/>
     <use x="1557.71484375" xlink:href="#DejaVuSans-6e"/>
     <use x="1621.09375" xlink:href="#DejaVuSans-67"/>
     <use x="1684.5703125" xlink:href="#DejaVuSans-2c"/>
     <use x="1716.357421875" xlink:href="#DejaVuSans-20"/>
     <use x="1748.14453125" xlink:href="#DejaVuSans-64"/>
     <use x="1811.62109375" xlink:href="#DejaVuSans-69"/>
     <use x="1839.404296875" xlink:href="#DejaVuSans-65"/>
     <use x="1900.927734375" xlink:href="#DejaVuSans-20"/>
     <use x="1932.71484375" xlink:href="#DejaVuSans-6e"/>
     <use x="1996.09375" xlink:href="#DejaVuSans-69"/>
     <use x="2023.876953125" xlink:href="#DejaVuSans-63"/>
     <use x="2078.857421875" xlink:href="#DejaVuSans-68"/>
     <use x="2142.236328125" xlink:href="#DejaVuSans-74"/>
     <use x="2181.4453125" xlink:href="#DejaVuSans-73"/>
     <use x="2233.544921875" xlink:href="#DejaVuSans-20"/>
     <use x="2265.33203125" xlink:href="#DejaVuSans-66"/>
     <use x="2300.537109375" xlink:href="#DejaVuSans-fc"/>
     <use x="2363.916015625" xlink:href="#DejaVuSans-72"/>
     <use x="2405.029296875" xlink:href="#DejaVuSans-20"/>
     <use x="2436.81640625" xlink:href="#DejaVuSans-64"/>
     <use x="2500.29296875" xlink:href="#DejaVuSans-65"/>
     <use x="2561.81640625" xlink:href="#DejaVuSans-6e"/>
     <use x="2625.1953125" xlink:href="#DejaVuSans-20"/>
     <use x="2656.982421875" xlink:href="#DejaVuSans-4d"/>
     <use x="2743.26171875" xlink:href="#DejaVuSans-61"/>
     <use x="2804.541015625" xlink:href="#DejaVuSans-73"/>
     <use x="2856.640625" xlink:href="#DejaVuSans-73"/>
     <use x="2908.740234375" xlink:href="#DejaVuSans-65"/>
     <use x="2970.263671875" xlink:href="#DejaVuSans-6e"/>
     <use x="3033.642578125" xlink:href="#DejaVuSans-6d"/>
     <use x="3131.0546875" xlink:href="#DejaVuSans-61"/>
     <use x="3192.333984375" xlink:href="#DejaVuSans-72"/>
     <use x="3233.447265625" xlink:href="#DejaVuSans-6b"/>
     <use x="3291.357421875" xlink:href="#DejaVuSans-74"/>
     <use x="3330.56640625" xlink:href="#DejaVuSans-20"/>
     <use x="3362.353515625" xlink:href="#DejaVuSans-77"/>
     <use x="3444.140625" xlink:href="#DejaVuSans-65"/>
     <use x="3505.6640625" xlink:href="#DejaVuSans-72"/>
     <use x="3545.02734375" xlink:href="#DejaVuSans-64"/>
     <use x="3608.50390625" xlink:href="#DejaVuSans-65"/>
     <use x="3670.02734375" xlink:href="#DejaVuSans-6e"/>
     <use x="3733.40625" xlink:href="#DejaVuSans-20"/>
     <use x="3765.193359375" xlink:href="#DejaVuSans-77"/>
     <use x="3846.98046875" xlink:href="#DejaVuSans-69"/>
     <use x="3874.763671875" xlink:href="#DejaVuSans-72"/>
     <use x="3914.126953125" xlink:href="#DejaVuSans-64"/>
     <use x="3977.603515625" xlink:href="#DejaVuSans-2e"/>
    </g>
   </g>
   <g id="text_7">
    <!-- Glaubst du, dass sich VR bei Videospielen durchsetzen wird? -->
    <defs>
     <path d="
M19.0938 12.4062
L29 12.4062
L29 0
L19.0938 0
z

M28.7188 19.5781
L19.3906 19.5781
L19.3906 27.0938
Q19.3906 32.0312 20.75 35.2031
Q22.125 38.375 26.5156 42.5781
L30.9062 46.9219
Q33.6875 49.5156 34.9375 51.8125
Q36.1875 54.1094 36.1875 56.5
Q36.1875 60.8438 32.9844 63.5312
Q29.7812 66.2188 24.5156 66.2188
Q20.6562 66.2188 16.2812 64.5
Q11.9219 62.7969 7.17188 59.5156
L7.17188 68.7031
Q11.7656 71.4844 16.4688 72.8438
Q21.1875 74.2188 26.2188 74.2188
Q35.2031 74.2188 40.6406 69.4844
Q46.0938 64.75 46.0938 56.9844
Q46.0938 53.2656 44.3281 49.9219
Q42.5781 46.5781 38.1875 42.3906
L33.8906 38.1875
Q31.5938 35.8906 30.6406 34.5938
Q29.6875 33.2969 29.2969 32.0781
Q29 31.0625 28.8594 29.5938
Q28.7188 28.125 28.7188 25.5938
z
" id="DejaVuSans-3f"/>
    </defs>
    <g transform="translate(-1.870875 23.90175)scale(0.144 -0.144)">
     <use xlink:href="#DejaVuSans-47"/>
     <use x="77.490234375" xlink:href="#DejaVuSans-6c"/>
     <use x="105.2734375" xlink:href="#DejaVuSans-61"/>
     <use x="166.552734375" xlink:href="#DejaVuSans-75"/>
     <use x="229.931640625" xlink:href="#DejaVuSans-62"/>
     <use x="293.408203125" xlink:href="#DejaVuSans-73"/>
     <use x="345.5078125" xlink:href="#DejaVuSans-74"/>
     <use x="384.716796875" xlink:href="#DejaVuSans-20"/>
     <use x="416.50390625" xlink:href="#DejaVuSans-64"/>
     <use x="479.98046875" xlink:href="#DejaVuSans-75"/>
     <use x="543.359375" xlink:href="#DejaVuSans-2c"/>
     <use x="575.146484375" xlink:href="#DejaVuSans-20"/>
     <use x="606.93359375" xlink:href="#DejaVuSans-64"/>
     <use x="670.41015625" xlink:href="#DejaVuSans-61"/>
     <use x="731.689453125" xlink:href="#DejaVuSans-73"/>
     <use x="783.7890625" xlink:href="#DejaVuSans-73"/>
     <use x="835.888671875" xlink:href="#DejaVuSans-20"/>
     <use x="867.67578125" xlink:href="#DejaVuSans-73"/>
     <use x="919.775390625" xlink:href="#DejaVuSans-69"/>
     <use x="947.55859375" xlink:href="#DejaVuSans-63"/>
     <use x="1002.5390625" xlink:href="#DejaVuSans-68"/>
     <use x="1065.91796875" xlink:href="#DejaVuSans-20"/>
     <use x="1097.705078125" xlink:href="#DejaVuSans-56"/>
     <use x="1166.11328125" xlink:href="#DejaVuSans-52"/>
     <use x="1235.595703125" xlink:href="#DejaVuSans-20"/>
     <use x="1267.3828125" xlink:href="#DejaVuSans-62"/>
     <use x="1330.859375" xlink:href="#DejaVuSans-65"/>
     <use x="1392.3828125" xlink:href="#DejaVuSans-69"/>
     <use x="1420.166015625" xlink:href="#DejaVuSans-20"/>
     <use x="1451.953125" xlink:href="#DejaVuSans-56"/>
     <use x="1518.111328125" xlink:href="#DejaVuSans-69"/>
     <use x="1545.89453125" xlink:href="#DejaVuSans-64"/>
     <use x="1609.37109375" xlink:href="#DejaVuSans-65"/>
     <use x="1670.89453125" xlink:href="#DejaVuSans-6f"/>
     <use x="1732.076171875" xlink:href="#DejaVuSans-73"/>
     <use x="1784.17578125" xlink:href="#DejaVuSans-70"/>
     <use x="1847.65234375" xlink:href="#DejaVuSans-69"/>
     <use x="1875.435546875" xlink:href="#DejaVuSans-65"/>
     <use x="1936.958984375" xlink:href="#DejaVuSans-6c"/>
     <use x="1964.7421875" xlink:href="#DejaVuSans-65"/>
     <use x="2026.265625" xlink:href="#DejaVuSans-6e"/>
     <use x="2089.64453125" xlink:href="#DejaVuSans-20"/>
     <use x="2121.431640625" xlink:href="#DejaVuSans-64"/>
     <use x="2184.908203125" xlink:href="#DejaVuSans-75"/>
     <use x="2248.287109375" xlink:href="#DejaVuSans-72"/>
     <use x="2287.150390625" xlink:href="#DejaVuSans-63"/>
     <use x="2342.130859375" xlink:href="#DejaVuSans-68"/>
     <use x="2405.509765625" xlink:href="#DejaVuSans-73"/>
     <use x="2457.609375" xlink:href="#DejaVuSans-65"/>
     <use x="2519.1328125" xlink:href="#DejaVuSans-74"/>
     <use x="2558.341796875" xlink:href="#DejaVuSans-7a"/>
     <use x="2610.83203125" xlink:href="#DejaVuSans-65"/>
     <use x="2672.35546875" xlink:href="#DejaVuSans-6e"/>
     <use x="2735.734375" xlink:href="#DejaVuSans-20"/>
     <use x="2767.521484375" xlink:href="#DejaVuSans-77"/>
     <use x="2849.30859375" xlink:href="#DejaVuSans-69"/>
     <use x="2877.091796875" xlink:href="#DejaVuSans-72"/>
     <use x="2916.455078125" xlink:href="#DejaVuSans-64"/>
     <use x="2979.931640625" xlink:href="#DejaVuSans-3f"/>
    </g>
   </g>
  </g>
 </g>
</svg>
